<svg version="1" xmlns="http://www.w3.org/2000/svg" width="1157.333" height="1157.333" viewBox="0 0 868.000000 868.000000"><path d="M0 434v434h868V0l-19.2.2-19.3.3-.1 3c-.4 10-1.7 30.4-2 32.5-.3 1.4-.5 3.2-.4 4 0 10.2-.1 14.4-.5 19.5-1.5 18.9-2.4 31.4-2.8 41-.1 3.3-.6 6.6-1 7.2-.5.8-.3 1.3.4 1.3s.9.8.4 2.2c-.7 2.6-.9 4-2 15.5-.4 4.8-1.2 8.3-1.8 8.3-.7 0-.7.4.1 1.2 1.4 1.4 1.6 6.2.2 5.3-.5-.3-1 .1-1 1s.4 1.4.9 1.1c.4-.3.6.6.3 1.9-.2 1.4-.8 2.8-1.3 3.1-.5.3-.5 1.3 0 2.3.5.9.6 2.3.2 3-.5.7-.6 2.2-.3 3.3.3 1.1-.1 2.3-.7 2.8-1.4.8-1.7 5.4-.7 8.7.4 1.2.2 2.4-.4 2.8-.6.3-.8 1.1-.4 1.6.3.5 1 .7 1.5.4 1.4-1 1.1.2-.7 2-1.1 1.1-1.7 3.7-1.9 8.3-.3 7-1.4 11.4-3 11.3-.6 0-.9.7-.7 1.5.2.8-.1 1.4-.6 1.4s-.9 1-.8 2.2c.1 1.7-.5 2.4-2.2 2.6-1.9.3-2.1.6-1.1 1.8.9 1.2.9 1.8 0 2.7-.9.9-1.4.9-2.1-.3-.5-.8-1-1-1-.4 0 2.1-5.1 6.3-6.7 5.7-1.1-.4-1.4-.3-.9.6.5.8.1 1.4-1.2 1.8-1.3.3-2.3 1.7-2.7 3.4-.4 1.6-1.1 3.1-1.5 3.4-.6.3-.5 1.6 0 3 .7 1.8.5 2.5-.7 2.9-1.1.5-1.2 1-.4 1.9.7 1 .5 1.8-.9 3-2.1 1.8-2.6 3.7-1.1 3.7.5 0 1.2-.6 1.4-1.3.3-.6.6-.3.6.8.1 1.4-.6 2-2.3 2.1-1.8.1-2.2-.2-1.9-1.6.3-1.2-.3-1.9-1.9-2.4-2.2-.6-2.3-.7-.4-2.1 1.9-1.5 1.9-1.5-.3-1.5-2 0-2.1-.2-1.1-1.5 1-1.2 1-1.5-.4-1.5-.9 0-1.6-.5-1.6-1.1 0-.5.4-.8.9-.5 1.6 1 2.2-2.6.7-4.3-2.3-2.6-3.2-15.2-3.5-46.5-.1-16-.4-30.5-.6-32.1-.9-5.7-1.4-8-2.3-11-.5-1.7-.6-3.9-.2-5 .4-1.1.3-2.5-.2-3.2-.5-.7-1.1-7.4-1.4-15-.2-7.6-.4-13.8-.5-13.8-.2 0-.8-13-.8-18 0-5.1 0-4.4-.4-15-.1-5-.6-9.5-.9-10-.4-.6-.9-6-1.3-12-.3-6.1-.8-14.6-1.1-19-.3-4.4-.6-10.8-.7-14.2l-.2-6.3H0v434zm431.8-327.9c1.7.6 3.3 1.7 3.6 2.6.4 1 1.4 1.3 2.9.9 2.7-.6 9.1 2.9 8.2 4.5-.4.5-.2 1.6.4 2.3.7.8 1.2 3 1.3 4.9.1 2 .7 3.8 1.5 4.1 2 .8 1.5 2.2-.8 2.2-3 0-7.9-4.6-7.9-7.3 0-1.3.5-2.3 1.1-2.3.8 0 .7-.5-.1-1.5-.7-.9-1.8-1.4-2.4-1.2-.6.3-2.1-.5-3.4-1.6-2.1-2-2.3-2-4-.3-1.6 1.6-1.6 1.8.8 3.6 1.4 1.1 3.4 2 4.5 2 1.7.1 1.6.3-.5 1.1-1.4.6-2.7 1-2.9.9-.2-.1-1.2 1.1-2.3 2.7-1.5 2.2-1.8 2.3-1.3.7.5-2.1-1.5-3.9-4-3.6-1.3.2-4-6.6-3.1-7.6.3-.3 1.3.3 2.1 1.4 1.5 1.8 1.5 1.7 1.3-1.1-.2-2.1-.8-3-2-2.9-1 .1-1.6-.3-1.5-1 .1-.6-1-1-2.6-.9-1.7.1-2.5-.2-2.1-.9.3-.5 1.6-.8 2.8-.6 1.2.3 2.8-.1 3.4-.9 1.5-1.6 3-1.6 7-.2zm-12.8 9.3c0 1.7-.5 3.8-1 4.6-.7 1.1-1 .6-1-2 0-1.9-.4-4.2-.9-5-1.3-2-.2-3.4 1.5-1.9.8.6 1.4 2.6 1.4 4.3zm17.5-.4c.3.5.1 1-.4 1-.6 0-1.1-.5-1.1-1 0-.6.2-1 .4-1 .3 0 .8.4 1.1 1zm17.9 13.6c.9.3 1.6 1.7 1.6 3.1 0 1.4-.4 2.2-1 1.8-.6-.4-.8-1.1-.5-1.6.4-.5-.3-.9-1.4-.9-2.1 0-2.7-1.1-1.4-2.3.8-.8.8-.8 2.7-.1zm-2.8 12.1c-.4.4-1.1.1-1.6-.7-1.6-2.5-1.1-3.5.7-1.7.9.9 1.3 2 .9 2.4zm-46.6 1.7c0 .2-.8 1-1.7 1.7-1.6 1.3-1.7 1.2-.4-.4 1.3-1.6 2.1-2.1 2.1-1.3zm4.4 2.1c.3.9 1.8 1.5 3.5 1.5 3.7 0 3.3 1.9-.9 4.4-1.7.9-2.8 2.2-2.5 2.7 1 1.6-.1 1-2.8-1.5-1.5-1.4-2.5-3.2-2.2-4 .3-.9.7-2.3 1-3.1.2-.8 1.1-1.5 1.9-1.5.7 0 1.6.7 2 1.5zm19.5 2.8c-.6 1.4-1.7 2.3-2.3 2.1-.7-.3-2 1-2.9 2.8-1 1.8-1.5 2.5-1.2 1.5.3-1 .5-2.7.5-3.8 0-1 .6-1.9 1.3-1.9.8 0 2.2-.9 3.2-2 2.3-2.5 2.9-2 1.4 1.3zm33.7 1.2c2.4 2.5 5.2 4.5 6.1 4.5 2.2 0 5.3 2.9 5.3 4.9 0 1.3.2 1.3.9.3.6-1 1-.7 1.5 1.2.7 2.7 2.9 2.7 2.4.1-.2-.8.2-1.4.7-1.5.6-.1 1.5 1.9 2 4.4 1 4.3 2.5 7.2 2.5 4.7 0-1.7 3.3-.9 4.8 1.2 1.7 2.2 3.2 1.3 3.2-1.9v-2.6l3.9 3.1c4.3 3.4 9.5 11.7 8.7 13.8-.3.7 0 1.3.6 1.3s.9.3.5.6c-.6.6 1.6 3.4 2.7 3.4.3 0 .6-.7.6-1.5s.4-1.5.9-1.5.8.8.7 1.7c0 1 .8 1.9 1.9 2.1 2.4.5 6.5 4.1 6.5 5.7 0 .6 1.1 3.5 2.6 6.4 2.9 6.2 5.7 13.7 7.5 20.1.7 2.5 1.4 4.9 1.6 5.5.1.5 1 4.1 1.8 7.8.9 3.8 2.2 8.5 3 10.4.8 2 1.5 5 1.5 6.7 0 1.7.7 5.6 1.5 8.6 1.4 5.3 1 6.9-1.7 7-1.8 0-.6 2 1.1 2 1.6 0 1.9.6 1.7 3.5-.2 2 0 3.8.4 4 .4.3.7 1.9.6 3.7-.1 2.5-.8 3.6-2.9 4.6-1.5.7-2.7 1.7-2.7 2.3 0 .5 1.7 0 3.7-1.1 2.3-1.2 5.7-2 8.5-2 6 0 10.7 3.8 14.9 12.2l2.9 5.8-3 17.8c-3.6 21-6.3 27.6-14.1 34.6-6.7 6-11.6 7.4-18.4 5.1-2.7-.9-5.6-1.9-6.2-2.2-.9-.3-1.3.7-1.2 3.4 0 3.1.2 3.5 1 1.8s.9-1.7.4.5c-.7 3.1-2.4 25-2.5 31v4.5l9.5 4.9c10.5 5.4 28.7 18.6 37.9 27.5 9.4 9 23.1 30.9 40.6 64.9l9.5 18.4 15 5.5c8.3 2.9 21.9 6.9 30.3 8.8 27.4 6.1 30.3 7.4 43.1 20.5 9 9.1 10.1 9.9 15.2 10.9 6.3 1.3 9.9 4.4 14.6 12.6 2.1 3.6 4.7 6.2 9.3 9.3 3.6 2.3 8 5.4 9.7 6.8 3.6 2.7 6.7 7.9 5.9 9.7-.2.7-.8.2-1.1-1.1-.4-1.2-1.2-2.2-1.9-2.2-.6 0-2.2-.9-3.6-2-3.2-2.5-4-2.5-4 0 0 1.3-.7 2-2 2-1.5 0-2 .7-2 2.5 0 1.3-1.3 4-3 5.8-1.6 1.9-3 4.6-3 5.9 0 3-1.7 4.8-4.4 4.7-1.2 0-1.5-.3-.9-.6.9-.3 1-1 .3-2.4-.8-1.4-.7-1.9.2-1.9.7 0 .2-1.1-1.2-2.3-1.4-1.2-2.4-2.9-2.4-3.7.1-.8.2-2.1.3-2.8 0-.6.9-1.2 1.9-1.2 1.3 0 1.4.2.4.9-1.1.6-1 1 0 1.9 1.1.9 1.4.5 1.6-1.7.2-3.1-1.6-4.5-4.5-3.4-1.9.7-5 3.8-5.5 5.4-.2.6-1 1.1-1.8 1.2-.8.2-2.1.6-2.7 1-.7.5-1.7.5-2.3.2-1.8-1.1-5-1.4-5.1-.4-.1.5-.2 1.5-.3 2.1-.3 1.8-2.7 1-4.4-1.3-1-1.5-2.1-1.9-3.7-1.5-2.3.6-6-1.6-9.7-5.8-2.4-2.6-2.3-1.1.2 3 1.3 2 1.7 3.5 1 3.9-.5.3-1 1.2-1 1.8 0 .8.3.8.9-.2.5-.7 1.1-.9 1.4-.4.4.6.1 1.8-.6 2.7-1.1 1.4-1.9.7-6.9-5.6-3.1-4-7.8-9.3-10.4-11.8l-4.8-4.5 4 5c4.2 5.3 8.6 11.2 9.7 13.2.4.6.2 1.5-.4 1.9-.7.4-.9.3-.6-.2.3-.5-.2-2-1.1-3.2-1.6-2.1-1.9-2.1-4-.7-1.2.9-2.2 2.6-2.2 3.8 0 3.3-1.1 6.7-2.1 6.7-.5 0-.9-.6-.9-1.3 0-.8-1.8-2-4.1-2.7-3.6-1.2-4-1.7-3.7-4.2.3-1.6-.1-2.9-.8-3.2-1.8-.7-2.5.5-1.3 2.1.9 1 .8 1.3-.2 1.3-1.2 0-1.2.2 0 .9.7.5 1 1.4.7 2-.4.6-1.2.9-1.7.6-.5-.4-.9.4-.9 1.7-.1 2.1-.2 2.1-1.1.5-.6-.9-1.4-1.5-1.9-1.2-.4.3-.6-.5-.4-1.7.2-1.3.2-1.7-.2-1.1-.9 1.9-2.2 1.6-2.9-.7-.3-1.1-1.1-2-1.7-2-.6 0-1.9-1-2.9-2.2l-1.9-2.1v2.1c0 1.1-.5 2.4-1.2 2.8-.7.4-.8.3-.4-.4.4-.6-.1-2.3-1-3.8-1.7-2.4-1.7-2.7-.1-3.6 2.4-1.3 2.2-4.8-.2-4.8-1.1 0-2.3.5-2.7 1.1-.7 1.1-2 1.1-24.9-.6-7.2-.5-16.3-1.9-26.5-4-4.1-.9-10.9-1.8-15-2.1-4.1-.2-9.2-.6-11.2-.9-3-.3-3.6-.1-3.1 1.2.3.8-1.5-.4-4-2.8-4.5-4.1-6.5-6.6-3-3.8 1.2 1 5.1 1.4 15 1.4 14.4 0 17.7-1 6.1-1.9-4-.2-7.8-.6-8.4-.7-.7-.1-1.1-2.2-.9-5.5.2-4.5-.1-5.4-1.7-6-1.4-.4-1.7-1.1-1.2-2.6.4-1.3.2-1.8-.4-1.4-.7.4-1-.5-1-2.3.1-1.7-.7-4.1-1.6-5.5-1-1.7-1.2-2.6-.5-2.6.9 0 .8-.4 0-1.4-.9-1.1-.9-1.5.1-1.9 1-.4.8-.9-.5-1.7-1.7-1.1-1.7-1.4-.3-3.5s1.3-2.4-.4-4c-1.4-1.3-1.7-2.2-1-3 .5-.6.7-1.4.4-1.7-1-1.1-1.4-13.8-.4-13.8 1.4 0 1.2-3.6-.3-5.2-.8-.8-1.3-4-1.2-8.8 0-23.3-1.8-37.1-5.6-44.2-.7-1.3-2.3-5.2-3.6-8.7-4.3-12.3-15.2-28.8-26.6-40.4-2.7-2.7-5.1-4.6-5.4-4.3-.4.4-.1 10.7.6 23 1.3 24.1.7 32.9-3 47.6-3.4 13.3-4.8 15.1-12.4 15.5-2.2.1-5.7 1-7.8 1.9-2.1 1-4.1 1.6-4.4 1.2-.3-.3-.1-.6.5-.6.7 0 1.2-.7 1.2-1.5s.6-1.5 1.4-1.5c.8 0 3.1-1.6 5.2-3.5 2-1.9 4.3-3.5 5-3.5.7 0 1.6-.5 2-1.1.5-.8-.6-.9-3.7-.5-8.2 1.3-9.9 1.8-9.3 2.7.3.5-1.6.9-4.1.9-4.1 0-4.6.2-4.1 1.7s.3 1.5-.9-.1c-.8-1.1-1.3-2.8-.9-3.8.3-1 .1-1.8-.4-1.8-1.5 0-.2-4.7 2-6.9 1-1.2 2-3.2 2-4.4.1-1.2.8-3 1.6-4 .9-.9 1.3-2 .9-2.3-.5-.6.6-3.8 4.5-12.2 1-2.4 3.5-9.1 5.5-15s5.5-15.2 7.9-20.7c2.3-5.5 4.1-10.1 4-10.2-.2-.2-2.8.5-8.6 2.5-.8.3-1.7.6-2 .7-2.7.8-7 3.4-9 5.5-4.9 4.8-9.8 8.5-14.4 10.9-2.5 1.3-4.6 2.8-4.6 3.2 0 1.3-6.1 3.6-11.8 4.4-2.9.4-5.2 1.1-5.2 1.7 0 1.2-2.5 3.8-3.7 3.8-.5 0-1.6.9-2.6 2-.9 1.1-2.2 2.1-2.9 2.1-.7.1-2.4.4-3.8.6-3.4.7-9.1.8-11.5.2-2.3-.5-11.5-6.5-13.2-8.6-1-1.3-1.1-6.9 0-7.9.4-.5 14.1-1.7 21.7-1.9 3-.1 7.1-.3 9.1-.3 5-.3 11-4.9 10.2-8-.3-1.2 0-2.2.6-2.2s.8.7.5 1.5c-.4.8-.1 1.5.6 1.5s1-1.2.8-3.2c-.2-2.6-1.1-3.5-4.4-5.2-5.2-2.7-7.5-4.6-6.8-5.7.3-.5 0-.9-.6-.9-.5 0-3.5-2.6-6.4-5.8-3-3.1-7.1-6.6-9.1-7.6l-3.6-2-2.5 2.7c-1.7 1.9-3.2 2.6-4.7 2.2-6.2-1.3-16.5-2.4-18.3-1.9-3.3.9-5-2-3.6-6 .7-1.8 1.2-3.8 1.2-4.5 0-.7 2.1-3.1 4.6-5.4 7.2-6.4 9.4-12.5 5.4-14.7-1.5-.8-4.2-.8-9.8 0-4.2.6-9.4 1-11.6.8-3.5-.3-3.9-.6-5.6-5.1-1-2.6-2.2-6.7-2.6-9-1-6.1-1.2-36.7-.2-37.3.5-.3.6-.9.3-1.4-.9-1.5 2.3-8 3.9-8 2.3 0 5.9 3.5 9.8 9.2 2.4 3.6 5.3 6.1 10.3 9 3.9 2.3 9 5.4 11.5 6.9s7.2 3.5 10.4 4.3c3.2.9 6.5 2.1 7.2 2.7 1.1.9 1.4.8 1.4-.5 0-.8 1.1-1.8 2.6-2.2 1.8-.5 2.3-1.1 1.9-2.3-.8-1.9-.8-1.8-.6-5.7.1-2.1 1.3-4.3 3.5-6.8 1.9-2 4-5.1 4.7-7 1.2-3.3 1.5-3.5 7.3-4.1 9.9-1.2 10.8-1.8 12.1-8.5.5-2.5-1-6-2.6-6-.9 0-2.1-.8-5.4-3.8-.7-.6-2-1.2-2.7-1.3-.7 0-.4-.4.7-.9 1.9-.7 1.9-.8-.6-1.8-1.4-.6-4.2-2.2-6.3-3.6-3.9-2.6-10.1-4-17.1-3.8-2.2 0-9.2.3-15.5.6l-11.6.5-4.7-4.3c-2.7-2.6-4.8-3.9-5.2-3.2-.3.8-.7.7-1.1-.2-.9-1.9-8.1-5.3-9.8-4.6-.9.4-1.6.1-1.6-.6 0-1-.3-1-1.5 0-.8.7-2.6 1-3.9.8-2.8-.6-5.1.5-5.1 2.4 0 .7-1.4 1.6-3.1 2.1-2.6.8-3.8.5-7.3-1.8-3.9-2.7-5.2-4.5-3.1-4.5.6 0 1-.7 1-1.5 0-1.6 2.2-1.9 8.3-.9 2.3.4 3.7 1.2 3.7 2.2 0 1.2.3 1.2 1.5.2.8-.7 1.5-2 1.5-2.9 0-1.1.3-1.2.8-.4.9 1.4 2.8 0 5.8-4.2 3.4-5 5.6-16.5 3.1-16.5-.4 0-.5-.5-.2-1 .3-.6.2-1-.4-1-.6 0-.8-.7-.5-1.5.4-1 0-1.5-1.5-1.5-1.4 0-2.1-.6-2.1-2 0-1.1-.7-2.3-1.5-2.6-.9-.4-1.3-1.3-1-2.3.3-.9-.2-2.6-1-3.7-1.2-1.5-1.6-1.6-2.3-.6-.7 1-1.1.7-1.4-1.1-.6-2.9.7-5.7 2.6-5.7.8 0 1.3-1.4 1.4-3.6.2-4.2.9-5.4 2.1-3.5 1 1.6 1.9.4 3.7-4.6.9-2.6.9-3.5-.2-4.4-.8-.6-1.4-1.6-1.4-2.2 0-.5.8-.3 1.8.6 1.7 1.5 1.9 1.5 3.2-.3 1-1.4 1.7-1.6 2.7-.8.9.7 1.3.7 1.3-.1 0-.6.7-1.1 1.5-1.1s1.5-.8 1.5-1.8c.1-.9.7-2.8 1.5-4.2l1.4-2.5.1 3.5.1 3.5 1.5-2.8c1.6-3 3.4-3.6 3.4-1.1 0 1.4.3 1.4 1.5.4.9-.7 1.5-.8 1.5-.2 0 .5 1.4 1.2 3 1.4 2.3.3 3 .1 2.6-.9-.3-.7 0-1.2.6-1 .6.1 1.3-.4 1.6-1.2.3-.9 0-1.1-.8-.6-.9.5-1 .2-.5-1.4.6-1.9.4-2-2.1-1.1-3.7 1.4-3.9.8-.9-2.8 2.8-3.3 3.5-5.6.8-2.4-1 1-3.6 3.2-5.7 4.8-3.5 2.6-3.8 2.7-2.8.7.7-1.2 1.7-2.5 2.2-2.8.6-.3 1-1.5 1-2.6 0-1.8-.2-1.8-2.4.6-1.9 2-2.9 2.4-4.3 1.7-1-.5-2.4-.7-3.1-.5-.8.3-1-.1-.6-1.4.5-1.3.2-1.2-1 .5-2.4 3.1-4.2 1.7-2-1.6.9-1.4 1.7-4.1 1.6-5.9-.1-2.2.3-3.3 1.3-3.3.9 0 1.6-1.7 2.1-4.8.3-2.6 1.1-5.6 1.7-6.7 1-1.8 1-1.8 1.9.5.7 1.8 1.1 2.1 1.7 1.1.6-1 1.1-.6 1.9 1.5 1.1 2.8 1.1 2.7.6-.9-.5-3-.3-3.7 1-3.7 1.2 0 1.6 1 1.7 3.7.1 2.1.5 4.9.9 6.3.7 2.2.8 1.9.9-1.6.1-4.8.7-5.7 3.2-4.3 1.4.7 1.9 2.1 1.9 5.4 0 2.5-.4 4.5-.9 4.5s-.7-1-.3-2.2c.3-1.4.2-1.9-.6-1.4-.7.4-1.2 1.8-1.2 3.1 0 1.8.4 2.2 2 1.8 1.2-.3 2-1.4 2.1-2.7.2-4.5-.3-9.2-1.3-11-.9-1.6-.7-1.8 1.1-1.3 1.4.3 2.1 0 2.1-.9 0-.8.5-1.4 1-1.4 1.2 0 1.3 6.7.1 7.2-.5.1-1.2 3.4-1.5 7.3l-.7 7 2-3.8c1.3-2.6 1.8-4.9 1.4-6.8-.5-2.4-.3-2.8 1.1-2.3 1.2.5 1.5.2 1-.9-.4-1.1 0-1.5 1.3-1.4 2.4.1 2.8 4.3 1.2 11-1.3 5.4-.5 7.8.8 2.6 1-3.7 2.9-4.9 3.6-2.2.3 1 .5.1.6-2 0-2-.3-3.7-.9-3.7-.5 0-1-1.2-1-2.8-.1-1.5-.7-3.8-1.5-5.2-.8-1.4-1.4-3.2-1.4-4 0-.8.9.2 2 2.3 1.1 2.1 2.5 3.5 3 3.1 1.3-.8.3-5.3-1.6-7.4-.9-1-1.1-2.6-.6-5 .4-2.3.9-3.1 1.5-2.2.6 1 1.1 1 2.1.2 2.5-2.1 3.6-.1 3.1 5.3-.2 2.9-.5 5.6-.6 6.2-.8 3.5.4 3.2 1.5-.4.8-2.5 1.2-4.8.9-5.3-.3-.4 0-.8.5-.8.6 0 1.1-1.4 1.1-3.1 0-2.6.3-2.9 1.4-2 1 .9 1.5.8 2-.4.9-2.3 2.1-1.8 4.9 2.2l2.7 3.8v-3.4c0-3.3 0-3.4 2-1.6 1.5 1.4 2 1.5 2 .4 0-.8.9.4 1.9 2.6 1.1 2.2 2 3.4 2 2.6.1-.8.8-1.1 2.2-.8 1.5.4 1.9.1 1.6-1.1-.2-.9-.9-1.6-1.6-1.4-.7.1-1-.2-.7-.7.4-.5-.8-2.1-2.6-3.5s-2.7-2.6-2-2.6c.7 0 3.3 2 5.8 4.5zm-68.2-.1c-.6 1.5-2.4 2.3-2.4 1.1 0-.8 2.4-3.4 2.8-3 .1.1 0 1-.4 1.9zm78.1.6c.3.5.1 1-.4 1-.6 0-1.1-.5-1.1-1 0-.6.2-1 .4-1 .3 0 .8.4 1.1 1zm6.2-.4c-.3.3-1.2.4-1.9.1-.8-.3-.5-.6.6-.6 1.1-.1 1.7.2 1.3.5zm2 2.6c-.3.8-.6.5-.6-.6-.1-1.1.2-1.7.5-1.3.3.3.4 1.2.1 1.9zm-86.2 4.8c.3.5.1 1-.4 1-.6 0-1.1-.5-1.1-1 0-.6.2-1 .4-1 .3 0 .8.4 1.1 1zm3.9 12.2c-.3 1-1.2 1.8-2 1.8-1.4 0-1.4-.6.2-7.8l.7-2.7.8 3.5c.4 1.9.6 4.3.3 5.2zm-5-5.3c.3.4-.1 1.7-.9 2.7-1.4 1.8-1.4 1.8-1.5-.9 0-2.6 1.3-3.6 2.4-1.8zm1.1 8.1c0 2.2-.4 4-1 4-.5 0-.3.5.5 1 1.9 1.2.2 4.3-2.5 4.9-1.4.2-1.7-.1-1.1-2 .4-1.3 1.2-4.5 1.9-7.2.6-2.6 1.4-4.7 1.7-4.7.3 0 .5 1.8.5 4zm-4.5.2c0 1.9-.2 2-1 .8-1.3-1.9-1.3-3 0-3 .6 0 1 1 1 2.2zm-1 5.6c0 .5-.9 1.7-2.1 2.8-2.1 1.9-2.1 1.9-.8-.9 1.2-2.6 2.9-3.7 2.9-1.9zm-3 18.3c0 .5-.4.9-1 .9-.5 0-1-.7-1-1.6 0-.8.5-1.2 1-.9.6.3 1 1 1 1.6zm412.8 21.2c-.7.8-2.2 1.2-3.3.9-1.8-.5-1.8-.6.5-1.3 3.8-1.1 4.2-1 2.8.4zm-11.7 23.9c.1.7.1 1.7 0 2.1-.1.4.5 1 1.3 1.3 1.2.5 1.2.9-.2 2.5-2 2.3-3.6 2.5-2.8.4.3-.9-.4-2.5-1.5-3.6-1.7-1.7-1.9-2.3-.8-3 2-1.3 3.9-1.1 4 .3zm1.9 9.8c0 .5-.4 1-1 1-.5 0-1-.5-1-1 0-.6.5-1 1-1 .6 0 1 .4 1 1zm27.6 10.9c1.6-1.3 3.7-.2 2.8 1.3-.4.7-.2.8.4.4.6-.3 1.6.3 2.2 1.4.8 1.6.8 2-.4 2-.8 0-2.4 1.2-3.5 2.6-1.2 1.5-2.1 2.4-2.1 2 0-.4-.5-.4-1.1 0-.8.4-.7.9.2 1.5 1.1.7 1.1.9-.2.9-.9 0-1.9.7-2.3 1.5-.3.8-1.3 1.5-2.3 1.5-1.4 0-1.5-.2-.4-.9.8-.5.9-1.1.3-1.5-1.3-.8-2.3 1.9-1.5 4.1.4 1.2 0 1.1-1.1-.5-1-1.2-2.6-2.2-3.8-2.2-1.4 0-1.8-.5-1.4-1.5.6-1.8.1-1.9-2.4-.5-1.5.8-2.1.6-2.9-.7-.5-1-1.8-1.8-2.8-1.8-1 0-1.7-.6-1.5-1.5.2-1.2-.1-1.1-1.1.2-1.7 2.1-2.7 1.4-2-1.3.3-1 1.7-2.2 3.2-2.6 1.4-.3 2.9-1.1 3.3-1.6.3-.6 2.7-1 5.2-1.1 2.5-.1 4.6-.4 4.6-.8 0-.5 1.6-.6 3.5-.3 2.2.2 3.5 0 3.5-.7 0-.9.3-.9 1.2 0 .8.8 1.5.8 2.4.1zM790.5 274c.3.5.1 1-.4 1-.6 0-1.1-.5-1.1-1 0-.6.2-1 .4-1 .3 0 .8.4 1.1 1zm.8 3.7c-.7.2-1.9.2-2.5 0-.7-.3-.2-.5 1.2-.5s1.9.2 1.3.5zM439.5 404c.6 1-.6 5-1.4 4.6-.3-.2-4.2 0-8.5.5-8.4.9-12 0-11.4-2.9.2-.9 1.4-1.9 2.8-2.3 3.1-.8 18-.8 18.5.1zm-24 5c.3.5.1 1-.4 1-.6 0-1.1-.5-1.1-1 0-.6.2-1 .4-1 .3 0 .8.4 1.1 1zm88.5 78.4c0 1-9.1 5.6-10 5.1-1.2-.7-1.4-2.6-.2-2.3 1.5.4 7.2-1.4 7.2-2.3 0-.5.7-.9 1.5-.9s1.5.2 1.5.4zm76 108.9c17.6 11.7 23.8 17.3 18 16.2-1.1-.2-2 .1-2 .6 0 .6-.4.8-.9.5-.5-.3-1.7 1.1-2.7 3.2-1.6 3.1-2.3 3.6-4.6 3.4-2.1-.2-2.5-.7-2.1-2 .4-.9 1.4-2.2 2.2-2.9.9-.6 1.2-1.5.8-2-.5-.4-1.8.4-2.9 2-1.1 1.5-2.7 2.7-3.5 2.7-.9 0-1.3.6-1 1.4.3.8-.1 1.7-1 2-.9.4-1.3.9-1 1.3.4.3-.1 1.2-1.1 1.9-1.9 1.5-5.6 1.9-4.8.5.3-.4-.7-.6-2.2-.3-2.7.5-2.7.5-.8-1.6 1.8-2.1 1.8-2.2.1-4.9-1.7-2.6-1.7-2.7-.1-1.4 1.6 1.3 1.7 1.2 1-1.5-1-4.2-2.3-6.4-3.8-6.4-.8 0-1.3-1.3-1.4-3.3-.1-3.8-2-9.3-2.8-8.4-.3.3-.7 2.3-.8 4.3-.4 4.7-2.6 5.9-2.6 1.4 0-1.7.5-4 1-5 .7-1.3.7-2.1 0-2.5-.6-.4-.8-1.1-.5-1.6.9-1.3 2.6-1.1 2.3.2-.2.6 1 1.6 2.7 2.2 1.6.5 3.4 1.4 4 1.9.5.5 2.4 1.8 4 2.8 1.7 1 6.3 4.1 10.3 6.9 4.1 2.8 7.1 4.3 6.8 3.5-.3-.9-.6-2-.6-2.5 0-.6-.4-.7-1-.4-.5.3-1 0-1-.7 0-.8-1.4-1.9-3-2.5-2.2-.8-2.8-1.6-2.4-2.7.5-1.4.1-1.6-2.4-1.1-3.5.6-6.7-2-3.8-3.1 1.3-.5 1.4-.9.5-2.1-.7-.7-1.8-1.2-2.6-.9-.7.3-1.3.1-1.3-.5s-.5-.7-1.2-.3c-.7.4-.8.3-.4-.5.4-.6.2-1.9-.6-2.8-1.6-2.1-1-1.8 9.2 5zm183.8 8.2l.1 2-.9-2c-.5-1.1-.8-3.1-.8-4.5v-2.5l.8 2.5c.4 1.4.8 3.4.8 4.5zm-6.4 2c.4 1.5-.1 1.3-1.9-1-1.4-1.7-2.5-3.7-2.5-4.5 0-1.9 3.7 2.7 4.4 5.5zm-57.3 1.8c-1 .9-1.1.8-.5-.6.3-1 .9-1.5 1.2-1.2.3.3 0 1.1-.7 1.8zm65.9 7.9c0 .5-.7.3-1.5-.6-.8-.8-1.5-1.8-1.5-2.2 0-.3.7-.1 1.5.6s1.5 1.7 1.5 2.2zm-179.5 5.9c.4.6 1.3.8 1.9.6 2.9-1.1.9 3.3-4.3 9.8-3.1 3.8-6.9 8.7-8.4 10.7-1.6 2.1-3.2 3.8-3.6 3.8-.4 0-1.4-1.2-2.2-2.6-1.2-2.3-1.2-2.7.6-4 1.7-1.3 2.1-1.3 3.4.3 1.3 1.7 1.3 1.7.7-.1-.5-1.6-.4-1.7.9-.6 1.2 1 1.5 1 1.5-.4 0-.9-.7-1.6-1.6-1.6-1.7 0-1.6-3.7.1-5.6.6-.6 1.7-2.2 2.5-3.4 2.7-4 6.2-8 7-8 .5 0 1.2.5 1.5 1.1zm-14.4 9.6c-.8 1.5-1 1.5-1.1.2 0-1.7 1-3.2 1.8-2.5.2.3-.1 1.3-.7 2.3zm-3.6 7.3c.3.5-.1 1-1 1s-1.3-.5-1-1c.3-.6.8-1 1-1 .2 0 .7.4 1 1zM362 827.4c0 .3-.4.8-1 1.1-.5.3-1 .1-1-.4 0-.6.5-1.1 1-1.1.6 0 1 .2 1 .4zm-5 3.6c0 .5-.2 1-.4 1-.3 0-.8-.5-1.1-1-.3-.6-.1-1 .4-1 .6 0 1.1.4 1.1 1z"/><path d="M477.3 164.6c-.3.8-.1 2 .6 2.7.8.8 1.1.4 1.1-1.6 0-3-.7-3.5-1.7-1.1zM402.6 169c-2.1 5.8-2.1 6.3-.5 6.9.8.2.9-.1.3-1-.6-1.2-.5-1.2.8-.1 1 .8 1.9.9 2.2.3.8-1.3.5-11.1-.4-11.1-.3 0-1.4 2.2-2.4 5zM407.1 172.6c0 1.1.3 1.4.6.6.3-.7.2-1.6-.1-1.9-.3-.4-.6.2-.5 1.3zM438 174.6c-1.6 4.8-.4 5.6 1.5 1.1 1.8-4.2 1.8-4.7.6-4.7-.5 0-1.5 1.6-2.1 3.6zM409.1 173.6c0 1.1.3 1.4.6.6.3-.7.2-1.6-.1-1.9-.3-.4-.6.2-.5 1.3zM404.1 179.6c-1.6 3.7-.9 3.9 1.1.3.9-1.6 1.4-2.9.9-2.9-.4 0-1.3 1.2-2 2.6zM381 219.5c0 .9.5 1.5 1.1 1.3.6-.2 1.1-.8 1.1-1.3s-.5-1.1-1.1-1.3c-.6-.2-1.1.4-1.1 1.3zM528 243.9c0 .5.7 1.5 1.7 2.2 1.5 1.3 1.5 1.2.4-.9-1.2-2.3-2.1-2.8-2.1-1.3zM525.6 251.3c.3 1 .9 1.5 1.2 1.2.3-.3 0-1.1-.7-1.8-1-.9-1.1-.8-.5.6zM527.5 257c.9 1.7 1.3 3.4 1 3.9-.2.5.2 1.2 1 1.5 1.2.4 1.4 0 .9-2.2-.9-3.7-2.3-6.2-3.5-6.2-.5 0-.2 1.4.6 3zM388 258.4c0 .9.5 1.6 1 1.6.6 0 1-.4 1-.9 0-.6-.4-1.3-1-1.6-.5-.3-1 .1-1 .9zM531.6 258.6c-.3.8-.2 1.2.4.9.5-.3 1.4.4 2 1.5 1.2 2.3 3 2.7 3 .6 0-.7-1.1-2.1-2.4-2.9-2.1-1.4-2.5-1.5-3-.1zM519 269.2c0 2.2 1.7 4.1 2.9 3.4.8-.5.8-1.3.1-2.7-1.2-2.1-3-2.6-3-.7zM536 269c0 .5-.8 1-1.7 1-1.1 0-1.4.3-.7.8 1.3.8 2.7 7.2 1.6 7.2-.4 0-1.2 1.1-1.9 2.5-.9 2-.8 2.5.3 2.5.8 0 1.4-.5 1.4-1 0-.6.7-1 1.5-1 1.2 0 1.5-1.4 1.5-6.5 0-3.7-.4-6.5-1-6.5-.5 0-1 .4-1 1zM526 272.4c0 .2.8 1 1.8 1.7 1.5 1.3 1.6 1.2.3-.4s-2.1-2.1-2.1-1.3zM523 279.4c0 .9.5 1.6 1 1.6.6 0 1-.4 1-.9 0-.6-.4-1.3-1-1.6-.5-.3-1 .1-1 .9zM542.4 293.6c-4.9 3.3-5.9 4.7-8.9 11.1-2.1 4.5-2.8 5.2-5.2 5-3.7-.3-4.3 2.8-1 5.8 1.8 1.8 2.6 3.8 3.1 8.3.4 3.3.9 6.2 1.2 6.5.3.3 1.9.1 3.6-.3 1.9-.6 3.6-.5 4.7.2 1.4.8 2.5.5 5.4-1.3 4.3-2.8 4.5-3.2 3.9-8.6-.5-5.1-3.9-8.9-9.3-10.3-2.2-.6-3.9-1.7-3.9-2.5 0-1.9 10-5.5 12.2-4.4 3.3 1.7 6.9 7.8 7.7 12.6l.7 4.8 1.3-6c.7-3.3 1.8-6.5 2.3-7.2 2.3-2.8-1.8-12.5-6.2-14.8-4.2-2.2-7.2-1.9-11.6 1.1zM463 347c0 .6-1.2.9-2.7.8-1.6-.2-2.7.2-2.6.7.1.6-1 1.1-2.5 1.2-2.6.2-2.6.1-.4-.7 1.2-.5 2.2-1.2 2.2-1.5 0-.8-6.2-.3-7.5.6-.5.3-2.7 1.2-4.7 1.8-3.5 1.2-5.2 3.1-2.7 3.1.5 0 .7.5.4 1.1-.4.6-1.4.8-2.3.4-.8-.3-1.8-.1-2.2.5-.8 1.2-4.4-1.8-4.6-3.8-.2-2.9-.5-3.2-2.8-3-1.5.1-2.2.7-1.9 1.5.7 1.7-.9 1.7-2.6 0-1.1-1-1.4-1-1.8 0-.3.7-1.1 1.3-1.8 1.3-2.4 0-2.3 2.4.2 5.8l2.5 3.3-2.4-.6c-2.1-.6-2.4-.3-2.6 2.9-.2 2.8.1 3.4 1.3 3 .8-.3 1.5-1.3 1.5-2.1 0-2.4 6.9-.9 9.7 2.1 1.6 1.7 2.9 2.3 4.5 1.8 1.9-.5 2-.6.4-1.2-2.9-1-1.8-2.3 2-2.3 2 0 3.9.6 4.4 1.3.6.9.9.8 1.4-.7.5-1.5 1.3-1.9 3.1-1.5 1.4.2 2.5 1 2.5 1.7 0 1.5 5.1 1.5 6.3 0 .6-.7 1-.6 1.4.2.2.7 1.2 1.3 2.1 1.3 1.3 0 1.4-.2.3-.9-.7-.5-.9-1.1-.4-1.4 1.1-.7 2.5.3 3.9 2.7.6 1.1 1.6 2.2 2.4 2.4.7.3 1 0 .6-.7-1.2-1.9 1.3-1.2 3.5 1 2.1 2.1 6.9 3.3 6.9 1.8 0-.5-.8-.9-1.7-.9-1.5 0-1.6-.2-.3-1 .8-.5 2.3-.7 3.3-.4 2 .6 2.4-2.1.5-2.9-.7-.3-.1-.6 1.4-.6l2.6-.1-1.5-4c-.9-2.2-2-3.7-2.4-3.4-.5.3-.6-.2-.3-1 .3-.9.1-1.6-.5-1.6s-1.1-.5-1.1-1.1c0-.7 1.1-.4 2.8.6l2.7 1.8-2.4-2.7c-1.4-1.4-3.5-2.6-4.7-2.6-1.3 0-2.6-.5-3-1.1-.3-.6-2.4-.9-4.5-.7-2.6.2-3.9-.1-3.9-.9 0-.6-.4-1.5-1-1.8-.5-.3-1-.1-1 .5zm-31.5 5c.3.5.1 1-.4 1-.6 0-1.1-.5-1.1-1 0-.6.2-1 .4-1 .3 0 .8.4 1.1 1zm18 4c.3.6-.1.7-.9.4-1.8-.7-2.1-1.4-.7-1.4.6 0 1.3.4 1.6 1zm-8.1 2.5c-.4.8-1 1.5-1.4 1.5-.4 0-1.3-.7-2-1.5-1.1-1.3-.8-1.5 1.3-1.5 1.9 0 2.5.4 2.1 1.5zM483 352.9c0 .6.4 1.3 1 1.6.6.3.7-.1.4-.9-.7-1.8-1.4-2.1-1.4-.7z"/><path d="M483 359.9c0 .5.5 1.3 1 1.6.6.3 1 .2 1-.4 0-.5-.4-1.3-1-1.6-.5-.3-1-.2-1 .4zM446.5 365c-.3.5.1 1 1 1s1.3-.5 1-1c-.3-.6-.8-1-1-1-.2 0-.7.4-1 1zM588 468.3c0 .8 14.2 28.5 17.7 34.5 2.9 5 4.3 5 1.6.1-1-1.9-5.3-10.1-9.6-18.4-7.2-13.8-9.7-18-9.7-16.2zM491 485.4c0 .2.7.6 1.5 1 .8.3 1.5.1 1.5-.4 0-.6-.7-1-1.5-1s-1.5.2-1.5.4zM609 508.1c0 .9 8 16.9 8.5 16.9.8 0-1.8-7.6-3.1-9.1-.8-.8-1.4-2-1.4-2.5 0-1-3.9-6.2-4-5.3zM576.6 518.5c.4.8 1 1.5 1.5 1.5s.9-.7.9-1.5-.7-1.5-1.5-1.5c-.9 0-1.2.6-.9 1.5zM580.5 528.1c-1.2 1.9.5 2.3 2.2.6 1.6-1.6 1.6-1.7.1-1.7-.9 0-2 .5-2.3 1.1zM575 529c0 .5.4 1 .9 1 .6 0 1.3-.5 1.6-1 .3-.6-.1-1-.9-1-.9 0-1.6.4-1.6 1zM578 533c0 .5.5 1 1.1 1 .5 0 .7-.5.4-1-.3-.6-.8-1-1.1-1-.2 0-.4.4-.4 1zM575 542.9c0 1-.7 2.1-1.5 2.5-2.4.9-1.8 2.8.6 2.1 1.8-.6 2.1-.4 1.7 1.2-.3 1 .1 2.5.9 3.2 1.2 1.1 1.1 1.5-.6 2.8-1.2.8-2.1 2.4-2.1 3.6 0 1.8.5 1.5 4-2.1 4.1-4.2 5.2-6.6 2.5-5.6-1 .4-1.8-.2-2.4-1.7-.6-1.8-.4-2.8 1-4 2-1.7 2.6-3.5.9-2.4-.5.3-1.9.1-3-.5-1.7-.9-2-.8-2 .9zM568.7 543.4c-.4 1-.1 1.3.9.9.7-.3 1.4-.9 1.4-1.4 0-1.4-1.7-1-2.3.5z"/><path d="M574.3 552.7c-1.5.5-1.7 2.3-.4 2.3.5 0 1.1-.7 1.5-1.5.3-.8.4-1.5.3-1.4-.1 0-.8.3-1.4.6zM634.4 561.6c1.2 2.4 2.2 4 2.4 3.5.4-1.1-2.4-6.7-3.6-7.5-.4-.3.1 1.5 1.2 4zM615 564.8c0 2.2.7 3.2 3.3 4.4 1.9.9 6.1 4.1 9.4 7.2 6.2 5.7 8.9 6.8 9.9 4.1 1.1-2.9-.6-6.4-3.9-8l-3.2-1.6 2.5 2c5.2 4.3.1 1.9-7-3.3-4.1-3-7.8-5.2-8.2-4.9-.5.2-.8-.3-.8-1.1 0-.9-.4-1.6-1-1.6-.5 0-1 1.3-1 2.8zM619 562.8c0 1.4 4.3 2.3 5.4 1.2.7-.7.4-1-.6-1-.9 0-2.3-.3-3.2-.6-.9-.3-1.6-.2-1.6.4zM638.6 569.7c.7 1.6 1.4 3.3 1.4 3.9 0 .6.7 1.7 1.5 2.4 1.1.9.9-.1-.6-3.9-1.2-2.8-2.5-5.1-3-5.1-.4 0-.1 1.2.7 2.7zM664 573.4c0 .2.8 1 1.8 1.7 1.5 1.3 1.6 1.2.3-.4s-2.1-2.1-2.1-1.3zM670 578.3c0 .2 1.5 1.6 3.3 3.3l3.2 2.9-2.9-3.3c-2.8-3-3.6-3.7-3.6-2.9zM592.8 579.7c.6.2 1.8.2 2.5 0 .6-.3.1-.5-1.3-.5-1.4 0-1.9.2-1.2.5zM602.8 581.7c.6.2 1.8.2 2.5 0 .6-.3.1-.5-1.3-.5-1.4 0-1.9.2-1.2.5zM624.5 582c-.4.6-4.2.8-9.3.6l-8.7-.4 8.5 1.3c12 1.9 26.9 3.2 28.2 2.4 1.7-1.1-.6-1.9-4.8-1.8-2.2.1-5.9-.6-8.3-1.5-5.1-1.9-4.8-1.9-5.6-.6zM745.2 584.1c.5 1.7 4.8 2.5 4.8 1 0-.6-.4-1.1-.9-1.1s-1.7-.3-2.7-.7c-1.2-.4-1.5-.2-1.2.8zM720.6 599.5c-.3.8-.1 1.5.4 1.5.6 0 1-.7 1-1.5s-.2-1.5-.4-1.5-.6.7-1 1.5zM710.5 601c-.3.5-.1 1 .4 1 .6 0 1.1-.5 1.1-1 0-.6-.2-1-.4-1-.3 0-.8.4-1.1 1zM802.5 270c-.3.5.1 1 .9 1s1.8-.5 2.1-1c.3-.6-.1-1-.9-1s-1.8.4-2.1 1zM573.1 620.6c0 1.1.3 1.4.6.6.3-.7.2-1.6-.1-1.9-.3-.4-.6.2-.5 1.3z"/></svg>