<svg version="1" xmlns="http://www.w3.org/2000/svg" width="682.667" height="682.667" viewBox="0 0 512.000000 512.000000"><path d="M355 117.5c-38.5 6.8-59.7 36-54.8 75.4 1.9 15.3 9.9 30.4 22.8 43.1 7.4 7.3 20.4 16.8 35.8 26.2 40.6 24.8 54.8 36.7 62 52 2.2 4.5 4.3 10 4.7 12.1.7 4.4.8 18 0 21.6-4.1 20.4-16.9 33.8-36.3 38-7.4 1.6-19.8 1.4-28.4-.4-20.4-4.3-34.6-17.9-43.9-42.1-3.3-8.2-6.7-22.1-7.6-30.4-.3-3-.7-6.2-.9-7-.1-.8-.3-2.3-.3-3.3-.1-1.3-1-1.7-4.6-1.7H299l-.1 30.2c-.1 16.7-.2 37.3-.3 45.7l-.1 15.5 2.8-.1c1.5-.1 3.3-.1 4.1-.2.8-.1 1.6-1.9 2.1-4.8.8-5.6 2.8-9.9 5.3-11.2 2.2-1.1 8.7 1 15.2 5 7.3 4.5 18.8 9.5 26.5 11.5 11.4 3 39.2 2.6 51.8-.6 27-7 45.4-24.3 51.8-48.8 2.9-11 2.9-28.8 0-39.7-4.7-17.4-16.5-32.1-38.4-47.9-11.3-8.1-42.9-28.6-44.2-28.6-.9 0-19.4-12.7-24-16.4-7.2-5.9-14.3-13.5-17-18.1-5.4-9.3-7.5-24.5-4.8-35.9 6.1-26.1 33.1-38.9 63.8-30.1 12.5 3.5 25.8 16 33 31 4 8.1 7.7 19.8 8.9 28 .2 1.6.7 4.9 1.1 7.3l.7 4.3 4.1-.3 4.2-.4.1-12.4c.1-13.9 1.4-59.4 1.7-62.5.2-1.7-.5-2-4.5-2.3-4.5-.3-4.8-.1-4.8 2.1 0 4-2.7 11.8-4.6 13.2-3 2.1-9.5.1-18-5.6-6.7-4.5-15.5-8.6-22.4-10.4-7.9-2.1-28.7-2.7-38-1zM165.4 130.5c-2.6 6.6-7.1 18.3-10.1 26-3 7.7-11.2 28.8-18.3 47-7 18.1-13.3 34.1-13.8 35.5-.6 1.4-2.5 6.3-4.2 11-1.8 4.7-3.6 9.4-4.1 10.5-.5 1.1-8.9 22.8-18.8 48.2-9.9 25.5-19.5 49.1-21.4 52.6-4.7 8.3-11.7 15.4-18.3 18.4-5.2 2.4-5.4 2.6-5.4 6.4 0 3.9 0 3.9 3.3 3.3 3.5-.7 54.9-.7 63.4 0 4.6.4 5.1.2 5.5-1.7.8-4.4-.4-6.2-4.2-6.2-8.8.1-19.9-3.6-24-8-5.2-5.6-6-17.3-2-31.3 1.8-6.6 19.5-53 20.5-54 .6-.6 90.4-.6 91 0 1.1 1.1 25.7 67.8 26.9 72.8 1.5 6.6 1.2 10.4-.9 13.7-2.6 3.9-10.3 6.4-21 6.7-2.5.1-3.1.6-3.5 3.1-.9 4.9-.4 5.4 5.8 4.9 9.6-.8 74.4-.7 78.8 0 4.1.7 4.2.7 4.6-2.4.5-3.6-1.2-6-4.5-6-4.8 0-13.6-7.6-17.9-15.6-2.1-3.8-44.8-112.7-57.3-145.9-2.6-7-21.9-56.9-31-80-3.4-8.8-6.5-17-6.9-18.3-.8-2.4-.8-2.4-4.8-2.6-2.6-.2-3 .4-7.4 11.9zm15.5 93.7l20.8 55.3-21.4.3c-11.7.1-30.9.1-42.6 0l-21.3-.3 21.4-55.8c11.8-30.6 21.7-55.5 21.9-55.3.3.3 9.8 25.4 21.2 55.8z"/></svg>