<svg version="1" xmlns="http://www.w3.org/2000/svg" width="346.667" height="346.667" viewBox="0 0 260.000000 260.000000"><path d="M.2 19.2l.3 19.3 9.3.3c12 .4 11.2 2.2-.9 2.2-7.2 0-8.9.3-8.9 1.5 0 1.7 1.9 2.2 12.5 2.9 6.8.5 9.3 1.2 17.1 5 9.7 4.9 19.8 13.5 21 18.1.3 1.4 1 2.5 1.6 2.5.5 0 .7.4.4.9-.4.5-.2 1.1.3 1.3.6.1 1.2 1.5 1.5 3 .2 1.4.9 3.5 1.4 4.5.5 1 .7 2.4.5 3-.3.7 0 1.3.6 1.3s1.1.9 1.1 2 .3 2 .8 2c.4 0 .8 2.4 1 5.2.2 2.9.8 5.6 1.5 6 1.1.7.2 1.2-1.6.9-.5-.1-.5.3-.2 1 1 1.5 1.8 10.6.9 9.7-.4-.5-1.2.2-1.9 1.5-.9 1.8-.8 2.4.8 3.3 1.8 1 1.8 1.2-.8 3.2-1.5 1.2-2.3 2.2-1.8 2.2.5 0 .7 1.6.5 3.5-.2 1.9-.8 3.5-1.3 3.5s-.6 1.2-.3 2.6c.5 1.9.3 2.5-.4 2-.6-.4-1.6.2-2.2 1.3-.7 1.3-.7 2.2 0 2.6.5.3 1 1.1 1 1.6 0 .6-.4.8-.9.5-.5-.4-.7.3-.4 1.4.3 1.1 0 2-.6 2s-1 .3-.9.7c.4 2-1.5 6.1-2.6 5.7-.7-.3-1.8.1-2.4.9-1 1.2-.7 1.4 1.5 1 2.5-.3 2.6-.2.6.6-2.3 1-3.9 4.4-3.4 7.5.1 1-.2 1.5-.8 1.2-1.2-.8-2.6 7.7-1.6 9.6.6 1 .5 1.1-.6.1-1.9-1.9-3.3-1.6-1.5.3 2 1.9 2.1 4.3.2 5-1.2.4-1.3 1.2-.5 3.2.6 1.5.7 2.3.3 1.9-.4-.3-1.3.1-2 1.1-1.2 1.6-1.3 1.5-1.5-.8-.1-2.1-.3-1.8-1.1 1.1-.7 2.9-1.3 3.6-2.9 3.2-1-.3-1.9 0-1.9.6s-.7.8-1.7.4c-1.1-.5-1.4-.3-.8.6.6 1 .3 1.1-1.3.2-1.6-.9-2.3-.8-2.9.4-.5.8-1.7 1.6-2.8 1.8-4.8.9-7.4 2-6.9 2.8.3.5 0 .9-.5.9-.6 0-1.1-.6-1.1-1.3 0-.9-.2-.9-.8 0-.4.6-1.6 1.3-2.7 1.5-2.8.4-3.5 1.7-3.5 6 0 3 .4 3.8 1.8 3.8 6.7 0 29 2.3 30.6 3.2 2 1.1 2 1.1.2 2.2-1.1.6-3.4 2.4-5.2 3.9l-3.3 2.8-1.2-2.2-1.2-2.3-1.9 2.5c-1.1 1.3-2.3 2.4-2.7 2.5-.3 0-1.4.4-2.4.9-1 .4-2.1.5-2.4.1-.4-.4-1.3.4-2.1 1.6-.7 1.3-1.1 1.5-.8.6.4-1.4 0-1.8-1.7-1.7-1.2 0-1.6.3-.9.6 2 .8 1.3 2.5-.8 1.8-1.2-.4-2-.2-2 .6s-.4.8-1.6-.1c-.8-.8-1.4-.9-1.3-.4.1.5-.1 2-.4 3.4-.4 1.4-.8 4.9-1.1 7.8-.2 3-1 6.1-1.9 6.9-1.3 1.3-1.5.4-1.6-8.4-.1-5.4-.6-10.2-1.1-10.7-.7-.7-1 6.7-1 20.2V260h127c109.7 0 127-.2 127-1.4 0-.8-.5-2.7-1.2-4.3-.6-1.5-1.4-5.6-1.8-8.9-.5-4-2-8.8-4.4-13.6-2-4-3.6-7.8-3.6-8.4 0-2.2-6.2-8.9-11.8-12.7-3.1-2.2-6.5-4.7-7.4-5.6-1.6-1.5-1.5-1.6 2.5-1.6 2.3 0 8.5-.2 13.7-.3 8.5-.2 9.2-.4 7-1.5-1.4-.7-2.4-2.1-2.4-3 .1-.9-.2-1.4-.8-1.1-.5.3-1.8-.6-2.9-2-1.1-1.5-2.5-2.4-3-2.1-.5.4-.9-.1-.9-.9 0-.9-.7-1.6-1.6-1.6-.9 0-1.2-.5-.8-1.2.5-.7.2-.9-.9-.5-.8.3-2.1-.1-2.7-.8-.7-.8-1.6-1.2-2.2-.9-.5.3-.6-.5-.2-2 .5-2.1.3-2.6-1.2-2.6-1.6 0-1.7-.2-.4-1.1 1.1-.8 1.2-1.2.3-1.6-.7-.2-1.3-1.8-1.3-3.4 0-2.3-.3-2.7-1.8-2.2-1.4.5-1.3.3.3-1 1.9-1.4 1.9-1.6.3-2.2-1-.4-1.8-1.1-1.8-1.7 0-.5.5-.6 1.2-.2.8.5.9.2.4-1.1-.4-1.1-.1-2.2.6-2.7 1-.6.9-1.1-.4-1.9-1-.5-1.8-1.5-1.8-2.1 0-.7.4-.7 1.3 0 1 .8 1.2.6 1.2-1.2-.1-1.2-.5-2.7-.9-3.4-.4-.7-.4-1.2.1-1.2.4 0 .1-.5-.7-1-1.1-.7-1.1-1-.2-1 .9 0 1-.5.3-1.8-.5-1-.8-2.7-.6-3.8.2-1 .4-2.5.4-3.2.1-.7.5-1.1.9-.8.5.3.9-.1.9-.9s-.4-1.2-.8-.9c-.4.2-.6-1.5-.5-3.8.2-2.4 0-5.5-.5-7-.4-1.5-.4-3 .1-3.3.4-.3.6-1.4.3-2.5-.4-1.4.1-2.2 1.8-2.8 1.5-.6 1.8-1.1 1.1-1.6-1.6-1-1.5-2.9.1-2.3.7.3 2.1-.1 3.1-.8 1.6-1.2 1.6-1.4 0-2.3-2-1.1-2.8-6.3-1.1-7.4.9-.6.9-.8 0-.8-.6 0-.9-.9-.6-2.1.4-1.3 1.1-1.8 2.1-1.4 1.2.4 1.1.1-.3-1.5-1.6-1.8-1.7-2-.2-1.4 1 .3 1.7.1 1.7-.5s-.4-1.1-.9-1.1-.7-.9-.4-2c.3-1.1.9-2 1.4-2 .5 0 .9-.7.9-1.5s.5-1.5 1-1.5c.6 0 .9-.3.8-.8-.2-.7 1.8-4.8 3.3-6.6 2.1-2.5 5.9-8.8 5.9-9.6 0-.6.5-1 1.2-1 .6 0 .9-.2.6-.5-.6-.6 6.4-7.8 11.1-11.4l3.1-2.3V0H0l.2 19.2zm161 55.8c1.9 0 2-.2.8-1-1.3-.8-1.3-1 .2-1 4.6 0 10.8 8.9 16.2 23.3 1.3 3.4 2.6 6.9 3 7.7.5 1.2-.4 1.5-4.5 1.6-3.8 0-5.5.5-6.5 1.9-3.2 4.4-.6 8.6 5.4 8.8 3.4.2 4.2.6 4.2 2.1 0 1 .5 3.6 1.2 5.8.9 3.2.8 4.8-.6 9.4-1 3-2.3 9.2-3.1 13.7-1.6 10.1-4.1 19.7-5.3 20.9-.5.5-1.6-.2-2.7-1.8l-1.8-2.8-1.7 2.2c-1.6 1.9-1.9 2-3 .7-.7-.9-2.1-1.3-3.1-1-.9.3-2 .2-2.3-.3-.7-1.1 2.8-3.7 9.8-7.2 2.8-1.4 5.2-3 5.3-3.6.2-.7-2-1.4-5.8-1.8-7.8-.9-6.6-2.6 1.9-2.9 3.4-.1 6.2-.4 6.2-.8 0-1.2-2.6-2.9-4.5-2.9-1.2 0-2.4-.3-2.7-.6-.7-.6 2.8-6.2 5.6-9 1.6-1.6 1.6-1.8.2-2.6-2.3-1.3-8.9-1.2-11.4.1-3 1.6-3.3 1.4-2.1-1.3.6-1.3 2.3-2.9 3.7-3.5 2.5-1.2 2.5-1.2 1.9-10.9-.3-5.4-.9-10.6-1.3-11.5-1.1-2.9-5.1-3.8-13-3.1-6.5.6-7.7 1.1-12.1 4.6-2.6 2.2-5.2 4.7-5.6 5.5-1.1 1.9-.2 4.3 1.7 4.3.8 0 2.7.6 4.3 1.2 1.5.7 5.7 1.3 9.3 1.3 6.1 0 6.5.1 6.8 2.4.5 3.3-2.6 14.7-4.4 16.2-1.1.9-1.4.7-1.4-1.3 0-4.9-8.8-8.7-14.2-6.1-1.3.6-3.3 1.5-4.6 1.9-2.3.9-2.3 1-.4 3 3.6 3.8 4.3 13 1.4 17-1.5 2.1-8.8 5.4-11.7 5.4-1.7 0-3.3-4-4.5-11.3-1.5-8.2-2.1-9.3-4.7-7.7-2.6 1.6-8.3.6-11.7-2.1-1.6-1.3-3.3-4.3-4.6-8.6-2.5-8.2-2.5-9.4.1-12.7 2-2.5 2.6-2.7 7.3-2.2 2.8.3 5.4.5 5.8.6.4 0 1.7 1 2.8 2.2 2 2.2 2.2 2.2 3.4.5.7-.9 1.9-1.7 2.6-1.7.7 0 1-.8.7-1.9-.2-1 0-2.7.6-3.7 1.2-2.1 1.3-2.4 2.3-6.9.6-2.7.5-2.8-.9-1.7-1.3 1.1-1.5 1-1-.9.5-1.8.3-2.1-1-1.6-1.1.4-1.7.1-1.7-.8 0-2.6-1.8-1.6-2.9 1.6-.6 1.7-1.5 2.8-2.1 2.4-.6-.4-.4-1.6.6-3.3 1.2-1.9.6-1.6-2 1.2-3.6 3.9-6.1 4.3-3.8.5.7-1.1 1-2.4.7-2.9-.3-.4-.1-1.9.4-3.2.6-1.6.5-2.7-.5-3.6-1.2-1.1-1-1.8 1.6-4.3 1.6-1.7 3-3.5 3-4s.5-.9 1.1-.9c.6 0 .9.7.5 1.5-.4 1.1.4.8 2.4-.7 1.7-1.2 3-2.6 3-3.1 0-.4.9-.7 2-.5 1 .2 2.6-.6 3.5-1.7 1.2-1.6 1.4-1.7.9-.2-.5 1.3-.2 1.6 1.5 1.4 1.1-.2 2.4-.7 2.8-1.2.5-.4.2-.5-.4-.1-.7.4-1.3.2-1.3-.3 0-.7 2.8-1 8.3-.7 7 .4 8.9.1 13.2-1.8 4.4-2.1 5.3-2.2 7.7-1 1.5.8 3.7 1.4 5 1.4zm-57.4 17.4c-.7.8-1.5 1.2-1.7 1.1-.5-.6 1-2.5 2-2.5.5 0 .4.6-.3 1.4zm78 18.9c-.2 1-.8 1.1-2.8 0l-2.4-1.2 2.4-.9c2.5-1 3.4-.3 2.8 2.1zm-19.5 29.1c.6 1.5-1.2 2.6-4.3 2.6-1.1 0-3.1 1.6-4.6 3.5-1.4 1.9-3 3.3-3.4 3-.4-.2-1.8.7-3 2-2.9 3-8 3.5-8 .7 0-4.1 2.4-7 6.2-7.6 2.1-.3 4.7-1.6 5.9-2.9 1.7-1.7 2.1-1.8 1.6-.5-.8 2.4 1.1 2.3 4.3-.2 3-2.3 4.6-2.5 5.3-.6zM112 151.2c6.1 15.6 13 26.2 15.3 23.9.8-.8 1.9-.3 3.9 1.6 2.8 2.7 3.9 6.1 1.6 4.7-.9-.6-.9-.3 0 .9 1 1.1 1.1 2.1.4 3.4-.6 1-.7 2.4-.1 3.4.6 1.3.4 1.8-1.1 2.2-2.2.6-3.7-2.2-1.8-3.4.9-.6.9-1.1-.1-2.3-1.7-2-3.5-2.1-2.8-.2.4.9-.5 1.9-2.4 2.6-1.6.7-2.6 1.6-2.3 2.1.3.5.1.9-.3.9-2 0-7.4-7-10.5-13.5-3.1-6.6-3.3-7.8-3.8-20.8-.3-7.5-.2-13.7.1-13.7.3 0 2.1 3.7 3.9 8.2zm53.5-7.3c-.6.5-2.3 1.2-4 1.6-2.9.6-2.9.6-1.1-.9 2.1-1.7 6.7-2.3 5.1-.7zM145.4 163c-2.2.9-2.9.6-2-.9.4-.6 1.4-.7 2.3-.4 1.5.6 1.4.7-.3 1.3zm18.6 10.8c0 2.9-3.7 13-6.4 17.6-3 5.1-7.6 9.6-7.7 7.5-.3-3.4.6-5.6 6.3-16 5.9-10.6 7.8-12.8 7.8-9.1zm61 2.6c0 .3-.4.8-1 1.1-.5.3-1 .1-1-.4 0-.6.5-1.1 1-1.1.6 0 1 .2 1 .4z"/><path d="M107.6 96.6c-.5 1.4-.4 1.5.9.4 1.7-1.4 1.9-2 .6-2-.5 0-1.2.7-1.5 1.6zM96.6 118.9c-1.4 1.6-1.6 2.9-1.1 6.3.8 4.2.8 4.2 1.7 1.5 1.1-3 3-3.7 2.7-1-.5 5 .1 6.3 2.7 6.3 1.4 0 3.4.5 4.6 1.1 2.3 1.3 3.7.4 2-1.3-1.5-1.5-1.6-5.8-.2-5.8.6 0 1-1.3 1-2.8 0-2.3-.7-3.2-3.5-4.5-4.7-2.2-7.8-2.1-9.9.2zM172.5 119c.3.5 1.4 1 2.3 1 1.5 0 1.5-.2.2-1-2-1.3-3.3-1.3-2.5 0zM106.6 135.7c-1.2 1.2-.5 2.3 1.4 2.3 1.1 0 2-.4 2-.9 0-1.1-2.6-2.2-3.4-1.4zM0 196.4c0 4.3.4 6.5 1 6.1.9-.6.4-11.4-.6-12.4-.2-.2-.4 2.6-.4 6.3zM30.8 207.7c.7.3 1.6.2 1.9-.1.4-.3-.2-.6-1.3-.5-1.1 0-1.4.3-.6.6zM33.2 209.5c-.6.8-1.9 1.2-2.7.9-1.6-.7-1.9.4-.7 2.4.6.9 1.6.4 3.7-1.8 1.6-1.6 2.5-3 1.9-3-.5.1-1.5.7-2.2 1.5z"/></svg>