<svg width="512" height="512" viewBox="0 0 512 512" fill="none" xmlns="http://www.w3.org/2000/svg">
<g clip-path="url(#clip0_1_3)">
<rect width="512" height="512" rx="65" fill="white"/>
<path d="M56 1.00001C31.6 4.30001 11.1 20.9 3.29999 43.9C0.499992 52.2 0.199992 59 2.79999 59.1C3.69999 59.1 5.19999 59.3 5.99999 59.4C15 61.2 64.4 62.1 83 61C89.9 60.5 100.5 59.9 106.6 59.5C125.7 58.5 131.8 57.5 141.2 54.2C144.3 53.1 147.1 52.5 147.4 52.8C147.7 53.1 148 52.8 148 52.2C148 51.5 148.3 51.1 148.8 51.2C150.3 51.6 158.6 48.5 161.2 46.6C164 44.6 164.1 42.6 161.5 43.7C160.7 44 160 43.7 160 43C160 42.4 159.6 42.1 159.1 42.4C158.6 42.7 158 42.3 157.6 41.5C157.3 40.7 156.4 40 155.7 40C154.9 40 153.7 39.3 153 38.5C152.3 37.7 150.9 37 149.9 37C148.8 37 148 36.3 148 35.5C148 34.6 147.4 34.3 146.5 34.6C145.5 35 145 34.6 144.9 33.4C144.9 32.3 144.6 32 144.3 32.7C143.9 33.7 143.4 33.7 141.7 32.7C139.4 31.4 138.8 31.3 135.2 31.1C133.9 31.1 133.2 30.5 133.5 30C133.8 29.4 133.6 29 133 29C132.4 29 132.2 28.5 132.6 27.9C133 27.1 132.6 27.1 131.1 27.9C129.4 28.8 129 28.8 129 27.6C129 26.9 128.3 25.9 127.4 25.6C125 24.7 124.3 24.9 126 26C126.8 26.5 127 27 126.4 27C125.9 27 124.5 26.3 123.4 25.5C121.2 23.9 119.6 23.5 120.5 24.9C120.8 25.4 120.6 26.1 120.1 26.4C119.6 26.8 119 26.1 118.8 25C118.6 23.8 118.2 22.9 117.8 22.9C117.4 22.9 115.8 22.3 114.3 21.5C112.2 20.4 111.4 20.3 110.8 21.3C110.2 22.2 110 22.2 110 21.2C110 20.6 109.3 20 108.5 20C107.7 20 107 19.3 107 18.4C107 17 106.7 17 105.5 18C104.1 19.1 103.6 18.7 103.9 16.7C103.9 16.3 103 16 101.8 16C99.9 16 99.8 15.8 101 15C102 14.3 102.1 14 101.3 13.9C99.1 13.6 98.6 13.5 96.1 12.1C94 10.9 93.8 10.9 94.3 12.5C94.8 13.6 94.6 14 93.8 13.7C93.1 13.5 92.6 12.5 92.8 11.5C93 10.5 92.7 10.1 92.1 10.5C90.6 11.4 90.7 9.70001 92.3 8.10001C93.3 7.00001 93.1 7.00001 91.2 8.00001C89.8 8.70001 89.1 9.70001 89.4 10.6C89.7 11.4 89.3 12 88.6 12C87.8 12 87.3 11.2 87.4 10.2C87.5 9.10001 86.8 8.50001 85.5 8.50001C82.4 8.50001 80.7 7.10001 81.9 5.60001C82.5 4.90001 82.7 4.00001 82.3 3.70001C81.2 2.50001 80 2.90001 80 4.50001C80 5.30001 79.1 6.00001 78 6.00001C75.3 6.00001 75.5 3.40001 78.3 2.60001C80.1 2.10001 80.2 1.80001 79 1.10001C78.1 0.40001 77.3 0.50001 76.9 1.20001C76.5 1.90001 76 1.90001 75.6 1.10001C74.8 -0.0999902 64.8 -0.19999 56 1.00001ZM75 2.00001C75 2.50001 74.3 2.70001 73.5 2.40001C72.7 2.00001 72 1.60001 72 1.40001C72 1.20001 72.7 1.00001 73.5 1.00001C74.3 1.00001 75 1.40001 75 2.00001Z" fill="black"/>
<path d="M83 5.50003C82 6.80003 82.1 7.00003 83.9 7.00003C85 7.00003 86 6.60003 86 6.10003C86 4.30003 84.2 4.00003 83 5.50003Z" fill="black"/>
<path d="M249.5 41.7C244 42.9 240 47.1 240 51.9C240 54.1 238.9 54.5 231.5 55.5C228.8 55.9 225.6 56.8 224.4 57.5C223.2 58.2 220.5 59.2 218.4 59.6C216.3 60 212.7 61.2 210.5 62.3C207.7 63.7 204.9 64.2 200.9 64.1C196.2 63.9 194.8 64.3 192.4 66.3C190.8 67.6 188.6 69 187.5 69.4C184.8 70.3 180.5 74.1 179.7 76.4C179 78 179.2 78.1 180.6 77C181.8 75.9 182.3 75.9 182.9 76.8C183.4 77.7 184.1 77.2 185 75.5C185.7 74.1 187.2 73 188.2 73C189.9 73 189.9 73.2 188.4 75.5C187.5 76.8 185.8 78.2 184.7 78.5C180.9 79.6 178 81.3 178.6 82.1C178.9 82.6 178.2 84.2 177.1 85.7C176 87.3 174.2 91.5 173 95.1C171.5 100 170.3 102 168.5 102.8C164.9 104.5 161 111.2 161 116C161 118.2 160.7 120 160.2 120C158.2 120 155.9 126.9 155.9 133.2C155.8 137.6 155.4 140 154.6 140.3C152.4 141.2 147 150.2 147 153.1C147 154.6 147.4 157 148 158.4C148.7 160.4 148.5 162.1 146.9 165.7C145.4 169.3 145 171.6 145.5 175C146 178.6 145.8 179.9 144.6 180.9C142.8 182.4 142.5 185.6 144 186.5C145.8 187.6 145.1 196.3 143 199C141.9 200.4 141 202.3 141 203.2C141 204.2 140.2 205 139.3 205.1C138.3 205.1 136.7 205.3 135.8 205.5C134.8 205.7 134 205.4 134 204.9C134 204.4 133.3 204 132.4 204C131.5 204 131.2 204.5 131.6 205.2C132.1 206.2 132 206.2 131 205.3C130.3 204.7 129.1 204.4 128.4 204.7C127.6 205 127 204.6 127 203.9C126.9 203 126.4 203.1 125.5 204.4C124.3 206 123.6 206.1 121.8 205.3C120.5 204.8 118.3 204.7 116.7 205.1C115.1 205.5 114 205.4 114 204.8C114 204.2 112.9 204.1 111.4 204.4C109.5 204.9 109 204.8 109.6 203.8C110 203.2 108.8 203.7 107 205C105.2 206.3 104 206.9 104.4 206.2C104.8 205.5 104.5 205 103.5 205C102.6 205 102.2 205.4 102.5 206C103.6 207.8 102.1 207.1 99.9 204.7C98.2 203 97.8 202.9 98.3 204.2C98.7 205.4 98.4 206 97.5 206C96.7 206 96 205.7 96 205.2C96 204.8 94.2 204.5 92 204.4C89.9 204.4 88.3 204.7 88.6 205.2C89.5 206.6 88.2 206.1 86.5 204.4C85.3 203.2 84.6 203.1 83.6 203.9C82.6 204.8 82.1 204.7 81.7 203.6C81.3 202.7 80.2 202.3 79 202.5C77.9 202.7 77 202.5 77 201.9C77 201.4 76.5 201 76 201C75.3 201 75.3 201.6 76 202.9C77 204.9 75.8 205.3 73.3 203.7C72.6 203.2 72 203.2 71.9 203.7C71.9 204.1 71.5 203.5 71 202.2L70 200L67.8 202.2C65.7 204.3 65.6 204.3 64.9 202.4C64.5 201.4 64.1 201 64.1 201.6C64 202.3 63.3 203 62.5 203.4C61.7 203.7 61.1 203.6 61.1 203.2C61.4 201.2 60.9 200.7 60 202C59.1 203.3 58.8 203.3 57.7 201.8C56.7 200.6 56 200.4 54.6 201.2C53.6 201.8 53 201.9 53.3 201.4C53.6 200.9 52.5 200.5 50.9 200.4C49.4 200.3 48.3 200.7 48.6 201.1C48.9 201.6 48.6 202 48.1 202C47.5 202 47 201.5 47 201C47 200.4 46.3 200 45.4 200C44.5 200 44.1 200.5 44.5 201.2C44.9 201.9 44.6 201.8 43.8 201C42.3 199.2 40.3 198.9 29.3 198.8C23.5 198.8 21.2 198.4 21.7 197.6C22.1 197 21.7 197.1 20.8 197.8C19.5 198.8 19.1 198.8 18.7 197.8C18.3 196.8 18.1 196.8 18.1 197.7C18 198.4 17.6 199 17 199C16.5 199 16.2 198.4 16.4 197.7C16.5 197.1 16.5 196.8 16.3 197.2C16 197.7 15 198 13.9 198C12.9 198 12 198.6 12 199.2C12 200.1 11.6 200 11 199C10.4 198.1 10 197.9 10 198.7C10 199.4 9.4 199.7 8.7 199.5C8.1 199.3 6.3 198.9 4.9 198.6C2.7 198.2 2.3 198.5 2.7 200.1C3 201.2 2.7 202 2.1 202C1.4 202 1.2 201.5 1.6 200.8C2 200.1 1.9 200 1.2 200.4C-0.600003 201.5 -0.500003 255.4 1.3 256.7C1.9 257.2 6.1 258.7 10.5 260C14.9 261.3 19.2 262.7 20 263.1C20.8 263.6 24 264.6 27 265.4C30 266.2 35 267.6 38 268.5C41 269.4 45.3 270.5 47.5 271C49.7 271.5 55.6 273 60.5 274.5C65.5 275.9 70.6 277.3 72 277.5C75.5 277.9 79.4 278.9 87 281.1C90.6 282.1 95.3 283.2 97.5 283.6C99.7 283.9 103.5 284.6 106 285.1C112.1 286.4 114.1 286.7 124.5 287.9C129.5 288.5 135.6 289.5 138.1 290.1C140.7 290.7 146.8 291.3 151.6 291.5C165.9 292.2 176.8 293.6 178.2 295.1C183.2 300.1 188 313.8 188.2 323C188.2 323.8 188.9 327.6 189.6 331.3C191.6 341.3 191.5 343.8 188.8 344.2C185.9 344.6 182.4 349.8 181.6 354.8L181 358.7L175.8 358.4C166.7 357.8 142.9 354.9 136 353.5C132.6 352.8 123.3 351.8 118.8 351.7C116.7 351.6 115 351.1 115 350.7C115 350.2 114.4 350 113.8 350.3C113.1 350.5 108.7 350.1 104.1 349.4C99.4 348.7 95.4 348.3 95.2 348.5C94.9 348.8 94.2 348.6 93.5 348C92.6 347.2 80.1 345.8 74.8 345.9C73.8 345.9 73 345.6 73 345.2C73 344.8 71.8 344.4 70.3 344.4C65.6 344.1 52.7 342.2 39.5 339.8C36.2 339.3 31.5 338.7 29 338.6C26.5 338.6 23.5 338.1 22.2 337.7C20.7 337.1 19.4 337.3 18.5 338C17.7 338.7 17 338.8 17 338.3C17 337.8 15.8 337.3 14.2 337.2C12 337.1 11.8 337.2 13 338.1C14.2 339 14.1 339 12.5 338.5C11.4 338.1 9.6 337.6 8.5 337.5C7.4 337.3 6.5 337.1 6.5 337C6.5 336.9 5 336.8 3.2 336.7L-2.57342e-06 336.5V395.2C-2.57342e-06 461.5 0.0999977 462.5 7.2 477C15.3 493.3 32.6 506.8 50.5 510.5C61.1 512.7 451 512.7 461.4 510.5C482.9 505.9 501.9 488.7 509.3 467C511.4 460.7 511.5 459.1 511.8 407.5L512.1 354.4L509.7 354.5C508.5 354.6 506.9 355 506.2 355.4C505.5 355.8 504.6 355.8 504 355.5C503.5 355.2 503 355.3 503 355.7C503 356.2 502.2 356.6 501.3 356.6C500.3 356.7 498.2 357.1 496.6 357.5C494.4 358.1 493.9 358 494.5 357C495.1 356.1 494.8 356 493.4 356.8C492.3 357.4 491.3 357.8 491 357.8C490.5 357.7 483.4 358.6 477 359.5C473.3 360 465.8 361.2 463.5 361.6C457.5 362.8 448 363.2 425.8 363.3C412.1 363.4 401 363.7 401 364C401 364.3 395.7 364.6 389.2 364.7C382.8 364.7 375.5 365.1 373 365.4C370.5 365.8 366.7 366.3 364.5 366.6C362.3 366.9 356.1 367.3 350.8 367.4C342.8 367.7 341.2 367.5 341.7 366.4C342.4 364.5 344.9 364 355 363.7C364.3 363.4 367.5 362.2 374.8 356.2C380.2 351.8 381.8 348.8 382.6 341.3C383 338.1 384.8 331.5 386.7 326.6C388.6 321.7 390.8 314.3 391.6 310.1C392.9 303.3 394 300 394 302.7C394 303.8 396.6 303.5 400 302.2C401.5 301.7 403.8 301.3 409.6 300.7C411.3 300.5 413.1 300.1 413.6 299.8C414.6 299.2 428.5 296.1 433.2 295.5C435.6 295.2 444 293.7 449.5 292.6C450.6 292.4 456 291.9 461.5 291.5C467 291.1 472.6 290.6 474 290.4C475.4 290.2 479.4 289.5 483 289C486.6 288.4 492.9 287.3 497 286.4C504.4 285 508.3 284.3 510.8 284.1C511.7 284 512 277.6 512 255.6C512 239.9 511.6 226.9 511.1 226.6C510.6 226.3 509.7 226.7 509 227.5C507.9 228.8 508 228.9 509.6 228.4C511.1 227.9 511.2 228 510.1 228.8C509.1 229.5 508 229.5 506.6 228.7C504.2 227.4 501.8 227.7 500.8 229.3C500.2 230.2 499.8 230.2 499.3 229.4C498.1 227.7 492.4 228.2 492.8 229.9C493.1 231.1 492.9 231.1 491.4 229.9C489.3 228.2 483.3 228.1 479.6 229.8C478.1 230.6 477.1 230.7 477.4 230.2C477.7 229.6 477.3 229 476.5 228.6C475.7 228.3 475 228.6 475 229.2C475 229.9 474.5 229.8 473.5 229C472.4 228.1 472 228.1 472 228.9C472 229.7 471.1 229.6 469.1 228.5C466.9 227.4 465.4 227.3 463.5 228C461.6 228.7 461.1 228.7 461.6 227.8C462.1 227 461.3 226.9 458.7 227.3C454.3 228 450.8 227.2 451.7 225.6C452.1 225 451.7 225.1 450.8 225.8C449.7 226.7 449 226.8 448.5 226C448.2 225.5 447.2 225 446.4 225C445.5 225 445.2 225.5 445.6 226.1C446.1 226.9 445.7 226.9 444.2 226.1C443.1 225.5 442 224.7 441.8 224.3C441.5 223.8 441.5 224 441.6 224.7C441.9 226 439.5 225.4 437.1 223.6C435.9 222.7 435.8 222.8 436.5 224C437.2 225.2 437.1 225.3 435.8 224.3C435 223.6 434.1 223.2 433.8 223.5C432.9 224.5 425.1 224.6 425.7 223.6C426.1 223.1 425.6 222.9 424.7 223.3C423.7 223.7 423 223.5 423 222.8C423 222.1 422.6 222.1 421.6 222.9C420.6 223.7 420 223.8 419.5 223C419.2 222.5 417.2 222 415.1 222C413 222 411 221.7 410.6 221.3C410.3 220.9 409 220.5 407.8 220.3C404.7 219.8 404.7 219.8 407 214.6C410.3 206.8 409.4 195.5 405 190.5C400.7 185.7 396.6 177.1 392.4 164.8C389.1 155.1 386.1 148.6 381.2 140.5C375.9 131.8 374.4 128.4 373.9 124C373.5 120.4 372.2 116.8 370.1 113.6C366.6 108 366.3 105.8 368.5 100.7C369.8 97.6 369.8 97.1 368.4 95.9C365.4 93.4 362.1 84.4 362.7 80.2C363.2 76.5 363 76.1 358.6 72.4C356.1 70.3 354 68 354 67.3C354 64.6 351.6 61.1 348.9 59.9C347.3 59.3 346 58.1 346 57.4C346 56.6 345.6 56 345 56C344.5 56 344 56.4 344 57C344 57.5 343.6 58 343.1 58C342.6 58 342.2 57.4 342.3 56.7C342.4 52.5 341.8 50.9 339.8 50.1C336.5 48.9 333.5 50.6 332 54.6C331.2 56.5 330 58 329.3 58C328.6 58 328.1 58.6 328.2 59.2C328.4 60 327.4 60.5 325.6 60.5C323.2 60.5 322.3 59.7 319.8 55C316.1 48.1 312.8 45.5 313.7 50.4C314.1 52.4 313.7 52.8 311 53.2C309.3 53.5 307.7 53.3 307.4 52.8C307.1 52.4 307.6 52 308.4 52C309.3 52 310 51.5 310 51C310 49.8 300.3 49.6 299.6 50.8C299.3 51.3 297.3 51.6 295 51.6C292.4 51.5 291 51.9 291 52.7C291 54.3 290.6 54.3 285.5 52.9C283.2 52.3 280.1 50.4 278.3 48.4C275.4 45.3 272 43.6 273.5 46C274.2 47.2 270.5 51 268.5 51C267.7 51 266 49.5 264.8 47.6C263.3 45.4 261.1 43.7 258 42.6C253.4 41 253 40.9 249.5 41.7ZM257.5 49C257.8 49.5 257.4 50 256.6 50C255.8 50 254.8 49.5 254.5 49C254.2 48.4 254.6 48 255.4 48C256.2 48 257.2 48.4 257.5 49ZM251.3 50.6C252 51.3 249.9 55 248.7 55C248.3 55 248.4 54.2 248.9 53.1C249.5 52.1 249.6 51 249.3 50.6C249 50.3 249.1 50 249.7 50C250.2 50 250.9 50.3 251.3 50.6ZM250.8 62.5C250.2 63.9 249.5 64.8 249.2 64.6C248.5 63.9 250.1 60 251 60C251.5 60 251.4 61.1 250.8 62.5ZM230 76C229.2 76.5 228.1 77 227.5 77C227 77 227.2 76.5 228 76C228.8 75.5 230 75 230.5 75C231.1 75 230.8 75.5 230 76ZM185.8 89.5C185.8 91.4 185.4 93.2 185 93.5C184.2 94 183 88 183.7 86.7C184.7 84.9 185.8 86.3 185.8 89.5ZM170.7 105.1C170.6 106.3 169.1 108.2 167.3 109.4C165.5 110.5 163.9 112.2 163.6 113C163.4 113.8 163.2 113.4 163.1 112.1C163 110.7 164.3 108.5 166.4 106.4C170.4 102.4 170.9 102.3 170.7 105.1ZM254.4 107.2C253.8 109.3 253.9 109.4 255.6 108C257.4 106.6 257.4 106.6 255.6 108.8C252.9 111.9 251.9 111.6 253.1 108C254.4 104.5 255.5 103.9 254.4 107.2ZM300 109C300 109.5 299.5 110 298.9 110C298.4 110 298.2 109.5 298.5 109C298.8 108.4 299.3 108 299.6 108C299.8 108 300 108.4 300 109ZM168.4 112.5C168 113.3 167.6 114 167.4 114C167.2 114 167 113.3 167 112.5C167 111.7 167.4 111 168 111C168.5 111 168.7 111.7 168.4 112.5ZM228 113C228 113.5 227.2 114 226.3 114C224.8 114 224.7 113.8 226 113C227.9 111.8 228 111.8 228 113ZM312.8 132.2C314 132.1 315 132.5 315 133C315 133.5 315.7 133.6 316.7 133.3C317.8 132.9 318.1 133 317.6 133.8C317.2 134.6 317.6 135 318.8 135C319.8 135 323.2 136.3 326.3 137.9C329.4 139.5 332 140.6 332 140.4C332 140.1 332.6 140.5 333.4 141.2C334.2 141.9 334.6 142.8 334.3 143.3C334.1 143.7 334.2 144 334.7 143.9C335.1 143.8 335.8 143.9 336.3 144C336.7 144.1 337.6 144.3 338.3 144.4C338.9 144.5 339.4 145.1 339.3 145.8C339.1 146.5 340.1 146.8 342 146.6C343.6 146.4 344.7 146.7 344.4 147.1C344.1 147.6 344.4 148 345 148C345.7 148 346 148.6 345.7 149.2C345.5 149.9 346 151.1 346.9 151.8C348.3 153 348.3 153.1 346.7 152.6C345.2 152.1 345.1 152.4 346 154C346.6 155.1 347.5 155.9 348.1 155.7C348.7 155.6 349.4 156.4 349.6 157.5C349.7 158.6 350.4 159.6 350.9 159.8C352.1 160.2 351.3 164.7 349.8 166.7C348.8 167.9 345.3 167.8 339.6 166.4C337.3 165.9 336.9 166 337.5 167.1C338 167.9 337.2 167.5 335.9 166.3C333.6 164.3 333.2 164.2 331.3 165.5C330.2 166.3 329 166.6 328.6 166.3C327.6 165.3 322.9 165.1 323.5 166.1C323.9 166.6 322.7 166.8 320.9 166.6C317.8 166.3 315.4 167.4 306.7 172.8C303.4 175 301.2 177.1 304.3 175.4C304.9 175 304.6 175.6 303.6 176.8C301.9 178.7 301.9 179 303.3 179C304.3 179 305 179.4 305 180C305 180.5 305.7 180.7 306.6 180.3C308 179.8 308.1 180 307.1 181.8C306.3 183.3 306.3 184 307 184C307.5 184 308 183.6 308 183.1C308 182 313.3 180.9 314 181.9C314.3 182.2 315.5 183 316.7 183.5C318.8 184.4 318.8 184.6 317.2 186.5C316.3 187.6 311.5 190 306.5 191.9C295.7 196 293 197.6 293 200.1C293 203.7 297.4 204.2 303.8 201.4C308.9 199.1 309.9 199 313.3 200.1C315.4 200.8 317.3 201.6 317.5 202C318.3 203.2 316.8 207 315.5 207C313.5 207 313 210.9 314.8 212.7C316.8 214.6 316.7 215 314.6 216.2C313.7 216.7 313 217.6 313 218.2C313 218.8 313.7 218.7 314.7 217.9C316.2 216.7 316.3 216.7 315.5 218C314.9 218.8 314.5 219.8 314.4 220.2C314.3 220.7 314.2 221.3 314.1 221.7C314 222.2 313.5 221.8 313 221C312.2 219.7 312 219.7 312 221.1C312 222 312.6 223 313.4 223.3C314.3 223.7 314.6 224.7 314.3 226C313.9 227.5 314.1 227.9 315.3 227.4C317.6 226.6 316.3 230.8 313.9 232.1C312.3 232.9 308 239.8 308 241.5C308 241.8 308.8 242.1 309.8 242.1C311.1 242.2 311.1 242.3 310 242.7C307.7 243.3 304.9 247.7 305.6 249.4C306.7 252.3 308.7 250.9 308.1 247.6C308 247.1 308.8 247 309.9 247.3C311.4 247.6 312.1 247.2 312.7 245.6C313.1 244.5 313.3 243.2 313.2 242.7C312.8 241.2 314 242.1 315 244C315.8 245.6 315.8 246.8 314.6 249C313.1 252.2 313.9 253 316.1 250.4C317.2 249 317.5 249.2 318.8 251.5C319.8 253.4 320.7 254 322.1 253.7C323.2 253.4 324 253.7 324 254.3C324 255 324.5 254.8 325 254C325.7 252.9 326 252.8 326 253.8C326 254.5 326.7 255.8 327.5 256.6C328.3 257.5 329 257.7 329 257.1C329 256.5 329.8 256 330.7 256C331.6 256 332.1 256.3 331.7 256.6C331.4 256.9 331.9 258 332.8 259C334.3 260.8 334.4 260.8 337.4 258.5L340.4 256.1L342.2 258.2C343.6 259.9 345.4 260.3 353.3 260.6C362.3 261 362.7 260.9 364.8 258.5C366.1 257 368.1 256 369.6 256C372.2 256 372.2 256.1 370.7 257.8C369.7 258.8 369.3 260 369.6 260.3C370 260.7 369.8 261.5 369.2 262.3C368.6 263 368.3 264.6 368.7 265.8C369 267.1 368.8 268 368.1 268C367.5 268 367 267.5 367 267C367 265.5 363.2 265.8 362.7 267.2C362.5 267.9 361.6 267 360.6 265.2C359.1 262.3 355 260.6 355 262.9C355 263.4 353.8 264.1 352.4 264.4C350.9 264.8 350 265.4 350.4 265.7C351.4 266.7 348.9 269 346.8 269C345.7 269 344.2 270.3 343.2 272C342.3 273.6 341.2 275 340.8 275C340.3 275 340 275.7 340 276.5C340 277.4 339 279.1 337.8 280.4C333.8 284.5 331 288 331 289C331 289.5 330 290.6 328.8 291.4C326.8 292.8 327 293.4 329.2 293.1C329.5 293.1 329.7 293.8 329.5 294.8C329.4 295.7 328.7 296.4 328.2 296.3C327.5 296.1 327.3 296.7 327.7 297.6C328.2 299 328 299.1 325.9 298L323.5 296.7L325.5 298.7C327.7 301 329 300.8 329 298.2C329 296.9 329.2 296.8 329.9 297.8C330.5 298.9 330.8 298.7 331.2 297.2C331.5 296.1 332.9 295.1 334.3 294.8C335.8 294.5 336.7 294.7 336.4 295.1C336.1 295.6 336.4 296 337 296C338.6 296 332.4 301.1 330.3 301.5C329.3 301.7 327.7 301.9 326.7 301.9C325.7 302 325.1 302.4 325.5 302.9C325.8 303.4 325.6 304.1 325 304.5C324.5 304.8 324 306 324 307.1C324 308.2 323.3 309.3 322.5 309.6C321.4 310.1 321.2 310.6 322 311.5C322.5 312.1 322.7 313 322.3 313.3C322 313.7 322.2 314 322.9 314C323.6 314 324 313.3 323.7 312.5C323.3 311.7 323.5 310.8 324 310.5C324.6 310.1 325 310.5 325 311.3C325 312.3 325.8 312.6 327.5 312.2C329.1 311.9 330 312.2 330 313C330 313.9 330.4 313.9 331.7 312.9C333.1 311.7 333.4 311.7 333.8 312.9C334.1 313.9 334.4 313.9 335 313C335.6 312.1 336.3 312.1 337.9 312.9C339.5 313.8 340 313.8 340 312.9C340 312.2 341.1 312.7 342.5 314C343.9 315.3 345 316.9 345 317.6C345 318.2 345.7 319.1 346.6 319.4C347.4 319.7 347.9 319.6 347.6 319.1C347.2 318.6 347.9 318.4 349 318.7C350.1 319 351 319.9 351 320.7C351 321.5 351.4 321.9 351.9 321.6C353.3 320.7 353.8 324.5 352.5 326.3C351.1 328.3 348.9 328.6 349.4 326.7C349.5 326.1 349.5 325.8 349.3 326.2C349 326.7 348.2 327 347.5 327C346.8 327 345.9 327.7 345.6 328.6C345.1 330 345.2 330.1 346.5 329C347.9 327.8 348.3 328.1 347.8 329.7C347.4 330.9 344 331.1 344 330C344 329.4 343.4 329 342.6 329C341.5 329 341.3 329.7 342 332C342.6 333.9 342.5 335.2 341.8 335.6C341.2 336 341 335.8 341.3 335.3C341.7 334.7 341.4 334 340.6 333.7C339.6 333.3 339.4 333.7 339.7 335.1C340 336.1 339.8 337 339.2 337C338.6 337 337.4 337.3 336.4 337.7C335.2 338.1 334.9 338 335.4 337.2C335.8 336.5 335.5 336 334.6 336C333.7 336 333 336.5 333 337.1C333 337.7 332.3 337.4 331.4 336.6C329.7 334.8 326.5 334.4 327.5 336C328.4 337.5 325.1 338.5 323.7 337.1C323.1 336.5 321.8 336 320.8 336C319.6 336 319.3 335.5 319.7 334.3C320.2 333.1 319.8 333.2 318.2 334.8C315.9 337.1 313 337.7 313 336C313 335.4 312.1 335 311 335C309.9 335 309 335.5 309 336.1C309 336.8 308.2 336.7 306.8 335.8C305.5 335 303.5 334.4 302.3 334.5C301.1 334.6 300.2 334.2 300.3 333.6C300.4 333 299.4 332.4 298 332.3C296.6 332.2 296.1 332.3 296.8 332.6C298.7 333.5 298.2 335 296 335C294.9 335 294 334.5 294 333.9C294 333.4 293.6 333.2 293 333.5C292.5 333.8 292 333.6 292 333C292 332.4 291.6 332.1 291.1 332.5C290.6 332.8 289.8 332.6 289.5 332C289.1 331.4 288 331.2 286.9 331.5C285.7 331.9 285 331.7 285 330.9C285 329.9 284.7 329.9 283.9 330.7C282.5 332.1 279.7 331.2 280.7 329.7C281.1 329 280.3 328.9 278.2 329.3C276.1 329.7 274.6 329.5 273.7 328.5C272.9 327.7 272 327.3 271.7 327.6C271.4 327.9 270.1 327.6 268.8 326.9C267.6 326.2 265.7 325.7 264.8 325.9C263.6 326 263 325.5 262.9 324.3C262.9 323.3 262.6 323 262.3 323.7C262.1 324.4 260.2 325.2 258.2 325.5C256.2 325.9 253.8 326.4 253 326.7C252.2 327.1 251.3 327.4 251 327.5C244.7 329.4 242.7 329.7 241 329.3C238.3 328.6 238.5 329.4 242.3 334.8C246.5 340.8 247.6 342 249.2 342C249.9 342 251.6 342.6 253 343.3C254.4 344 256.8 344.7 258.3 344.8C259.9 344.9 262.1 345.7 263.3 346.5C265.4 347.9 265.4 348 263.5 348C261.5 348.1 261.5 348.1 263.4 349.5C265 350.7 265.6 350.7 266.2 349.7C266.8 348.8 267 348.8 267 349.8C267 350.7 267.7 350.9 269 350.5C270.5 350 271 350.3 271 351.5C271 352.8 271.6 353.1 273.1 352.7C274.3 352.4 276.2 352.5 277.4 353C278.6 353.4 281.6 353.4 284.1 352.9C287.9 352.2 288.7 352.4 290.3 354.2C291.2 355.3 292 355.8 292 355.4C292 354.9 292.9 356 294 357.7C295.1 359.5 296.5 361.1 297.2 361.1C297.9 361.2 299.2 361.3 300 361.4C300.8 361.4 301.5 362.4 301.5 363.5C301.5 364.6 302.2 365.8 303 366.2C304 366.6 303.5 367.1 301.3 367.5C299.5 367.9 298 368.6 298 369C298 370.2 294.3 374 293.1 374C292.4 374 292.1 374.4 292.4 374.9C292.8 375.4 291.8 376.9 290.3 378.2C288.2 379.9 287.5 381.5 287.3 384.5C287.1 390.1 286.7 391.3 284.3 393.9C283.1 395.2 282.4 396.9 282.7 397.7C283.2 398.8 282.8 399.1 281.4 398.7C280.4 398.4 278.2 397.8 276.5 397.4C271.7 396.2 254.3 388.3 245.9 383.5C241.6 381 237.8 379 237.5 379C237.2 379 234.8 377.5 232.1 375.7C229.4 374 223.2 370 218.4 367C207 359.9 198.2 352.8 195.7 348.8C194 346 193.8 344.3 194.2 336.2C194.5 331 195.2 326.5 195.7 326.1C196.2 325.8 196.7 318.7 196.8 310.5C196.9 293.9 196.8 293.4 189.6 277.5C187.1 272 185 267 185 266.3C185 265.6 183.4 263.9 181.5 262.5C175.6 257.9 171.7 250.4 167.7 236C164.4 224.2 164.5 222 168.4 215.2C173.6 206.4 177.8 203.5 185.2 203.5C190.2 203.5 191.3 203.9 193.5 206.3C197.7 210.7 200.9 212.5 202.3 211.1C203.2 210.2 203.1 209.7 202 209C201 208.3 202.1 208.2 205.3 208.5C210.5 209.1 213.3 207.9 212.3 205.4C212 204.7 211.4 204.3 210.9 204.6C210.4 204.9 210 204.2 210 203C210 201.8 210.3 201.1 210.8 201.3C211.2 201.6 212.1 201.2 212.7 200.4C213.5 199.7 213.6 198.9 213 198.5C211.6 197.7 212.9 195.3 215 194.7C216 194.5 217.4 194.6 218.1 195.1C219.1 195.7 219.2 196 218.3 196C216.5 196 216.7 199.6 218.7 204.8C219.7 207.4 220.6 208.7 221 207.9C222 206.4 224 207.6 224 209.8C224.1 212 228 216.8 230 217C233.8 217.6 235.1 217 234.5 215.1C234.1 213.7 234.4 213.2 235.7 213.4C236.9 213.4 238.2 212 239.6 209.3C240.8 207 242.1 205.4 242.6 205.8C243.1 206.2 242.9 205.8 242.3 205C241.6 204.2 241 202.1 241 200.2C241 198 240.6 197.1 239.8 197.6C239.1 198 239 197.9 239.4 197.1C240 196.3 240.6 196.2 241.4 196.9C242.9 198.1 244.3 197.2 243.3 195.7C242.2 194 241.9 186.8 242.9 187.5C243.5 187.8 243.7 187.1 243.5 186C243.3 184.9 243.5 184 243.9 184C244.4 184 245 182.8 245.3 181.3C245.7 179.3 245.2 178 243.5 176.4C241.9 174.9 240.9 174.6 240.5 175.3C240.2 176 240.3 174.8 240.6 172.6C241.3 167.9 243 164.9 244.9 165.3C245.7 165.4 246.4 164.4 246.6 162.7C246.9 160 246.8 159.9 244.7 161.3C242.8 162.5 242.3 162.5 241.2 161.4C240 160 240.6 159.5 243.1 159.8C243.5 159.9 244.8 158.8 246 157.5C248.3 155 250.7 154 249.5 156C249.1 156.7 249.8 156.7 251.4 156C256.6 154.1 260.1 151.9 259.9 150.7C259.4 146.4 260.1 145.4 264.8 144C270.5 142.4 274.7 139.4 276.6 135.7C278.3 132.5 280 132.2 281.8 135.1C283 137 283.7 137.1 292.3 136.6C300.7 136 301.7 135.7 303.4 133.4C304.9 131.3 305.8 131 307.9 131.6C309.3 132 311.5 132.2 312.8 132.2ZM243.5 157C243.8 157.5 243.6 158 243.1 158C242.5 158 242 157.5 242 157C242 156.4 242.2 156 242.4 156C242.7 156 243.2 156.4 243.5 157ZM231.3 161.1C230.9 162.4 230.4 162.8 229.8 162.2C228.7 161.1 229.5 159 231 159C231.4 159 231.6 159.9 231.3 161.1ZM225 171C225 171.5 224.8 172 224.6 172C224.3 172 223.8 171.5 223.5 171C223.2 170.4 223.4 170 223.9 170C224.5 170 225 170.4 225 171ZM222.7 180.2C222.4 181 222.1 180.7 222.1 179.6C222 178.5 222.3 177.9 222.6 178.3C222.9 178.6 223 179.5 222.7 180.2ZM239.7 181.6C239.4 181.9 238.5 182 237.8 181.7C237 181.4 237.3 181.1 238.4 181.1C239.5 181 240.1 181.3 239.7 181.6ZM228 184.2C228 185.8 227.7 186.1 226.9 185.3C226.3 184.7 226.1 183.7 226.4 183.1C227.5 181.4 228 181.8 228 184.2ZM202 189.5C202 190.3 201.3 191 200.5 191C199.2 191 199.1 190.7 200.2 189.5C201.8 187.7 202 187.7 202 189.5ZM223.8 189.4C222.8 190.1 222.2 191 222.5 191.4C222.8 191.7 222.5 191.6 221.9 191.1C220.4 189.9 221.6 188 223.8 188C225.4 188.1 225.4 188.2 223.8 189.4ZM237.7 191.2C237.4 192 237.1 191.7 237.1 190.6C237 189.5 237.3 188.9 237.6 189.3C237.9 189.6 238 190.5 237.7 191.2ZM228.7 195.2C228.4 196 228.1 195.7 228.1 194.6C228 193.5 228.3 192.9 228.6 193.3C228.9 193.6 229 194.5 228.7 195.2ZM374.4 198.2C375.1 200 376.1 202.4 376.5 203.5C377 204.6 377.3 205.8 377.2 206.2C377.1 206.6 378.4 210 380 213.9C381.7 217.7 383 221.6 383 222.4C383 223.2 383.4 224 383.9 224.2C384.4 224.3 384.9 226.1 385.1 228C385.3 229.9 386.1 232.6 387 234C388.9 237 389.7 247.6 388 246.5C386.1 245.3 383 249.6 383 253.3C383 258 380.8 259.7 377.2 257.9L374.5 256.6L377.2 256.2C380.5 255.8 382.1 254 381.4 251.4C380.1 246.4 368.2 245.8 360.9 250.4C357 252.9 356.4 253.7 356.8 255.9L357.3 258.5L354.6 256C353.1 254.7 351.4 251.6 350.8 249.3C350.2 246.9 349.3 245 348.8 245C348.3 245 348.1 244.6 348.4 244.1C348.7 243.7 348.1 241.7 347.1 239.7C346.1 237.7 344.9 234.4 344.6 232.5C344.2 230.6 343.4 229 342.8 229C342.2 229 340.9 228.3 339.9 227.4C338.2 225.9 338.2 225.6 339.7 224.1C340.6 223.2 343.7 221.1 346.6 219.5C353.4 215.7 361.6 207.8 363.5 203.4C365 199.8 369.6 195.1 371.8 195C372.5 195 373.7 196.5 374.4 198.2ZM232 210.7C230.9 212.4 230.9 212.4 231.4 210.7C231.7 209.7 232.1 208.1 232.1 207.2C232.2 205.7 232.3 205.7 232.7 207.2C232.9 208.2 232.6 209.7 232 210.7ZM315 233.9C315 234.5 314.6 235.2 314 235.5C313.5 235.8 313 235.4 313 234.6C313 233.7 313.5 233 314 233C314.6 233 315 233.4 315 233.9ZM372 275.2C372 276.8 369 277.2 367.4 275.9C366.4 275.1 365.6 275 365.2 275.7C364.8 276.3 361.8 277.2 358.5 277.8C355.2 278.4 351.4 279.2 350.1 279.6C348.2 280.2 347.9 280 348.2 278.4C348.6 275.9 361.7 271.5 363.6 273.1C365.2 274.4 369 273.4 369 271.7C369.1 270.4 372 273.9 372 275.2ZM346.8 273.6C346.7 274.1 345.9 274.5 345.2 274.6C344.2 274.8 344.1 274.5 345.1 273.4C346.3 272 347.5 272.1 346.8 273.6ZM343.6 290.5C344 291.3 344.8 292 345.6 292C346.6 292 346.3 292.7 344.8 294.5C342.4 297.3 339.4 297.9 340.4 295.5C340.7 294.7 340.5 294 340 294C339.4 294 339 292.9 339 291.5C339 289.7 339.5 289 341 289C342.1 289 343.3 289.7 343.6 290.5ZM347 333C347 333.5 346.4 334 345.6 334C344.8 334 343.8 333.5 343.5 333C343.2 332.4 343.8 332 344.9 332C346.1 332 347 332.4 347 333Z" fill="black"/>
<path d="M301.2 185.1C300.5 186.2 300.4 187.1 301 187.5C301.6 187.8 302 187.4 302 186.6C302 185.8 302.8 185 303.8 184.8C305.3 184.5 305.3 184.4 303.9 183.8C303 183.4 301.9 183.9 301.2 185.1Z" fill="black"/>
<path d="M309 184.1C309 184.6 309.5 184.8 310 184.5C310.6 184.2 311 183.7 311 183.4C311 183.2 310.6 183 310 183C309.5 183 309 183.5 309 184.1Z" fill="black"/>
<path d="M303.5 208C303.8 208.5 304.3 209 304.6 209C304.8 209 305 208.5 305 208C305 207.4 304.5 207 303.9 207C303.4 207 303.2 207.4 303.5 208Z" fill="black"/>
<path d="M179 211.6C172.6 215.2 170.5 218.4 170.5 224.5C170.6 236.4 180.2 256 186.1 256C189 256 187.3 253.3 183.7 252.1C179.7 250.7 178.4 248.8 176.9 241.1C175.8 235.9 175.8 234.4 177.3 229.7C180.4 219.9 185.3 216.4 189.2 221C191.4 223.5 195.2 224.4 198.5 223.3L201.1 222.5L198 217.7C195.1 213.1 192.2 211.1 186 209.7C184.3 209.3 182 209.9 179 211.6Z" fill="black"/>
<path d="M197 228.2C194.5 228.7 191.8 229.3 190.9 229.4C190.1 229.5 187.9 230.6 186.2 231.9C183.1 234 183 234.4 183 241C183 247.5 183.2 248 186 250C187.7 251.2 189 251.7 189 251.2C189 249.3 197.4 248.9 201.3 250.5C203.3 251.3 205.4 252 205.9 252C207.4 252 207.9 247.8 207.1 242C206.6 237.6 206.2 237 205.6 238.7C204.8 241.2 203.4 241.7 202.8 239.8C202.6 239.2 202.7 236.6 203 234C203.6 229.2 203.3 226.9 202.2 227.1C201.8 227.2 199.5 227.7 197 228.2Z" fill="black"/>
<path d="M207.8 229.5C207.2 232.3 208.4 232.9 209.4 230.4C210.2 228.2 210.1 227 209.1 227C208.6 227 208 228.1 207.8 229.5Z" fill="black"/>
<path d="M219.2 265.5C218.7 268.2 207.4 272.2 206.1 270.2C205.8 269.7 203 269 200 268.6C193.2 267.9 190.4 267.3 188.7 266.4C187.8 265.8 187.8 265.9 188.7 267.1C189.3 267.9 192.9 270 196.7 271.9C206.6 276.9 207.2 277.2 212.5 280.7C215.1 282.5 217.7 283.7 218.1 283.4C219.3 282.7 220.2 275.1 219.8 269.5C219.5 266.7 219.3 265 219.2 265.5Z" fill="black"/>
<path d="M301 332.4C301 332.6 301.7 333 302.5 333.4C303.3 333.7 304 333.5 304 333C304 332.4 303.3 332 302.5 332C301.7 332 301 332.2 301 332.4Z" fill="black"/>
<path d="M306 334C306 334.5 306.7 334.7 307.5 334.4C308.3 334 309 333.6 309 333.4C309 333.2 308.3 333 307.5 333C306.7 333 306 333.4 306 334Z" fill="black"/>
<path d="M311 333.4C311 334.3 314 334.8 314.5 334C314.9 333.4 314.2 333 313.1 333C311.9 333 311 333.2 311 333.4Z" fill="black"/>
<path d="M245.1 367.6C245.1 368.7 245.4 369 245.7 368.2C246 367.5 245.9 366.6 245.6 366.3C245.3 365.9 245 366.5 245.1 367.6Z" fill="black"/>
<path d="M504.4 42.4C504.1 43.3 503.2 43.6 502.3 43.3C501.1 42.8 500.9 43 501.5 44C502.1 45 501.9 45.2 500.5 44.6C499 44.1 498.9 44.2 500 45.5C501 46.7 501 47 499.7 47C498.8 47 497.9 46.6 497.5 46C497.2 45.4 496 45.4 494.6 46C493.3 46.5 491.9 46.6 491.4 46.2C491 45.8 490.9 46.2 491.2 47C491.6 48.1 491.1 48.6 489.2 48.8C487.8 48.9 486.2 49.4 485.5 50C484.9 50.5 483 51.1 481.4 51.3C479.7 51.5 477.9 52 477.2 52.4C476.5 52.8 476 52.6 475.9 51.8C475.9 51.1 475.5 51.5 475 52.7C474 55.2 472 55.8 472 53.7C472 52.8 471.7 52.9 471.1 53.9C470.6 54.6 469.8 55 469.2 54.6C468.6 54.3 468 54.4 467.8 55C467.6 55.6 466.4 56.2 465.1 56.5C463.9 56.7 462.2 57.4 461.4 58.1C460.4 58.9 460 58.9 460 58.1C460 57.3 459.3 57.4 457.5 58.2C456.2 58.8 455.3 59.6 455.5 60C455.7 60.4 454.8 60.5 453.5 60.2C452.1 60 451 60.2 451 60.8C451 61.4 449.8 61.7 448.4 61.5C446.9 61.4 445.6 61.8 445.3 62.6C445 63.4 444.4 63.7 443.9 63.5C443.4 63.2 441.9 63.7 440.5 64.6C438.8 65.7 438 65.9 438 65C438 64.2 436.7 64.5 434.4 65.9C432.5 67.1 431.1 67.6 431.5 67.1C431.8 66.6 431.6 65.9 431.1 65.6C430.6 65.3 429.9 65.7 429.6 66.6C429.3 67.4 428.6 67.8 428 67.5C427.5 67.2 427 67.1 427 67.4C427 68.8 447.6 77 451 77C452.1 77 453 77.5 453 78.2C453 78.8 453.2 79.1 453.6 78.8C453.9 78.5 455.8 78.6 457.8 79.1C459.8 79.6 462.4 80.3 463.5 80.5C464.6 80.8 467.1 81.3 469 81.6C470.9 81.9 472.8 82.4 473.2 82.6C473.6 82.9 476.3 83.5 479.2 84C482.1 84.5 488.3 85.6 493 86.4C497.7 87.2 503.9 88.1 506.9 88.3L512.2 88.8L511.7 71.1C511.1 52.2 509.8 45 506.8 44.2C505.8 44 505 43.3 505 42.8C505 42.3 505.5 42.2 506.2 42.6C506.9 43 507 42.9 506.6 42.2C505.6 40.6 505.1 40.7 504.4 42.4Z" fill="black"/>
</g>
<defs>
<clipPath id="clip0_1_3">
<rect width="512" height="512" rx="65" fill="white"/>
</clipPath>
</defs>
</svg>
