<?xml version="1.0" standalone="no"?>
<!DOCTYPE svg PUBLIC "-//W3C//DTD SVG 20010904//EN"
 "http://www.w3.org/TR/2001/REC-SVG-20010904/DTD/svg10.dtd">
<svg version="1.0" xmlns="http://www.w3.org/2000/svg"
 width="512.000000pt" height="512.000000pt" viewBox="0 0 512.000000 512.000000"
 preserveAspectRatio="xMidYMid meet">
<metadata>
Created by potrace 1.11, written by Peter Selinger 2001-2013
</metadata>
<g transform="translate(0.000000,512.000000) scale(0.100000,-0.100000)"
fill="#000000" stroke="none">
<path d="M560 5110 c-244 -33 -449 -199 -527 -429 -28 -83 -31 -151 -5 -152 9
0 24 -2 32 -3 90 -18 584 -27 770 -16 69 5 175 11 236 15 191 10 252 20 346
53 31 11 59 17 62 14 3 -3 6 0 6 6 0 7 3 11 8 10 15 -4 98 27 124 46 28 20 29
40 3 29 -8 -3 -15 0 -15 7 0 6 -4 9 -9 6 -5 -3 -11 1 -15 9 -3 8 -12 15 -19
15 -8 0 -20 7 -27 15 -7 8 -21 15 -31 15 -11 0 -19 7 -19 15 0 9 -6 12 -15 9
-10 -4 -15 0 -16 12 0 11 -3 14 -6 7 -4 -10 -9 -10 -26 0 -23 13 -29 14 -65
16 -13 0 -20 6 -17 11 3 6 1 10 -5 10 -6 0 -8 5 -4 11 4 8 0 8 -15 0 -17 -9
-21 -9 -21 3 0 7 -7 17 -16 20 -24 9 -31 7 -14 -4 8 -5 10 -10 4 -10 -5 0 -19
7 -30 15 -22 16 -38 20 -29 6 3 -5 1 -12 -4 -15 -5 -4 -11 3 -13 14 -2 12 -6
21 -10 21 -4 0 -20 6 -35 14 -21 11 -29 12 -35 2 -6 -9 -8 -9 -8 1 0 6 -7 12
-15 12 -8 0 -15 7 -15 16 0 14 -3 14 -15 4 -14 -11 -19 -7 -16 13 0 4 -9 7
-21 7 -19 0 -20 2 -8 10 10 7 11 10 3 11 -22 3 -27 4 -52 18 -21 12 -23 12
-18 -4 5 -11 3 -15 -5 -12 -7 2 -12 12 -10 22 2 10 -1 14 -7 10 -15 -9 -14 8
2 24 10 11 8 11 -11 1 -14 -7 -21 -17 -18 -26 3 -8 -1 -14 -8 -14 -8 0 -13 8
-12 18 1 11 -6 17 -19 17 -31 0 -48 14 -36 29 6 7 8 16 4 19 -11 12 -23 8 -23
-8 0 -8 -9 -15 -20 -15 -27 0 -25 26 3 34 18 5 19 8 7 15 -9 7 -17 6 -21 -1
-4 -7 -9 -7 -13 1 -8 12 -108 13 -196 1z m190 -10 c0 -5 -7 -7 -15 -4 -8 4
-15 8 -15 10 0 2 7 4 15 4 8 0 15 -4 15 -10z"/>
<path d="M830 5065 c-10 -13 -9 -15 9 -15 11 0 21 4 21 9 0 18 -18 21 -30 6z"/>
<path d="M2495 4703 c-55 -12 -95 -54 -95 -102 0 -22 -11 -26 -85 -36 -27 -4
-59 -13 -71 -20 -12 -7 -39 -17 -60 -21 -21 -4 -57 -16 -79 -27 -28 -14 -56
-19 -96 -18 -47 2 -61 -2 -85 -22 -16 -13 -38 -27 -49 -31 -27 -9 -70 -47 -78
-70 -7 -16 -5 -17 9 -6 12 11 17 11 23 2 5 -9 12 -4 21 13 7 14 22 25 32 25
17 0 17 -2 2 -25 -9 -13 -26 -27 -37 -30 -38 -11 -67 -28 -61 -36 3 -5 -4 -21
-15 -36 -11 -16 -29 -58 -41 -94 -15 -49 -27 -69 -45 -77 -36 -17 -75 -84 -75
-132 0 -22 -3 -40 -8 -40 -20 0 -43 -69 -43 -132 -1 -44 -5 -68 -13 -71 -22
-9 -76 -99 -76 -128 0 -15 4 -39 10 -53 7 -20 5 -37 -11 -73 -15 -36 -19 -59
-14 -93 5 -36 3 -49 -9 -59 -18 -15 -21 -47 -6 -56 18 -11 11 -98 -10 -125
-11 -14 -20 -33 -20 -42 0 -10 -8 -18 -17 -19 -10 0 -26 -2 -35 -4 -10 -2 -18
1 -18 6 0 5 -7 9 -16 9 -9 0 -12 -5 -8 -12 5 -10 4 -10 -6 -1 -7 6 -19 9 -26
6 -8 -3 -14 1 -14 8 -1 9 -6 8 -15 -5 -12 -16 -19 -17 -37 -9 -13 5 -35 6 -51
2 -16 -4 -27 -3 -27 3 0 6 -11 7 -26 4 -19 -5 -24 -4 -18 6 4 6 -8 1 -26 -12
-18 -13 -30 -19 -26 -12 4 7 1 12 -9 12 -9 0 -13 -4 -10 -10 11 -18 -4 -11
-26 13 -17 17 -21 18 -16 5 4 -12 1 -18 -8 -18 -8 0 -15 3 -15 8 0 4 -18 7
-40 8 -21 0 -37 -3 -34 -8 9 -14 -4 -9 -21 8 -12 12 -19 13 -29 5 -10 -9 -15
-8 -19 3 -4 9 -15 13 -27 11 -11 -2 -20 0 -20 6 0 5 -5 9 -10 9 -7 0 -7 -6 0
-19 10 -20 -2 -24 -27 -8 -7 5 -13 5 -14 0 0 -4 -4 2 -9 15 l-10 22 -22 -22
c-21 -21 -22 -21 -29 -2 -4 10 -8 14 -8 8 -1 -7 -8 -14 -16 -18 -8 -3 -14 -2
-14 2 3 20 -2 25 -11 12 -9 -13 -12 -13 -23 2 -10 12 -17 14 -31 6 -10 -6 -16
-7 -13 -2 3 5 -8 9 -24 10 -15 1 -26 -3 -23 -7 3 -5 0 -9 -5 -9 -6 0 -11 5
-11 10 0 6 -7 10 -16 10 -9 0 -13 -5 -9 -12 4 -7 1 -6 -7 2 -15 18 -35 21
-145 22 -58 0 -81 4 -76 12 4 6 0 5 -9 -2 -13 -10 -17 -10 -21 0 -4 10 -6 10
-6 1 -1 -7 -5 -13 -11 -13 -5 0 -8 6 -6 13 1 6 1 9 -1 5 -3 -5 -13 -8 -24 -8
-10 0 -19 -6 -19 -12 0 -9 -4 -8 -10 2 -6 9 -10 11 -10 3 0 -7 -6 -10 -13 -8
-6 2 -24 6 -38 9 -22 4 -26 1 -22 -15 3 -11 0 -19 -6 -19 -7 0 -9 5 -5 12 4 7
3 8 -4 4 -18 -11 -17 -550 1 -563 6 -5 48 -20 92 -33 44 -13 87 -27 95 -31 8
-5 40 -15 70 -23 30 -8 80 -22 110 -31 30 -9 73 -20 95 -25 22 -5 81 -20 130
-35 50 -14 101 -28 115 -30 35 -4 74 -14 150 -36 36 -10 83 -21 105 -25 22 -3
60 -10 85 -15 61 -13 81 -16 185 -28 50 -6 111 -16 136 -22 26 -6 87 -12 135
-14 143 -7 252 -21 266 -36 50 -50 98 -187 100 -279 0 -8 7 -46 14 -83 20
-100 19 -125 -8 -129 -29 -4 -64 -56 -72 -106 l-6 -39 -52 3 c-91 6 -329 35
-398 49 -34 7 -127 17 -172 18 -21 1 -38 6 -38 10 0 5 -6 7 -12 4 -7 -2 -51 2
-97 9 -47 7 -87 11 -89 9 -3 -3 -10 -1 -17 5 -9 8 -134 22 -187 21 -10 0 -18
3 -18 7 0 4 -12 8 -27 8 -47 3 -176 22 -308 46 -33 5 -80 11 -105 12 -25 0
-55 5 -68 9 -15 6 -28 4 -37 -3 -8 -7 -15 -8 -15 -3 0 5 -12 10 -28 11 -22 1
-24 0 -12 -9 12 -9 11 -9 -5 -4 -11 4 -29 9 -40 10 -11 2 -20 4 -20 5 0 1 -15
2 -33 3 l-32 2 0 -587 c0 -663 1 -673 72 -818 81 -163 254 -298 433 -335 106
-22 4005 -22 4109 0 215 46 405 218 479 435 21 63 22 79 25 595 l3 531 -24 -1
c-12 -1 -28 -5 -35 -9 -7 -4 -16 -4 -22 -1 -5 3 -10 2 -10 -2 0 -5 -8 -9 -17
-9 -10 -1 -31 -5 -47 -9 -22 -6 -27 -5 -21 5 6 9 3 10 -11 2 -11 -6 -21 -10
-24 -10 -5 1 -76 -8 -140 -17 -37 -5 -112 -17 -135 -21 -60 -12 -155 -16 -377
-17 -137 -1 -248 -4 -248 -7 0 -3 -53 -6 -118 -7 -64 0 -137 -4 -162 -7 -25
-4 -63 -9 -85 -12 -22 -3 -84 -7 -137 -8 -80 -3 -96 -1 -91 10 7 19 32 24 133
27 93 3 125 15 198 75 54 44 70 74 78 149 4 32 22 98 41 147 19 49 41 123 49
165 13 68 24 101 24 74 0 -11 26 -8 60 5 15 5 38 9 96 15 17 2 35 6 40 9 10 6
149 37 196 43 24 3 108 18 163 29 11 2 65 7 120 11 55 4 111 9 125 11 14 2 54
9 90 14 36 6 99 17 140 26 74 14 113 21 138 23 9 1 12 65 12 285 0 157 -4 287
-9 290 -5 3 -14 -1 -21 -9 -11 -13 -10 -14 6 -9 15 5 16 4 5 -4 -10 -7 -21 -7
-35 1 -24 13 -48 10 -58 -6 -6 -9 -10 -9 -15 -1 -12 17 -69 12 -65 -5 3 -12 1
-12 -14 0 -21 17 -81 18 -118 1 -15 -8 -25 -9 -22 -4 3 6 -1 12 -9 16 -8 3
-15 0 -15 -6 0 -7 -5 -6 -15 2 -11 9 -15 9 -15 1 0 -8 -9 -7 -29 4 -22 11 -37
12 -56 5 -19 -7 -24 -7 -19 2 5 8 -3 9 -29 5 -44 -7 -79 1 -70 17 4 6 0 5 -9
-2 -11 -9 -18 -10 -23 -2 -3 5 -13 10 -21 10 -9 0 -12 -5 -8 -11 5 -8 1 -8
-14 0 -11 6 -22 14 -24 18 -3 5 -3 3 -2 -4 3 -13 -21 -7 -45 11 -12 9 -13 8
-6 -4 7 -12 6 -13 -7 -3 -8 7 -17 11 -20 8 -9 -10 -87 -11 -81 -1 4 5 -1 7
-10 3 -10 -4 -17 -2 -17 5 0 7 -4 7 -14 -1 -10 -8 -16 -9 -21 -1 -3 5 -23 10
-44 10 -21 0 -41 3 -45 7 -3 4 -16 8 -28 10 -31 5 -31 5 -8 57 33 78 24 191
-20 241 -43 48 -84 134 -126 257 -33 97 -63 162 -112 243 -53 87 -68 121 -73
165 -4 36 -17 72 -38 104 -35 56 -38 78 -16 129 13 31 13 36 -1 48 -30 25 -63
115 -57 157 5 37 3 41 -41 78 -25 21 -46 44 -46 51 0 27 -24 62 -51 74 -16 6
-29 18 -29 25 0 8 -4 14 -10 14 -5 0 -10 -4 -10 -10 0 -5 -4 -10 -9 -10 -5 0
-9 6 -8 13 1 42 -5 58 -25 66 -33 12 -63 -5 -78 -45 -8 -19 -20 -34 -27 -34
-7 0 -12 -6 -11 -12 2 -8 -8 -13 -26 -13 -24 0 -33 8 -58 55 -37 69 -70 95
-61 46 4 -20 0 -24 -27 -28 -17 -3 -33 -1 -36 4 -3 4 2 8 10 8 9 0 16 5 16 10
0 12 -97 14 -104 2 -3 -5 -23 -8 -46 -8 -26 1 -40 -3 -40 -11 0 -16 -4 -16
-55 -2 -23 6 -54 25 -72 45 -29 31 -63 48 -48 24 7 -12 -30 -50 -50 -50 -8 0
-25 15 -37 34 -15 22 -37 39 -68 50 -46 16 -50 17 -85 9z m80 -73 c3 -5 -1
-10 -9 -10 -8 0 -18 5 -21 10 -3 6 1 10 9 10 8 0 18 -4 21 -10z m-62 -16 c7
-7 -14 -44 -26 -44 -4 0 -3 8 2 19 6 10 7 21 4 25 -3 3 -2 6 4 6 5 0 12 -3 16
-6z m-5 -119 c-6 -14 -13 -23 -16 -21 -7 7 9 46 18 46 5 0 4 -11 -2 -25z
m-208 -135 c-8 -5 -19 -10 -25 -10 -5 0 -3 5 5 10 8 5 20 10 25 10 6 0 3 -5
-5 -10z m-442 -135 c0 -19 -4 -37 -8 -40 -8 -5 -20 55 -13 68 10 18 21 4 21
-28z m-151 -156 c-1 -12 -16 -31 -34 -43 -18 -11 -34 -28 -37 -36 -2 -8 -4 -4
-5 9 -1 14 12 36 33 57 40 40 45 41 43 13z m837 -21 c-6 -21 -5 -22 12 -8 18
14 18 14 0 -8 -27 -31 -37 -28 -25 8 13 35 24 41 13 8z m456 -18 c0 -5 -5 -10
-11 -10 -5 0 -7 5 -4 10 3 6 8 10 11 10 2 0 4 -4 4 -10z m-1316 -35 c-4 -8 -8
-15 -10 -15 -2 0 -4 7 -4 15 0 8 4 15 10 15 5 0 7 -7 4 -15z m596 -5 c0 -5 -8
-10 -17 -10 -15 0 -16 2 -3 10 19 12 20 12 20 0z m848 -192 c12 1 22 -3 22 -8
0 -5 7 -6 17 -3 11 4 14 3 9 -5 -4 -8 0 -12 12 -12 10 0 44 -13 75 -29 31 -16
57 -27 57 -25 0 3 6 -1 14 -8 8 -7 12 -16 9 -21 -2 -4 -1 -7 4 -6 4 1 11 0 16
-1 4 -1 13 -3 20 -4 6 -1 11 -7 10 -14 -2 -7 8 -10 27 -8 16 2 27 -1 24 -5 -3
-5 0 -9 6 -9 7 0 10 -6 7 -12 -2 -7 3 -19 12 -26 14 -12 14 -13 -2 -8 -15 5
-16 2 -7 -14 6 -11 15 -19 21 -17 6 1 13 -7 15 -18 1 -11 8 -21 13 -23 12 -4
4 -49 -11 -69 -10 -12 -45 -11 -102 3 -23 5 -27 4 -21 -7 5 -8 -3 -4 -16 8
-23 20 -27 21 -46 8 -11 -8 -23 -11 -27 -8 -10 10 -57 12 -51 2 4 -5 -8 -7
-26 -5 -31 3 -55 -8 -142 -62 -33 -22 -55 -43 -24 -26 6 4 3 -2 -7 -14 -17
-19 -17 -22 -3 -22 10 0 17 -4 17 -10 0 -5 7 -7 16 -3 14 5 15 3 5 -15 -8 -15
-8 -22 -1 -22 5 0 10 4 10 9 0 11 53 22 60 12 3 -3 15 -11 27 -16 21 -9 21
-11 5 -30 -9 -11 -57 -35 -107 -54 -108 -41 -135 -57 -135 -82 0 -36 44 -41
108 -13 51 23 61 24 95 13 21 -7 40 -15 42 -19 8 -12 -7 -50 -20 -50 -20 0
-25 -39 -7 -57 20 -19 19 -23 -2 -35 -9 -5 -16 -14 -16 -20 0 -6 7 -5 17 3 15
12 16 12 8 -1 -6 -8 -10 -18 -11 -22 -1 -5 -2 -11 -3 -15 -1 -5 -6 -1 -11 7
-8 13 -10 13 -10 -1 0 -9 6 -19 14 -22 9 -4 12 -14 9 -27 -4 -15 -2 -19 10
-14 23 8 10 -34 -14 -47 -16 -8 -59 -77 -59 -94 0 -3 8 -6 18 -6 13 -1 13 -2
2 -6 -23 -6 -51 -50 -44 -67 11 -29 31 -15 25 18 -1 5 7 6 18 3 15 -3 22 1 28
17 4 11 6 24 5 29 -4 15 8 6 18 -13 8 -16 8 -28 -4 -50 -15 -32 -7 -40 15 -14
11 14 14 12 27 -11 10 -19 19 -25 33 -22 11 3 19 0 19 -6 0 -7 5 -5 10 3 7 11
10 12 10 2 0 -7 7 -20 15 -28 8 -9 15 -11 15 -5 0 6 8 11 17 11 9 0 14 -3 10
-6 -3 -3 2 -14 11 -24 15 -18 16 -18 46 5 l30 24 18 -21 c14 -17 32 -21 111
-24 90 -4 94 -3 115 21 13 15 33 25 48 25 26 0 26 -1 11 -18 -10 -10 -14 -22
-11 -25 4 -4 2 -12 -4 -20 -6 -7 -9 -23 -5 -35 3 -13 1 -22 -6 -22 -6 0 -11 5
-11 10 0 15 -38 12 -43 -2 -2 -7 -11 2 -21 20 -15 29 -56 46 -56 23 0 -5 -12
-12 -26 -15 -15 -4 -24 -10 -20 -13 10 -10 -15 -33 -36 -33 -11 0 -26 -13 -36
-30 -9 -16 -20 -30 -24 -30 -5 0 -8 -7 -8 -15 0 -9 -10 -26 -22 -39 -40 -41
-68 -76 -68 -86 0 -5 -10 -16 -22 -24 -20 -14 -18 -20 4 -17 3 0 5 -7 3 -17
-1 -9 -8 -16 -13 -15 -7 2 -9 -4 -5 -13 5 -14 3 -15 -18 -4 l-24 13 20 -20
c22 -23 35 -21 35 5 0 13 2 14 9 4 6 -11 9 -9 13 6 3 11 17 21 31 24 15 3 24
1 21 -3 -3 -5 0 -9 6 -9 16 0 -46 -51 -67 -55 -10 -2 -26 -4 -36 -4 -10 -1
-16 -5 -12 -10 3 -5 1 -12 -5 -16 -5 -3 -10 -15 -10 -26 0 -11 -7 -22 -15 -25
-11 -5 -13 -10 -5 -19 5 -6 7 -15 3 -18 -3 -4 -1 -7 6 -7 7 0 11 7 8 15 -4 8
-2 17 3 20 6 4 10 0 10 -8 0 -10 8 -13 25 -9 16 3 25 0 25 -8 0 -9 4 -9 17 1
14 12 17 12 21 0 3 -10 6 -10 12 -1 6 9 13 9 29 1 16 -9 21 -9 21 0 0 7 11 2
25 -11 14 -13 25 -29 25 -36 0 -6 7 -15 16 -18 8 -3 13 -2 10 3 -4 5 3 7 14 4
11 -3 20 -12 20 -20 0 -8 4 -12 9 -9 14 9 19 -29 6 -47 -14 -20 -36 -23 -31
-4 1 6 1 9 -1 5 -3 -5 -11 -8 -18 -8 -7 0 -16 -7 -19 -16 -5 -14 -4 -15 9 -4
14 12 18 9 13 -7 -4 -12 -38 -14 -38 -3 0 6 -6 10 -14 10 -11 0 -13 -7 -6 -30
6 -19 5 -32 -2 -36 -6 -4 -8 -2 -5 3 4 6 1 13 -7 16 -10 4 -12 0 -9 -14 3 -10
1 -19 -5 -19 -6 0 -18 -3 -28 -7 -12 -4 -15 -3 -10 5 4 7 1 12 -8 12 -9 0 -16
-5 -16 -11 0 -6 -7 -3 -16 5 -17 18 -49 22 -39 6 9 -15 -24 -25 -38 -11 -6 6
-19 11 -29 11 -12 0 -15 5 -11 17 5 12 1 11 -15 -5 -23 -23 -52 -29 -52 -12 0
6 -9 10 -20 10 -11 0 -20 -5 -20 -11 0 -7 -8 -6 -22 3 -13 8 -33 14 -45 13
-12 -1 -21 3 -20 9 1 6 -9 12 -23 13 -14 1 -19 0 -12 -3 19 -9 14 -24 -8 -24
-11 0 -20 5 -20 11 0 5 -4 7 -10 4 -5 -3 -10 -1 -10 5 0 6 -4 9 -9 5 -5 -3
-13 -1 -16 5 -4 6 -15 8 -26 5 -12 -4 -19 -2 -19 6 0 10 -3 10 -11 2 -14 -14
-42 -5 -32 10 4 7 -4 8 -25 4 -21 -4 -36 -2 -45 8 -8 8 -17 12 -20 9 -3 -3
-16 0 -29 7 -12 7 -31 12 -40 10 -12 -1 -18 4 -19 16 0 10 -3 13 -6 6 -2 -7
-21 -15 -41 -18 -20 -4 -44 -9 -52 -12 -8 -4 -17 -7 -20 -8 -63 -19 -83 -22
-100 -18 -27 7 -25 -1 13 -55 42 -60 53 -72 69 -72 7 0 24 -6 38 -13 14 -7 38
-14 53 -15 16 -1 38 -9 50 -17 21 -14 21 -15 2 -15 -20 -1 -20 -1 -1 -15 16
-12 22 -12 28 -2 6 9 8 9 8 -1 0 -9 7 -11 20 -7 15 5 20 2 20 -10 0 -13 6 -16
21 -12 12 3 31 2 43 -3 12 -4 42 -4 67 1 38 7 46 5 62 -13 9 -11 17 -16 17
-12 0 5 9 -6 20 -23 11 -18 25 -34 32 -34 7 -1 20 -2 28 -3 8 0 15 -10 15 -21
0 -11 7 -23 15 -27 10 -4 5 -9 -17 -13 -18 -4 -33 -11 -33 -15 0 -12 -37 -50
-49 -50 -7 0 -10 -4 -7 -9 4 -5 -6 -20 -21 -33 -21 -17 -28 -33 -30 -63 -2
-56 -6 -68 -30 -94 -12 -13 -19 -30 -16 -38 5 -11 1 -14 -13 -10 -10 3 -32 9
-49 13 -48 12 -222 91 -306 139 -43 25 -81 45 -84 45 -3 0 -27 15 -54 33 -27
17 -89 57 -137 87 -114 71 -202 142 -227 182 -17 28 -19 45 -15 126 3 52 10
97 15 101 5 3 10 74 11 156 1 166 0 171 -72 330 -25 55 -46 105 -46 112 0 7
-16 24 -35 38 -59 46 -98 121 -138 265 -33 118 -32 140 7 208 52 88 94 117
168 117 50 0 61 -4 83 -28 42 -44 74 -62 88 -48 9 9 8 14 -3 21 -10 7 1 8 33
5 52 -6 80 6 70 31 -3 7 -9 11 -14 8 -5 -3 -9 4 -9 16 0 12 3 19 8 17 4 -3 13
1 19 9 8 7 9 15 3 19 -14 8 -1 32 20 38 10 2 24 1 31 -4 10 -6 11 -9 2 -9 -18
0 -16 -36 4 -88 10 -26 19 -39 23 -31 10 15 30 3 30 -19 1 -22 40 -70 60 -72
38 -6 51 0 45 19 -4 14 -1 19 12 17 12 0 25 14 39 41 12 23 25 39 30 35 5 -4
3 0 -3 8 -7 8 -13 29 -13 48 0 22 -4 31 -12 26 -7 -4 -8 -3 -4 5 6 8 12 9 20
2 15 -12 29 -3 19 12 -11 17 -14 89 -4 82 6 -3 8 4 6 15 -2 11 0 20 4 20 5 0
11 12 14 27 4 20 -1 33 -18 49 -16 15 -26 18 -30 11 -3 -7 -2 5 1 27 7 47 24
77 43 73 8 -1 15 9 17 26 3 27 2 28 -19 14 -19 -12 -24 -12 -35 -1 -12 14 -6
19 19 16 4 -1 17 10 29 23 23 25 47 35 35 15 -4 -7 3 -7 19 0 52 19 87 41 85
53 -5 43 2 53 49 67 57 16 99 46 118 83 17 32 34 35 52 6 12 -19 19 -20 105
-15 84 6 94 9 111 32 15 21 24 24 45 18 14 -4 36 -6 49 -6z m-693 -248 c3 -5
1 -10 -4 -10 -6 0 -11 5 -11 10 0 6 2 10 4 10 3 0 8 -4 11 -10z m-122 -41 c-4
-13 -9 -17 -15 -11 -11 11 -3 32 12 32 4 0 6 -9 3 -21z m-63 -99 c0 -5 -2 -10
-4 -10 -3 0 -8 5 -11 10 -3 6 -1 10 4 10 6 0 11 -4 11 -10z m-23 -92 c-3 -8
-6 -5 -6 6 -1 11 2 17 5 13 3 -3 4 -12 1 -19z m170 -14 c-3 -3 -12 -4 -19 -1
-8 3 -5 6 6 6 11 1 17 -2 13 -5z m-117 -26 c0 -16 -3 -19 -11 -11 -6 6 -8 16
-5 22 11 17 16 13 16 -11z m-260 -53 c0 -8 -7 -15 -15 -15 -13 0 -14 3 -3 15
16 18 18 18 18 0z m218 1 c-10 -7 -16 -16 -13 -20 3 -3 0 -2 -6 3 -15 12 -3
31 19 31 16 -1 16 -2 0 -14z m139 -18 c-3 -8 -6 -5 -6 6 -1 11 2 17 5 13 3 -3
4 -12 1 -19z m-90 -40 c-3 -8 -6 -5 -6 6 -1 11 2 17 5 13 3 -3 4 -12 1 -19z
m1457 -30 c7 -18 17 -42 21 -53 5 -11 8 -23 7 -27 -1 -4 12 -38 28 -77 17 -38
30 -77 30 -85 0 -8 4 -16 9 -18 5 -1 10 -19 12 -38 2 -19 10 -46 19 -60 19
-30 27 -136 10 -125 -19 12 -50 -31 -50 -68 0 -47 -22 -64 -58 -46 l-27 13 27
4 c33 4 49 22 42 48 -13 50 -132 56 -205 10 -39 -25 -45 -33 -41 -55 l5 -26
-27 25 c-15 13 -32 44 -38 67 -6 24 -15 43 -20 43 -5 0 -7 4 -4 9 3 4 -3 24
-13 44 -10 20 -22 53 -25 72 -4 19 -12 35 -18 35 -6 0 -19 7 -29 16 -17 15
-17 18 -2 33 9 9 40 30 69 46 68 38 150 117 169 161 15 36 61 83 83 84 7 0 19
-15 26 -32z m-1424 -125 c-11 -17 -11 -17 -6 0 3 10 7 26 7 35 1 15 2 15 6 0
2 -10 -1 -25 -7 -35z m830 -232 c0 -6 -4 -13 -10 -16 -5 -3 -10 1 -10 9 0 9 5
16 10 16 6 0 10 -4 10 -9z m570 -413 c0 -16 -30 -20 -46 -7 -10 8 -18 9 -22 2
-4 -6 -34 -15 -67 -21 -33 -6 -71 -14 -84 -18 -19 -6 -22 -4 -19 12 4 25 135
69 154 53 16 -13 54 -3 54 14 1 13 30 -22 30 -35z m-252 16 c-1 -5 -9 -9 -16
-10 -10 -2 -11 1 -1 12 12 14 24 13 17 -2z m-32 -169 c4 -8 12 -15 20 -15 10
0 7 -7 -8 -25 -24 -28 -54 -34 -44 -10 3 8 1 15 -4 15 -6 0 -10 11 -10 25 0
18 5 25 20 25 11 0 23 -7 26 -15z m34 -425 c0 -5 -6 -10 -14 -10 -8 0 -18 5
-21 10 -3 6 3 10 14 10 12 0 21 -4 21 -10z"/>
<path d="M3012 3269 c-7 -11 -8 -20 -2 -24 6 -3 10 1 10 9 0 8 8 16 18 18 15
3 15 4 1 10 -9 4 -20 -1 -27 -13z"/>
<path d="M3090 3279 c0 -5 5 -7 10 -4 6 3 10 8 10 11 0 2 -4 4 -10 4 -5 0 -10
-5 -10 -11z"/>
<path d="M3035 3040 c3 -5 8 -10 11 -10 2 0 4 5 4 10 0 6 -5 10 -11 10 -5 0
-7 -4 -4 -10z"/>
<path d="M1790 3004 c-64 -36 -85 -68 -85 -129 1 -119 97 -315 156 -315 29 0
12 27 -24 39 -40 14 -53 33 -68 110 -11 52 -11 67 4 114 31 98 80 133 119 87
22 -25 60 -34 93 -23 l26 8 -31 48 c-29 46 -58 66 -120 80 -17 4 -40 -2 -70
-19z"/>
<path d="M1970 2838 c-25 -5 -52 -11 -61 -12 -8 -1 -30 -12 -47 -25 -31 -21
-32 -25 -32 -91 0 -65 2 -70 30 -90 17 -12 30 -17 30 -12 0 19 84 23 123 7 20
-8 41 -15 46 -15 15 0 20 42 12 100 -5 44 -9 50 -15 33 -8 -25 -22 -30 -28
-11 -2 6 -1 32 2 58 6 48 3 71 -8 69 -4 -1 -27 -6 -52 -11z"/>
<path d="M2078 2825 c-6 -28 6 -34 16 -9 8 22 7 34 -3 34 -5 0 -11 -11 -13
-25z"/>
<path d="M2192 2465 c-5 -27 -118 -67 -131 -47 -3 5 -31 12 -61 16 -68 7 -96
13 -113 22 -9 6 -9 5 0 -7 6 -8 42 -29 80 -48 99 -50 105 -53 158 -88 26 -18
52 -30 56 -27 12 7 21 83 17 139 -3 28 -5 45 -6 40z"/>
<path d="M3010 1796 c0 -2 7 -6 15 -10 8 -3 15 -1 15 4 0 6 -7 10 -15 10 -8 0
-15 -2 -15 -4z"/>
<path d="M3060 1780 c0 -5 7 -7 15 -4 8 4 15 8 15 10 0 2 -7 4 -15 4 -8 0 -15
-4 -15 -10z"/>
<path d="M3110 1786 c0 -9 30 -14 35 -6 4 6 -3 10 -14 10 -12 0 -21 -2 -21 -4z"/>
<path d="M2451 1444 c0 -11 3 -14 6 -6 3 7 2 16 -1 19 -3 4 -6 -2 -5 -13z"/>
<path d="M5044 4696 c-3 -9 -12 -12 -21 -9 -12 5 -14 3 -8 -7 6 -10 4 -12 -10
-6 -15 5 -16 4 -5 -9 10 -12 10 -15 -3 -15 -9 0 -18 4 -22 10 -3 6 -15 6 -29
0 -13 -5 -27 -6 -32 -2 -4 4 -5 0 -2 -8 4 -11 -1 -16 -20 -18 -14 -1 -30 -6
-37 -12 -6 -5 -25 -11 -41 -13 -17 -2 -35 -7 -42 -11 -7 -4 -12 -2 -13 6 0 7
-4 3 -9 -9 -10 -25 -30 -31 -30 -10 0 9 -3 8 -9 -2 -5 -7 -13 -11 -19 -7 -6 3
-12 2 -14 -4 -2 -6 -14 -12 -27 -15 -12 -2 -29 -9 -37 -16 -10 -8 -14 -8 -14
0 0 8 -7 7 -25 -1 -13 -6 -22 -14 -20 -18 2 -4 -7 -5 -20 -2 -14 2 -25 0 -25
-6 0 -6 -12 -9 -26 -7 -15 1 -28 -3 -31 -11 -3 -8 -9 -11 -14 -9 -5 3 -20 -2
-34 -11 -17 -11 -25 -13 -25 -4 0 8 -13 5 -36 -9 -19 -12 -33 -17 -29 -12 3 5
1 12 -4 15 -5 3 -12 -1 -15 -10 -3 -8 -10 -12 -16 -9 -5 3 -10 4 -10 1 0 -14
206 -96 240 -96 11 0 20 -5 20 -12 0 -6 2 -9 6 -6 3 3 22 2 42 -3 20 -5 46
-12 57 -14 11 -3 36 -8 55 -11 19 -3 38 -8 42 -10 4 -3 31 -9 60 -14 29 -5 91
-16 138 -24 47 -8 109 -17 139 -19 l53 -5 -5 177 c-6 189 -19 261 -49 269 -10
2 -18 9 -18 14 0 5 5 6 12 2 7 -4 8 -3 4 4 -10 16 -15 15 -22 -2z"/>
</g>
</svg>
