<svg version="1" xmlns="http://www.w3.org/2000/svg" width="693.333" height="693.333" viewBox="0 0 520.000000 520.000000"><path d="M0 260v260h101.5c96.4 0 106.2-.3 100-2.6-2.5-1-1.7-3.4 2.1-6.9 2-1.9 3.3-3.8 2.9-4.4-.3-.6.1-1.1.9-1.1.9 0 1.6.6 1.6 1.4 0 .8.6 1.7 1.3 1.9.9.4.8.8-.3 1.6-.8.5-1.1 1.4-.6 1.8.5.4 1.1.3 1.3-.3.2-.7 1.3-1 2.3-.7 1.2.3 2 0 2-.7s-.6-1-1.4-.7c-1.8.7-3.1-2.2-1.6-3.7.7-.7 1-.5 1 .7 0 .9.5 1.7 1 1.7 2 0 .9-2.7-1.5-3.8-1.4-.6-2.5-1.6-2.5-2.2v-1.8c-.1-.4-1.5-1.5-3.3-2.5-1.8-1-2.4-1.6-1.5-1.3.9.3 1.9 0 2.2-.7.3-.9.8-.8 1.6.3.8 1.2.9.8.4-1.5-.4-2.2-.3-2.6.5-1.6.8 1.2 1.1 1 1.6-1.1.4-1.5.4-3.2 0-3.9-.5-.8-.1-.9 1.6-.4 1.7.4 2 .3 1-.3-.7-.5-1.1-1.5-.7-2.1.4-.6.9-2.3 1.1-3.8.5-4.2 2.3-8.3 3.6-8.3 1.8 0 3.8 3.2 3.9 6 0 1.5.4 3 .9 3.5.4.6 1.9 4.1 3.2 8 1.3 3.8 2.6 7.2 3 7.5 1.1.9 2.7 6.8 2.1 7.6-.4.4-.1.4.5 0 .9-.5 1.3-.1 1.3 1.1 0 1 1.2 4.3 2.8 7.5l2.7 5.7 117.8.1c115.9 0 117.7 0 117.7-1.9 0-1.1.5-2.3 1.1-2.7.6-.4.9-1.9.5-3.6-.3-1.6-.2-2.7.3-2.4.5.3 1.1-.7 1.4-2.2.7-3.5-1.5-6-6.2-6.8-2-.3-6.5-1.5-10.1-2.7-3.6-1.2-7.9-2.1-9.7-2.2-1.7 0-2.9-.4-2.6-.9.3-.4-.5-.5-1.7-.1-1.5.5-2 .3-1.6-.3.3-.6.2-1.3-.4-1.7-.5-.3-1-.2-1 .4 0 .5-1.8.1-4-1-2.1-1-4.6-1.9-5.5-1.9-.8 0-2.3-.4-3.3-.9-4.6-2.4-7-3.1-10.4-3.4-2-.1-3.4-.5-3.1-1 .2-.4-.4-.7-1.3-.7-1 0-6-1.4-11.2-3.1-9-3.1-11.9-5.2-9.2-6.9.7-.4 1-1.5.7-2.4-.4-.9-.2-1.6.3-1.6s.7-.7.4-1.4c-1.1-2.8 6.6-8.4 12.1-8.8 1.4-.1 2.5-.8 2.5-1.5s.7-1.3 1.5-1.3 1.5-.5 1.5-1.1c0-.5.4-.7 1-.4.6.3.7-.1.3-1-.4-1.3-.8-1.4-1.4-.4-1.1 1.8-5.9 1.9-6.6.3-.3-.8-.9-1.1-1.4-.8-.5.3-.9-.7-1-2.3 0-2.5-.1-2.6-.9-.8-.7 1.5-.9 1.6-.9.4-.1-.9-1.1-1.9-2.2-2.2-1.5-.4-2-1.1-1.5-2.3.4-1-.1-2.5-1.1-3.6-1.6-1.8-1.6-1.9.3-1.2 1.4.5 1.2 0-.9-2.1-2.9-2.7-3-4.9-.2-2.5 1 .8 1.5.9 1.5.2 0-.6-.8-1.6-1.7-2.1-1.9-1-2.3-1.1-5-1.2-1.1 0-1.3-.3-.5-.6.6-.2 1.2-1.4 1.2-2.5 0-1.6-.5-1.9-2.4-1.6-2.9.6-4.3-1.7-2.5-3.8.9-1.1.6-1.9-1.6-3.8-2.6-2.2-2.6-2.4-.9-3.5 1.8-1 1.7-1-.4-1.1-1.9 0-2.1-.3-1.2-1.9 1.5-2.9 1.2-4.5-.5-2.7-.8.8-1.5 2-1.5 2.6 0 .6-.5.8-1.1.4-.8-.4-.8-.9 0-1.7 1.7-1.7 1.3-3.7-.6-3.8-1-.1-.4-.5 1.2-.9 2.8-.7 2.8-.8.5-.9-2.5-.2-2.5-.2-.5-1.8 2-1.5 2-1.5-.2-1-1.3.3-3-.3-4.2-1.5-2.3-2.1-2.8-3.3-.8-2.2.9.6.9.5 0-.8-.7-.8-1-1.8-.6-2.2.4-.4.1-1.1-.7-1.7-1.2-.7-1.3-1.1-.2-1.8 1.1-.6.9-1-.7-1.4-1.5-.3-2.1-1.3-2.1-3.2 0-1.4-.4-2.4-.9-2.1-.9.6-2.6-4-2.2-6.2.1-.7-1-2.2-2.4-3.4-3-2.3-2.7-3.5.4-1.9 1.7.9 2 .9 1.5-.3-.3-.9-1.1-1.4-1.6-1.3-.6.1-1.6-1.3-2.2-3.1-.6-1.8-1.5-3.1-1.9-2.8-.4.3-.3 0 .3-.6.5-.7 1-1.7 1-2.3 0-.5-.5-.3-1 .5-.7 1.1-1 .4-1-2.5 0-3-.5-4.4-2-5.3-1.2-.7-1.8-1.7-1.5-2.2.3-.5 0-.7-.8-.4-.8.3-1.7-.2-2.1-1.1-.4-1.1-.2-1.4.7-1 .6.4.5.1-.4-.7-4.1-3.5-4.5-9.7-.5-9.9 1.1 0 1.5-.3.8-.6-.9-.3-.7-1.2.7-3.1 1.5-2.2 1.6-2.9.6-3.9-.7-.6-1.6-.9-1.9-.6-.3.3-1.5-.6-2.6-2-1.2-1.5-2.7-2.4-3.5-2-.8.3-1.5 0-1.5-.6s-1.1-1.1-2.5-1.1c-1.7 0-2.5-.6-2.5-1.8 0-1.3-.2-1.4-.9-.3-.7 1.1-1.1.9-2-.8-.6-1.1-2.3-2.4-3.6-2.7-1.4-.3-2.5-1-2.5-1.4 0-.5-.9-1.2-2-1.5-2.8-.9-2.6-4.3.3-4.7 1.2-.2 2.1-.9 1.9-1.7-.2-1.1 0-1.2 1.1-.2 1.2.9 1.6.7 2-1 .3-1.1 1-1.9 1.5-1.5.5.3.7-.5.6-1.7-.4-3.3-.4-3.3-1.4-1.7-.5.8-1.2 1.2-1.5.8-.3-.3 0-1.2.7-1.9.7-.8 1.4-2.4 1.5-3.6.2-1.7-.1-2.1-1.4-1.6-1.1.4-1.4.3-.9-.5 1.1-1.7-.3-5.2-2-5.2-1.2 0-1.2-.4-.4-2 .8-1.5.8-1.8-.3-1.4-1.4.5-3.1-2.1-2.3-3.5.3-.4-.7-.7-2.1-.6-1.8 0-2.8-.7-3.4-2.5l-.9-2.5 1.8 2.1c1.8 2.1 1.8 2.1 1.7-1.7 0-2.2-.3-3.9-.7-3.9-.5 0-.8.4-.8 1 0 1.5-1.6 1.2-1.8-.3 0-.6-.4-2.2-.7-3.4-.5-1.6-.1-2.4 1.5-3.3 1.8-1 2-1.4.9-2.1-1.1-.7-1-.9.4-.9 2.5 0 2.1-2-.5-2.1-1.9-.1-1.9-.2-.5-.6 1.2-.3 1.6-1 1.3-2-.4-.9-.1-1.3.6-1 .7.2 1.2 1.1 1 2.1-.2.9.3 1.6 1.1 1.6 2.5 0 .4-10-2.1-10.1-1.1 0-1.2-.2-.4-.6.6-.2 1-.9.6-1.4-.3-.5 0-.9.7-.9s.9-.3.6-.6c-.4-.4-1.4-.1-2.4.7-1.1.9-1.4 1-.9.1.4-.6.2-1.2-.3-1.2-.6 0-1-.3-1-.8.3-2-.2-4.2-1-4.2-.5 0-1.2.8-1.5 1.7-.3 1-.4.5-.2-1 .3-2.1-.5-3.7-3.1-6.4-1.8-2-3.9-4.8-4.6-6.2-.7-1.4-1.9-2.6-2.7-2.6-.8 0-2.1-1-2.8-2.3-.7-1.2-2.3-2.2-3.5-2.2-2-.1-2-.2-.4-1.1 2.1-1.2 2.3-3.3.2-2.5-.9.3-1.8-.1-2.1-.9-.3-.8-1.6-1.8-2.7-2.2-2-.6-2-.7.8-1.4l3-.7-2.9-.1c-2.4-.1-2.7-.4-2.3-2.2.4-1.7.3-1.9-.6-1-1.8 1.8-3.2 1.3-1.5-.7 1.1-1.2 1.4-2.8 1-5.2l-.6-3.5-.7 3.5c-.5 3-.6 2.7-.7-2 0-3 .2-4.7.5-3.8.2 1 .8 1.8 1.3 1.8s1.6.7 2.4 1.6c1.5 1.4 1.6 1.4 1.6-.4 0-1.3-.6-1.9-1.7-1.8-1.3.1-1.9-.8-2.1-2.8-.4-2.9-.3-2.9 2-1.4 1.2.8 2.8 3.3 3.5 5.4 1 3.4 1.2 3.5 1.2 1.2.1-3.3 1.5-4.3 3.8-2.8 1.6 1.1 1.6 1.1.1.6-1-.3-2-.1-2.3.4-.7 1.2.5 4.1 1.5 3.5 1.5-.9 4.1.7 3.1 1.9-.6.7-.6 1.7-.1 2.6.8 1.3 1 1.2 1-.3 0-.9.4-1.7 1-1.7.5 0 .7-.8.3-1.8-.5-1.4-.3-1.5.7-.5 1.1 1 1.1 1.5 0 2.8-1.2 1.4-1.1 1.5 1.3.4 2-.9 3-.9 4 0 1.1.8 2.2.9 4.1.1 3.5-1.3 3.6-1.3 3.6.6 0 1.1.6 1.4 2.1.9 1.4-.5 1.9-.3 1.5.3-1.9 3.1 11.5 1.4 14.9-1.8 2.5-2.4 2.6-2.4 5.9-.6 2.7 1.4 3.8 1.6 5.5.7 1.1-.6 3.3-.9 4.8-.6 1.6.4 3.5.7 4.3.8.8.1 1.8.9 2.2 1.7.5 1.2.7 1.2.7-.2.1-1.5.5-1.5 3.2-.6 1.6.6 3.3.8 3.6.4.4-.3.1-.6-.5-.6s-.9-.7-.5-1.7c.4-.9.2-1.4-.3-1-.5.3-.9-.9-.8-2.6.2-4.5 1.5-9.6 2.5-10.3 1.8-1.1.8-3-2.2-4.1-2.5-1-3.8-.9-6.6.2-1.9.8-3.9 1.3-4.3 1-1.2-.8-2.2 3.1-1.5 5.5.4 1.3.2 2-.6 2-.7 0-.9.3-.6.7 1.2 1.1-2.7 3.2-6.1 3.3-1.8 0-4.2.5-5.3 1-2.3 1.3-2.6-.1-1.5-6.4.5-2.5-.5-4.2-1.8-2.9-1 1-7.4.7-8.8-.4-2.4-1.9-4.1-2.7-3.5-1.6.4.6-.2 1.3-1.4 1.6-1.5.4-1.7.2-1-.6.7-.9.3-1.2-1.4-1.2-1.5 0-2.1.5-1.7 1.4.3.9 0 1.2-.9.9-.8-.3-1.4-.9-1.4-1.5 0-1.3-3.1-4.3-4.6-4.3-.9 0-.8-.4.1-1.5.7-.8.9-1.5.4-1.5s-.2-.5.6-1c1.3-.8 1.2-1-.4-1-1.3 0-1.7-.5-1.3-1.9.3-1.3-.3-2.6-1.9-3.8-1.4-1-1.9-2-1.3-2.4 1.8-1.1-.9-5.1-3-4.4-1.3.4-2-.4-3-3.2l-1.4-3.6-1.3 2.4c-.9 1.6-1.3 1.9-1.4.8 0-.8-1.5-3-3.2-4.9-1.8-1.8-2.7-3-1.9-2.5 1.1.6 1.3.4.8-.9-.4-1-.7-2.1-.7-2.4 0-.4-.4-.1-.9.7-.8 1.2-1.2 1.2-2.5-.2-.9-.8-1.6-2-1.6-2.6 0-.6-.6-1.1-1.2-1.1-.9 0-.8-.3.2-1 1.2-.7.9-1.3-1.4-3.3-1.6-1.4-2.6-2.9-2.2-3.5.3-.5-.1-1.5-.9-2.2-1.6-1.4-2-4.6-.6-5.4.4-.3 1.1-.2 1.5.1 1 1.1 3.6 1.2 3.6.2 0-.5-.5-.9-1-.9-.6 0-.9-.3-.9-.8.3-1.9-.2-2.6-1-1.3-.7 1.1-1.1.9-2-.7-1-1.9-.9-2.1.6-1.6 1 .2.8-.1-.5-.7-1.3-.7-2.1-1.8-1.8-2.6.3-.7.1-1.3-.4-1.3-1.2 0-.1-8.3 1.2-8.8.4-.2.8-.8.8-1.3 0-.6-.4-.8-.8-.5-.4.2-1.3.1-2-.3-.9-.5-.8-1.3.4-3 1.3-1.8 1.8-2 2.5-1 .5.9.9.9.9.3 0-1.7 3.8-2.4 6.6-1.4 1.6.6 2.4.6 2.4-.1 0-.6.6-.6 1.9.1 2.9 1.5 5.1 1.3 4.4-.5-.3-.9-.2-1.5.3-1.3.5.1 1.9-.1 3.2-.6 1.4-.5 3.4-.2 5.4.8 2.6 1.3 3.7 1.4 6.5.4 1.8-.7 3.3-1.9 3.3-2.8 0-1.2.2-1.3.9-.1.6 1 1.1.4 1.6-2 .4-1.9 1.4-4.3 2.1-5.4.8-1.1 1.4-2.9 1.4-4 .1-2.7 2.3-5.5 4.4-5.5.9 0 2.8-.7 4.1-1.6 2.7-1.7 2.8-1.7 9 4.3 1.8 1.8 3.6 2.9 4 2.5.5-.4.5-.2.1.5-.3.6.4 2.3 1.6 3.7 4.6 4.9 5.8 6.6 5.8 8 0 .7.6 1.9 1.4 2.5 1.3 1.1 2.5 4.3 2.5 6.4 0 .4.9 1.9 2.1 3.4 1.1 1.4 2 3.2 2 3.9 0 .8.5 1.4 1 1.4.6 0 1 .4 1 .9s1.3 3.8 2.9 7.3c3.4 7.6 4.1 9.5 4.7 12.7.3 1.4.8 2.9 1.2 3.5.3.6.7 1.5.8 2.1.3 1.7 3.2 7.7 6.4 13.3 1.6 2.9 3 6.4 3 7.7 0 1.4.3 2.5.8 2.5.4 0 .6 2.1.4 4.7-.3 4.6-1.5 8.3-3.6 11.2-2.5 3.3-1.7 9.6 2.2 17.7 2.2 4.3 4.5 9.7 5.2 11.9.7 2.2 1.6 4.4 1.9 5 1 1.4 5.7 14.1 7.2 19.2 1.5 5.2 0 9.4-3.9 11.4-3.7 1.8-6.5 2-5.2.4.8-1 .4-2.1-1.4-4.1-1.4-1.6-2.6-2.4-2.6-1.7 0 .9-.9.9-3.7-.1-2.1-.7-4.9-1-6.3-.6-3.4.8-7 .1-7-1.5 0-.8-.7-2.1-1.6-2.9-.8-.9-1.3-2-.9-2.6.3-.6-.1-.7-.9-.4-1 .4-1.6.1-1.6-.9 0-1.9 2.7-3 3.4-1.4.3.7.5.6.5-.4.1-1.1-.9-1.5-3.3-1.5-2.5 0-3.2.4-2.8 1.4.3.8-.1 2-.9 2.6-.9.6-1.9 2-2.4 3.1-1.4 3.3-1.4 10.5 0 11.8 1.7 1.7 5.4 4.2 6.3 4.3.4 0 1.5.4 2.4.8 1 .5 3.2.3 4.9-.3 5.1-1.8 5.6-1.4 6.2 3.6.3 2.7.8 6.1 1 7.6.3 2-.1 3.2-1.4 4-1.1.7-1.9 1.8-1.9 2.5s-.4 1-1 .7c-1.5-.9-1.2.7.5 3.2.8 1.2 1.3 2.7 1.1 3.5-.2.7-.7 2.5-1 3.9-.5 2.4-4.8 5.5-7.2 5.1-.6-.1-1 .8-.8 2 .1 1.3.3 2.3.4 2.3.8 0 1.3 14.2.7 17.1-.3 1.1-1.2 3.6-1.9 5.5-.8 1.8-1.3 4.1-1 4.9.3.8 3.1 4.5 6.3 8.1 3.2 3.7 5.5 6.9 5.2 7.3-.4.3.5.6 1.8.6 1.9 0 2.1.2.9 1-1 .6-1.1 1-.3 1 .7 0 1.9 1.3 2.7 2.8.8 1.6 2.6 4 4 5.3 1.4 1.3 2.6 2.9 2.6 3.4 0 .6 1.4 2.5 3 4.3 1.7 1.8 3 4 3 4.8 0 .8.7 1.4 1.6 1.4.8 0 1.3.4 1 .9-.3.5.1 1.4.9 2.1.8.7 1.5 1.7 1.5 2.2 0 .5 1.6 2.9 3.5 5.2 1.9 2.4 3.5 4.8 3.5 5.5 0 .6.4 1.1.9 1.1s2 2 3.2 4.5c1.2 2.5 2.6 4.5 3 4.5.3 0 1.2 1.4 1.9 3s1.6 3 2.1 3 .9.7.9 1.5.5 1.5 1 1.5c.6 0 1 .7 1 1.5s.4 1.5.9 1.5 1.3.9 1.6 2c.4 1.1 2.2 3.7 4.1 5.8 1.9 2 3.4 4.3 3.4 4.9 0 .7.5 1.3 1 1.3.6 0 1 .4 1 1 0 .5 1.5 3.1 3.4 5.7 1.8 2.7 3.7 5.8 4 7 .9 2.8-1.1 6.6-2.9 5.9-.8-.3-1.7-.1-2 .4-.4.6 0 1 .7 1 1.1 0 1.1.2 0 .9-1 .6-1 1 .3 2.1.8.7 1.5 2 1.5 2.9 0 .9.7 2.6 1.5 3.8.9 1.2 1.4 2.6 1.3 3-.1.8 1.5 5 3.4 8.7.6 1.2.6 1.6-.1 1.2-.6-.4-.4.9.4 2.9 1.2 2.7 1.2 3.5.3 3.5-1 0-1 .2-.1.8.6.4 1.4 2.4 1.8 4.5.4 2.1 1.4 4.4 2.2 5.2 1.2 1.3 9.8 4.3 14.2 5.1.8.2 1.7.8 2.1 1.4.6.9.9.9 1.3-.1.4-1.1.7-1.2 1.8-.1.7.6 2.3 1.2 3.6 1.2 3.2 0 4.6 3.4 4 9.7-.3 3-1 6-1.4 6.6-.5.7-.8 1.8-.7 2.4.1.7.2 1.7.3 2.3.1.6 7.5 1 20.1 1h20V0H0v260zM240 34c0 .5.7.7 1.5.4 1.4-.6 8.5 6.1 8.5 7.9 0 .5.4.6.9.3 1-.7 3.1 4.6 3.1 8 0 1.2-.7 2.9-1.5 3.7-.8.8-1.2 1.7-.8 2 .3.3-.4.5-1.6.4-1.1-.1-2.1-.5-2.1-1s-.8-.7-1.7-.5c-1 .2-2.9-.9-4.4-2.4-2.8-3-6.2-4.1-3.9-1.3 1 1.2 1 1.5-.4 1.5-.9 0-1.6-.6-1.7-1.3 0-.6-.4-.4-.7.6-.7 1.7-.9 1.6-3-.3-1.2-1.2-2-2.5-1.7-3.1.4-.5.1-.9-.4-.9-2.4 0-.9-1.9 1.9-2.5 1.7-.4 3-1.3 3-2.1s.7-1.4 1.6-1.4c.8 0 1.2-.5.9-1-.3-.6.1-1.3.9-1.6 1.1-.4 1.3-1.1.5-3.1-1.1-3.1-1.1-3.3.1-3.3.6 0 1 .4 1 1zm90 53c0 .5-.7 1-1.5 1s-1.5-.5-1.5-1c0-.6.7-1 1.5-1s1.5.4 1.5 1zm-9.5 16c.3.5.2 1-.4 1-.5 0-1.3-.5-1.6-1-.3-.6-.2-1 .4-1 .5 0 1.3.4 1.6 1zm-30.6 41.4c1 1.2.8 1.3-.8.9-1.2-.3-1.8-.9-1.5-1.4.7-1.2 1-1.1 2.3.5zM337 203c0 .5-.4 1-1 1-.5 0-1-.5-1-1 0-.6.5-1 1-1 .6 0 1 .4 1 1zm-40.3 2.2c-.3.8-.6.5-.6-.6-.1-1.1.2-1.7.5-1.3.3.3.4 1.2.1 1.9zm-53.9.9c.2.5 1 .9 1.8.9.7 0 1.9.9 2.6 2 .7 1.1 1.7 2 2.3 2 1.3.1 4.5 4.5 5 6.9.5 2.8-3.2 3.4-5.6 1-1-1-2.5-1.9-3.1-1.9-.9 0-.8-.4.2-1 1.3-.8 1.2-1-.2-1-1 0-1.8-.5-1.8-1 0-.6-.6-1-1.4-1-.8 0-2.2-.7-3-1.6-.9-.8-2-1.3-2.4-1-.5.3-1.9-.6-3.2-1.9l-2.3-2.5 2.4-.8c2.7-1.1 8.2-.5 8.7.9zm51.3 3.2c-1 .9-1.1.8-.5-.6.3-1 .9-1.5 1.2-1.2.3.3 0 1.1-.7 1.8zm-58.3 14.2c.2 1 0 2-.5 2.4-.4.3-1.4 1.9-2.1 3.5-1.1 2.4-1 3.2.2 5.1.8 1.3 1.2 2.5.9 2.9-.4.3-.8 1.7-.9 3.1-.2 1.9.2 2.5 1.7 2.5 1 0 1.9.6 1.9 1.2 0 .7 1.2 1.4 2.6 1.5 1.5 0 3 .7 3.5 1.5.5.7.9.9.9.4s.9-.1 2 .9c1 .9 2.6 1.5 3.5 1.2.9-.4 1.5-.1 1.5.7 0 .9.7 1.2 1.9.9 2.2-.6 3.9 1.6 2.1 2.7-.8.5-.7.9.4 1.3 2.1.8 2.1 6.5-.1 8.9-1.1 1.2-3 1.8-5.8 1.8-3.6 0-4.8-.6-9.1-4.8-2.7-2.7-6.4-5.7-8.1-6.7-3.3-1.9-4.7-5-4.5-9.6 0-2.2-.3-2.6-2-2.1-1.4.3-1.9.1-1.4-.6.4-.7 1.3-1.2 2.1-1.2 1.1 0 1.3-1.3 1.1-5.5-.1-3 0-5.7.3-6 .2-.3.6-1.4.8-2.5.7-4.8 6.4-7.5 7.1-3.5zm19.2 15.6c0 5.3-.4 5.7-3.2 3.2-2.1-1.9-2.4-6.7-.5-8.7 2-2.3 3.7.2 3.7 5.5zm73.4 24.4c-.4.8-.7 1.5-.9 1.5-.2 0-.5-.7-.9-1.5-.3-.9 0-1.5.9-1.5s1.2.6.9 1.5zm-4.1 18.2c.3.5.1 1.7-.3 2.8-.6 1.7-.7 1.6-1.2-.8-.5-2.5.5-3.7 1.5-2zm-2.3 2.4c0 .5-.4.9-1 .9-.5 0-1-.7-1-1.6 0-.8.5-1.2 1-.9.6.3 1 1 1 1.6zm0 4.3c0 .3-.4.8-1 1.1-.5.3-1 .1-1-.4 0-.6.5-1.1 1-1.1.6 0 1 .2 1 .4zm-18.3 10.2c.3.8 0 2.1-.7 2.7-1 .9-1.1.9-.6-.1.4-.7.2-1.9-.4-2.7-.9-1.1-.9-1.5-.1-1.5.6 0 1.4.7 1.8 1.6zm33.1 1.9c-.3.3-.9-.2-1.2-1.2-.6-1.4-.5-1.5.5-.6.7.7 1 1.5.7 1.8zm-26.8-.6c0 3.5-1.5 7.1-2.9 7.1-1.3 0-1.3-.2-.2-.9.8-.5 1.4-2.3 1.5-4 0-1.7.4-3.1.9-3.1.4 0 .7.4.7.9zm-3 2.1c0 .5-.4 1-1 1-.5 0-1-.5-1-1 0-.6.5-1 1-1 .6 0 1 .4 1 1zm1.5 47.1c-.4 2.3-.8 7.3-1 11.3-.5 13.4-2.6 26.9-4.8 31.3-1.2 2.3-4.2 8.1-6.7 13-4.6 9-8 14.5-10.6 17.3-.8.8-3.2 3.4-5.3 5.7-2.1 2.3-4.1 4-4.5 3.6-.3-.3-.6-.2-.6.4 0 .5-.6 1-1.2 1.1-.7 0-3.1.4-5.4.8-5.4.8-17-2.5-24.3-7-3.1-1.9-8.8-5.1-12.7-7.1-3.9-2-9.3-5.7-12-8.1-2.7-2.5-5.9-4.9-7.2-5.4-1.3-.6-2-1.5-1.7-2 .4-.6 1.1-.8 1.6-.5.5.4.9.1.9-.4 0-.6 1.2-1.1 2.8-1.1 2.1 0 2.4.2 1.2 1-1.1.7-.7 1 1.8 1 2 0 3.1.4 2.7 1-.3.5-.1 1 .4 1 .6 0 1.1-.5 1.1-1.1 0-.6.9-.8 2.1-.4 1.2.4 2.9.9 3.8 1 .9.2 1.8.4 2.1.5.3.1.8.2 1.3.1.4 0 .7.8.7 2 0 1.1.4 1.8.9 1.5.5-.3 1.4.8 2.1 2.4.7 1.6 1.6 2.7 2.1 2.4.5-.3.9.2.9 1.1 0 1 .6 1.5 1.3 1.2.7-.3 1.9.4 2.5 1.4.7 1 2.1 1.9 3.3 1.9 1.1 0 1.7-.5 1.4-1-.3-.6.2-1 1.3-1 1.5 0 1.8-.6 1.4-3-.3-2.2-.1-3 .9-2.8.8.2 1.6-1.3 2.1-3.9.5-2.4 1.4-4.2 2.1-4 .8.1 1.1-1.2.9-4.4-.2-2.6.1-5 .7-5.4.7-.4 1.1.3 1.1 1.6 0 2.1 1.3 1.9 1.6-.2.1-.5.2-1.3.3-1.8 0-.4 1.2-.6 2.5-.4 2.5.5 4.4-1.1 2.6-2.2-.5-.3-1-.1-1 .4 0 .6-1.1 1-2.5.9-2.9-.3-3.2-1.3-.9-2.6 2-1.1 1-5.2-1.2-5.2-.8 0-1.4-.5-1.4-1 0-.6.4-1 .9-1s1.2-1.1 1.5-2.5c.7-2.7 2.6-3.4 2.6-1 0 .8.8 1.5 1.8 1.5 1.1.1.6.6-1.3 1.5-2.4 1.1-2.6 1.4-1 1.5 1.2.1 1.5.4.7.7-.9.3-.2 1.3 1.9 2.9 2.5 1.8 3.6 2.1 4.6 1.3 1.7-1.5 1.8 1.1.1 3.1-.7.8-.2.5 1.2-.6s3.5-1.9 4.8-1.8c1.6.1 2.1-.3 1.8-1.2-.3-.8.1-1.4.9-1.4 1 0 1.5-1 1.4-2.8 0-2.4-.1-2.5-.9-.7-.8 1.9-.9 1.9-.9-.3-.1-1.2.4-2.2 1-2.2.8 0 .8-.4-.1-1.5-1.2-1.4-.6-3.5 1-3.5.5 0 .7.8.4 1.7-.5 1.5-.4 1.6.5.3.6-.8 1.1-2.2 1.1-3.1 0-1.8 4-4.9 8.7-6.8 1.8-.7 3-1.7 2.7-2.2-.3-.5.2-.9 1-.9 3.3 0 10.6-9.8 10.6-14.2 0-.9.8-2.2 1.8-2.7.9-.6 1.3-1.1.9-1.1-.5 0-.5-.5-.2-1 1.3-2.1 1.7-.9 1 3.1zm50.9 10.5c.9.3 1.6 1.6 1.5 2.8 0 1.4-.2 1.6-.6.6-.3-.8-1.2-2.1-2.1-2.8-1.7-1.3-1.3-1.5 1.2-.6zm-96.7 8c-.3.3-1.2.4-1.9.1-.8-.3-.5-.6.6-.6 1.1-.1 1.7.2 1.3.5zm-.7 8.5c0 .7-2.5 1.9-4.1 1.9-.5 0-.4-.6.3-1.3 1.3-1.5 3.8-1.9 3.8-.6zm13.7 10.1c-.3.8-.6.5-.6-.6-.1-1.1.2-1.7.5-1.3.3.3.4 1.2.1 1.9zM212 400.5c-.7.8-1.7 1.5-2.3 1.5-.6 0-.2-.7.9-1.5 2.5-1.9 3-1.9 1.4 0zM393 431c0 .5-.5 1-1.1 1-.5 0-.7-.5-.4-1 .3-.6.8-1 1.1-1 .2 0 .4.4.4 1zm-181.6 2.5c-.4.8-1.1 1.2-1.6.9-.6-.4-.5-1 .3-1.5 1.9-1.2 1.9-1.1 1.3.6zm1.5 3.7c-.2 1.8.5 5 1.5 7.1.9 2.1 1.4 4.2 1.1 4.6-.3.5.2 1.2 1.1 1.5.9.3 1.4 1.3 1 2.1-.3.8-.1 1.7.4 2 1.6 1 1.1 2.8-.5 2.1-.8-.3-1.4-.2-1.4.2.5 2.9-2.4 5.2-3.7 3-.4-.6-.3-.8.4-.4.6.3 1.3.2 1.6-.3.3-.5-.1-1.2-1-1.5-1.3-.5-1.4-.9-.4-2.2 1.1-1.2 1.1-1.7 0-2.7-1-.9-1.1-.9-.6 0 .4.8.1 1.3-.7 1.3-1.1 0-1.4-1-1.3-3.8.1-2.1-.4-4.1-1.2-4.7-1-.9-.9-1.1.7-1.2 1.2-.1 2.1.3 2.1.9 0 .6.2.9.5.6 1.2-1.2-.7-3.4-3.2-3.6-3.4-.3-4.3-1.2-1.2-1.2 1.9 0 2.1-.2.9-1-1-.6-1.1-1-.2-1 .6 0 1.2-.4 1.2-1 0-.5-.7-.7-1.5-.4-.8.4-1.5.1-1.5-.6 0-.8.9-1.1 2.5-.8 1.7.4 2.5.1 2.5-.8 0-.8.2-1.4.5-1.4s.5 1.5.4 3.2zm183.1 2.4c0 1.4-.3 1.4-1.5.4-.8-.7-1.5-1.4-1.5-1.6 0-.2.7-.4 1.5-.4s1.5.7 1.5 1.6zm-176.5 21.8c0 3.3-.1 3.4-1.9 1.8-1.8-1.6-1.9-1.6-1.2.2.6 1.6.4 1.7-.9.6-1.5-1.2-1.5-1.4-.1-2.2.9-.5 1.6-1.6 1.6-2.3 0-.8.6-1.5 1.3-1.5.7 0 1.2 1.4 1.2 3.4zm-.1 6.7c-.3.5-1 .7-1.5.3-.5-.3-.7-1-.3-1.5.3-.5 1-.7 1.5-.3.5.3.7 1 .3 1.5zM198 506.4c0 .8-.7 1.6-1.5 2-1.3.4-1.4.2-.5-1.4 1.3-2.3 2-2.6 2-.6zm3.1 2.2c-.5 1.6-1 2.1-1 1.2-.1-1.8 1-5.1 1.5-4.5.2.1-.1 1.6-.5 3.3z"/><path d="M238.5 250c-.3.5.1 1 1 1s1.3-.5 1-1c-.3-.6-.8-1-1-1-.2 0-.7.4-1 1zM292 149.5c0 .9.6 1.2 1.5.9.8-.4 1.2-1 .9-1.5-.8-1.4-2.4-1-2.4.6zM300 207.6c0 .8.5 1.2 1 .9.6-.4.8-1.1.5-1.6-.9-1.4-1.5-1.1-1.5.7zM374 221.1c0 .5.5.7 1 .4.6-.3 1-.8 1-1.1 0-.2-.4-.4-1-.4-.5 0-1 .5-1 1.1zM302.8 221.7c.7.3 1.6.2 1.9-.1.4-.3-.2-.6-1.3-.5-1.1 0-1.4.3-.6.6zM312 232.9c0 .5.5 1.3 1 1.6.6.3 1 .2 1-.4 0-.5-.4-1.3-1-1.6-.5-.3-1-.2-1 .4zM376.5 247c-1.6.7-1.7.9-.3.9.9.1 2-.4 2.3-.9.7-1.1.7-1.1-2 0zM331 285.9c0 .6.4 1.3 1 1.6.6.3.7-.1.4-.9-.7-1.8-1.4-2.1-1.4-.7zM375.9 288.4c-.2.2-2 .5-3.9.7-1.9.2-3.9.5-4.5.8-.5.3-1.6.6-2.4.8-.7.1-1.9.7-2.5 1.3-.8.9-.5 1 1.4.5 1.4-.5 4.4-.9 6.7-1 4.5-.3 8.1-1.9 6.6-2.8-.6-.4-1.2-.5-1.4-.3zM333.5 291c-.3.5-.1 1 .4 1 .6 0 1.1-.5 1.1-1 0-.6-.2-1-.4-1-.3 0-.8.4-1.1 1zM361.6 301.8c-.3.5.1.9.9.9s1.2-.4.9-.9c-.3-.4-.7-.8-.9-.8-.2 0-.6.4-.9.8zM365 304.6c0 1.1.5 1.4 1.6 1 .9-.3 2-.6 2.5-.6s.9-.5.9-1c0-.6-1.1-1-2.5-1-1.6 0-2.5.6-2.5 1.6zM332 319c0 .5.7 1 1.6 1 .8 0 1.2-.5.9-1-.3-.6-1-1-1.6-1-.5 0-.9.4-.9 1zM379.7 402.1c.7.7 1.5 1 1.8.7.3-.3-.2-.9-1.2-1.2-1.4-.6-1.5-.5-.6.5zM389.5 427c-.3.5-.2 1 .4 1 .5 0 1.3-.5 1.6-1 .3-.6.2-1-.4-1-.5 0-1.3.4-1.6 1zM397 430.1c0 .5.5.7 1 .4.6-.3 1-.8 1-1.1 0-.2-.4-.4-1-.4-.5 0-1 .5-1 1.1zM436.3 456.5c0 .8.4 1.2.9.9.5-.3.6-1 .3-1.5-.9-1.3-1.2-1.1-1.2.6zM437.6 458.9c-.4.6-.1 4.2.8 7.9.8 3.7 1.8 9.6 2.1 13.2.9 8.8 1.2 9.5 3 8 1.2-1 1.4-2.7 1-7.7-1-11.9-5-24.5-6.9-21.4zM206.1 509.6c-.7.8-1 1.8-.7 2.1.7.7 3.6-1.6 3.6-2.8 0-1.3-1.3-1-2.9.7zM202 514.7c0 1.5.2 1.6 1 .3.8-1.2 1-1 1 .8 0 1.3.4 2.1.9 1.8 1.5-.9.6-4.1-1.2-4.4-1.1-.2-1.7.3-1.7 1.5zM212.5 514.1c-1.1 1.6-.1 1.9 1.3.3.7-.8.8-1.4.3-1.4s-1.3.5-1.6 1.1z"/></svg>