<?xml version="1.0" standalone="no"?>
<!DOCTYPE svg PUBLIC "-//W3C//DTD SVG 20010904//EN"
 "http://www.w3.org/TR/2001/REC-SVG-20010904/DTD/svg10.dtd">
<svg version="1.0" xmlns="http://www.w3.org/2000/svg"
 width="1024.000000pt" height="1024.000000pt" viewBox="0 0 1024.000000 1024.000000"
 preserveAspectRatio="xMidYMid meet">
<metadata>
Created by potrace 1.14, written by Peter Selinger 2001-2017
</metadata>
<g transform="translate(0.000000,1024.000000) scale(0.100000,-0.100000)"
fill="#000000" stroke="none">
<path d="M3055 9230 c-388 -14 -648 -49 -850 -115 -342 -112 -668 -367 -887
-694 -186 -279 -251 -490 -295 -955 -14 -148 -17 -434 -20 -2126 -5 -2230 0
-2501 53 -2845 41 -269 136 -505 292 -725 83 -117 278 -317 392 -400 309 -227
565 -310 1081 -352 235 -19 4358 -19 4594 0 523 42 773 123 1086 353 107 78
307 280 382 386 218 306 292 539 339 1063 15 178 23 3933 9 4330 -16 426 -42
639 -102 844 -105 355 -369 701 -708 928 -288 192 -512 258 -1016 300 -166 13
-3982 20 -4350 8z m4155 -2213 c176 -60 326 -186 398 -337 76 -158 72 -81 72
-1560 0 -1479 3 -1405 -72 -1560 -58 -119 -168 -230 -288 -289 -157 -77 4 -72
-2233 -69 -1916 3 -2004 4 -2057 21 -213 72 -375 234 -446 447 -18 52 -19 125
-22 1417 -3 1523 -6 1439 69 1591 67 137 197 260 330 313 126 50 38 48 2184
46 1925 -2 2012 -3 2065 -20z"/>
</g>
</svg>
