<?xml version="1.0" standalone="no"?>
<!DOCTYPE svg PUBLIC "-//W3C//DTD SVG 20010904//EN"
 "http://www.w3.org/TR/2001/REC-SVG-20010904/DTD/svg10.dtd">
<svg version="1.0" xmlns="http://www.w3.org/2000/svg"
 width="1024.000000pt" height="1024.000000pt" viewBox="0 0 1024.000000 1024.000000"
 preserveAspectRatio="xMidYMid meet">
<metadata>
Created by potrace 1.14, written by Peter Selinger 2001-2017
</metadata>
<g transform="translate(0.000000,1024.000000) scale(0.100000,-0.100000)"
fill="#000000" stroke="none">
<path d="M1970 9150 c-13 -9 -13 -10 0 -11 8 0 1 -6 -17 -12 -18 -7 -77 -49
-132 -95 -112 -93 -321 -290 -321 -303 0 -4 10 -6 23 -3 12 3 76 7 142 9 66 3
136 6 155 9 19 3 63 6 97 8 35 2 63 5 63 8 0 3 26 5 58 6 31 1 89 5 127 9 39
5 82 9 98 9 15 1 27 4 27 7 0 3 34 5 76 5 42 -1 78 2 81 7 2 4 8 5 13 2 5 -3
12 -1 15 5 5 8 12 7 23 -2 12 -10 14 -10 8 0 -6 11 5 17 27 13 4 0 7 4 7 10 0
5 5 7 10 4 6 -4 18 -1 26 6 9 7 23 14 32 15 45 7 60 16 64 38 4 22 3 23 -25
15 -17 -5 -33 -6 -36 -4 -2 3 0 5 5 5 5 0 10 12 11 28 1 15 -1 21 -4 15 -2 -7
-9 -13 -14 -13 -6 0 -8 4 -5 8 2 4 -3 9 -12 10 -9 1 -26 3 -37 6 -11 2 -25 -1
-32 -6 -13 -10 -33 -3 -33 13 0 5 8 9 18 9 10 1 6 6 -13 14 -16 7 -34 11 -39
8 -5 -3 -6 0 -2 7 4 6 1 18 -8 26 -18 18 -30 20 -19 3 15 -25 11 -38 -12 -36
-16 2 -22 7 -20 20 2 10 0 18 -6 18 -5 0 -9 -7 -9 -16 0 -8 -4 -13 -10 -9 -5
3 -7 12 -4 19 6 15 -22 30 -37 20 -6 -3 -16 -1 -23 5 -8 7 -20 10 -27 9 -9 -2
-13 4 -11 15 2 9 -2 17 -8 17 -5 0 -11 -12 -11 -27 -1 -20 -3 -22 -6 -9 -4 15
-7 16 -14 5 -7 -11 -9 -11 -9 3 0 9 -5 20 -12 24 -7 5 -9 2 -5 -9 3 -9 -1 -18
-9 -21 -24 -9 -27 -7 -14 9 10 12 10 21 2 40 -13 28 -15 29 -59 16 -20 -6 -35
-6 -39 0 -3 5 -10 7 -15 4 -5 -4 -9 1 -9 9 0 21 -34 21 -51 0 -12 -14 -14 -14
-19 0 -3 11 -9 13 -20 6z m191 -29 c7 11 9 10 9 -5 0 -12 -5 -16 -16 -12 -9 3
-18 6 -20 6 -3 0 -2 5 2 12 6 9 9 9 12 -1 4 -11 6 -11 13 0z m424 -181 c-3 -5
-10 -10 -16 -10 -5 0 -9 5 -9 10 0 6 7 10 16 10 8 0 12 -4 9 -10z"/>
<path d="M4765 9025 c-43 -17 -97 -63 -89 -77 3 -4 0 -33 -6 -63 -17 -80 -42
-102 -127 -108 -117 -8 -189 -28 -210 -57 -9 -12 -34 -19 -85 -23 -94 -8 -135
-20 -189 -57 -41 -27 -48 -29 -119 -23 -94 7 -174 -14 -215 -57 -16 -16 -49
-36 -75 -45 -50 -17 -107 -66 -96 -84 10 -16 43 -13 50 4 3 9 19 15 41 15 19
0 35 -2 35 -4 0 -2 -7 -20 -15 -40 -11 -26 -27 -43 -53 -54 -45 -21 -91 -64
-121 -115 -13 -20 -31 -43 -42 -50 -24 -17 -66 -111 -84 -191 -11 -47 -22 -67
-46 -87 l-32 -26 33 5 c29 4 32 2 26 -13 -3 -10 -1 -24 6 -32 9 -12 6 -19 -18
-38 -16 -14 -37 -27 -46 -30 -10 -4 -18 -11 -18 -16 0 -6 4 -8 8 -5 4 2 14 1
22 -4 11 -7 11 -13 0 -39 -17 -42 -50 -43 -50 -1 0 49 -31 33 -44 -22 -7 -30
-23 -37 -32 -13 -12 29 -25 2 -19 -36 6 -35 3 -44 -24 -74 -17 -20 -31 -41
-31 -47 0 -6 -11 -25 -24 -43 -21 -28 -23 -37 -15 -71 6 -26 5 -48 -2 -66 -7
-17 -8 -42 -3 -65 4 -21 8 -41 8 -45 1 -3 -22 -30 -49 -60 -124 -132 -147
-207 -98 -331 13 -33 13 -40 0 -60 -8 -12 -26 -54 -40 -93 -21 -60 -24 -76
-15 -114 23 -107 23 -109 -13 -146 -42 -43 -44 -59 -11 -84 24 -19 26 -27 27
-108 1 -78 -1 -92 -27 -139 -31 -55 -30 -41 -14 -269 1 -22 6 -46 10 -52 4 -7
2 -12 -4 -12 -6 0 -8 -4 -5 -10 3 -5 1 -10 -4 -10 -6 0 -11 4 -11 8 0 5 -7 9
-15 9 -8 0 -15 -4 -15 -9 0 -4 -7 -8 -16 -8 -14 0 -15 2 -3 17 12 15 12 16 -3
10 -9 -3 -19 -1 -21 6 -3 7 -9 1 -15 -13 -8 -19 -11 -20 -11 -7 -1 10 -5 16
-11 12 -5 -3 -7 -13 -4 -23 4 -12 3 -13 -3 -4 -6 8 -24 10 -55 7 -38 -5 -47
-3 -53 12 -6 16 -8 16 -16 -4 -8 -21 -39 -33 -39 -15 0 10 -51 9 -66 -1 -7 -4
-15 0 -18 9 -5 14 -7 14 -22 0 -14 -14 -18 -14 -38 -1 -22 15 -23 14 -21 -9 3
-23 1 -24 -48 -21 -29 1 -56 3 -62 5 -5 1 -12 2 -15 0 -21 -8 -50 -8 -50 -1 0
6 -12 6 -30 1 -21 -6 -30 -5 -30 3 0 7 -4 7 -9 -2 -12 -18 -54 -23 -47 -5 3 7
-1 15 -9 18 -7 2 -16 -2 -19 -10 -6 -16 -26 -19 -26 -3 0 5 5 7 12 3 7 -4 8
-3 4 5 -5 8 -12 9 -20 2 -7 -6 -23 -7 -36 -4 -15 4 -21 2 -17 -4 4 -6 0 -13
-8 -17 -8 -3 -17 0 -21 6 -4 7 -3 8 4 4 7 -4 12 -2 12 3 0 18 -28 12 -33 -6
-4 -17 -5 -17 -6 -1 -1 12 -6 15 -17 11 -9 -3 -11 -8 -6 -12 6 -3 -10 -6 -34
-6 -31 0 -43 4 -40 12 8 19 -12 26 -22 8 -8 -16 -42 -11 -42 5 0 13 -31 5 -41
-11 -7 -11 -9 -11 -9 4 0 9 -3 17 -7 18 -5 0 -16 2 -25 4 -11 2 -18 -3 -18
-13 -1 -15 -2 -15 -15 2 -7 10 -19 16 -26 14 -8 -3 -6 -9 5 -21 10 -9 15 -17
11 -17 -12 0 -70 33 -77 44 -5 7 -8 4 -8 -8 0 -14 -6 -17 -25 -14 -13 3 -26 0
-28 -6 -3 -7 -16 -2 -36 12 -30 22 -31 22 -31 2 0 -25 -15 -26 -25 -3 -6 16
-8 15 -26 -7 -11 -14 -19 -20 -18 -15 4 29 -2 36 -23 29 -13 -3 -30 -13 -39
-20 -23 -20 -34 -17 -13 4 16 16 16 17 1 20 -9 2 -17 9 -17 15 0 7 -4 6 -10
-3 -6 -9 -5 -17 3 -23 7 -5 1 -5 -13 -1 -14 3 -29 13 -33 20 -10 18 -31 18
-24 1 3 -8 -1 -14 -8 -14 -8 0 -11 7 -7 16 3 10 -5 7 -23 -9 -26 -23 -27 -24
-16 -3 8 16 8 24 -1 29 -7 4 -8 3 -4 -4 4 -8 -4 -16 -21 -23 -15 -5 -31 -16
-36 -22 -6 -8 -7 -6 -4 5 3 9 -1 22 -9 28 -8 7 -14 9 -14 4 0 -5 -5 -2 -10 6
-5 8 -10 10 -10 5 0 -6 -9 -11 -20 -11 -11 0 -20 4 -20 8 0 4 5 8 12 8 6 0 8
3 4 8 -4 4 -18 -6 -31 -22 -22 -27 -26 -29 -50 -18 -14 7 -23 17 -20 22 3 6 1
10 -4 10 -6 0 -11 -4 -11 -9 0 -5 -11 -11 -25 -13 -14 -3 -25 -2 -25 2 0 4
-11 10 -25 12 -16 4 -25 1 -25 -8 0 -7 -5 -16 -12 -20 -7 -4 -8 -3 -4 4 4 7 2
12 -4 12 -7 0 -9 9 -6 23 3 12 3 16 0 9 -3 -6 -11 -9 -17 -5 -6 4 -8 0 -4 -10
3 -10 3 -17 -1 -17 -11 0 -34 17 -33 24 3 20 0 26 -10 20 -8 -5 -8 -8 0 -13 8
-5 6 -13 -5 -27 -13 -16 -15 -16 -10 -2 3 10 1 20 -3 23 -11 6 -33 -20 -24
-28 3 -4 -1 -7 -10 -7 -10 0 -14 6 -11 14 3 8 1 17 -5 21 -10 5 -15 -7 -12
-27 0 -4 -6 -5 -13 -2 -9 3 -13 15 -10 30 2 13 0 24 -6 24 -6 0 -9 -4 -5 -9 3
-5 1 -12 -5 -16 -6 -4 -8 -10 -6 -14 3 -4 0 -13 -6 -21 -8 -12 -9 -12 -4 3 4
13 0 17 -19 17 -14 0 -25 -4 -25 -10 0 -5 -5 -10 -11 -10 -5 0 -7 5 -4 10 3 6
1 10 -4 10 -6 0 -10 5 -8 11 1 6 -5 14 -13 16 -12 3 -12 2 -2 -5 10 -7 10 -11
-2 -21 -8 -7 -21 -9 -28 -5 -10 6 -11 5 -1 -7 10 -12 9 -15 -6 -16 -15 -1 -17
3 -13 20 5 20 4 21 -12 7 -24 -19 -46 -22 -39 -4 4 10 0 12 -11 8 -10 -4 -16
-1 -16 7 0 7 -3 9 -6 6 -4 -4 -2 -13 5 -21 9 -11 7 -15 -11 -19 -12 -4 -24 -4
-27 -2 -2 3 1 5 7 5 7 0 12 5 12 11 0 5 -5 7 -11 3 -6 -3 -16 0 -21 7 -7 10
-8 7 -4 -10 4 -18 2 -21 -7 -12 -16 16 -27 14 -21 -4 5 -13 3 -13 -22 0 -24
13 -29 13 -32 1 -2 -9 -11 -12 -25 -9 -16 3 -18 2 -9 -5 11 -7 11 -10 -2 -15
-10 -4 -16 -1 -16 8 0 19 -17 19 -36 0 -17 -16 -39 -21 -30 -6 3 5 -1 12 -10
15 -13 5 -15 2 -11 -13 3 -14 1 -18 -9 -14 -8 3 -15 -4 -18 -19 -8 -33 -24
-229 -32 -385 -6 -117 -5 -133 9 -133 8 0 17 -5 19 -11 2 -5 10 -11 18 -12 8
-2 26 -10 40 -19 14 -9 36 -18 50 -20 14 -2 28 -7 32 -13 4 -5 11 -10 15 -11
8 0 42 -15 90 -36 11 -6 26 -7 32 -4 6 4 11 3 11 -2 0 -6 16 -13 35 -16 20 -4
33 -11 30 -17 -5 -8 29 -13 73 -12 6 1 12 -5 12 -13 0 -8 6 -11 17 -7 11 4 14
3 9 -5 -5 -8 -2 -10 9 -6 8 4 21 2 28 -4 6 -5 30 -12 52 -15 22 -4 63 -13 91
-22 29 -8 65 -17 80 -19 26 -4 66 -15 114 -33 8 -3 24 -8 35 -10 11 -2 27 -6
35 -9 8 -4 26 -8 40 -10 14 -2 43 -12 65 -23 29 -14 42 -16 47 -8 6 9 8 8 8
-1 0 -8 6 -12 13 -9 6 2 24 -2 38 -9 14 -7 34 -11 45 -10 10 2 26 -1 34 -5 24
-12 53 -21 80 -24 32 -4 52 -9 66 -17 6 -4 29 -8 52 -9 23 -2 42 -6 42 -10 0
-6 13 -8 107 -11 20 0 30 -5 26 -11 -4 -6 0 -8 10 -4 9 3 19 2 21 -2 3 -4 28
-11 55 -14 27 -3 58 -10 68 -15 42 -21 83 -30 83 -19 0 9 2 9 8 0 4 -6 25 -14
47 -18 22 -4 48 -12 58 -17 12 -6 17 -5 17 4 1 9 4 9 13 -2 7 -9 28 -16 50
-15 22 0 41 -3 44 -8 2 -4 8 -5 13 -2 5 3 19 1 30 -5 11 -6 20 -7 20 -2 0 5
21 5 50 -1 28 -5 50 -12 50 -16 0 -3 17 -6 38 -6 20 0 45 -3 54 -7 10 -5 18
-3 21 5 4 9 6 9 6 0 1 -8 16 -13 41 -13 24 0 40 -5 40 -12 0 -9 3 -9 11 -1 7
7 20 8 33 3 11 -4 32 -7 46 -6 14 1 31 -5 37 -14 11 -13 14 -13 23 0 7 11 10
11 10 2 0 -8 12 -12 33 -10 18 1 39 -2 46 -7 10 -6 12 -4 6 4 -6 10 -3 11 13
2 12 -6 25 -10 29 -9 4 1 19 -4 33 -11 16 -10 25 -10 28 -3 2 8 11 8 29 1 13
-5 29 -6 35 -3 6 4 8 3 5 -3 -6 -10 30 -15 128 -17 28 0 54 -7 58 -13 4 -7 13
-13 20 -13 7 0 6 4 -3 10 -11 7 -7 10 17 10 17 0 34 -6 36 -12 4 -10 6 -10 6
0 1 6 10 12 22 12 11 0 18 -3 16 -7 -3 -5 14 -9 36 -11 68 -4 129 -12 138 -18
5 -3 9 0 9 6 0 6 7 4 16 -5 10 -9 20 -12 23 -7 9 13 54 7 59 -8 3 -7 12 -20
21 -30 9 -9 17 -21 18 -27 1 -6 25 -58 53 -116 27 -58 50 -110 50 -114 0 -5 9
-28 20 -51 11 -22 20 -47 20 -55 0 -7 6 -19 12 -25 12 -12 19 -67 32 -242 2
-30 12 -77 21 -103 10 -29 14 -60 10 -77 -4 -16 -3 -35 1 -42 12 -18 15 -35
20 -100 l5 -58 -36 0 c-46 0 -81 -24 -104 -69 -18 -35 -24 -64 -36 -166 -7
-63 -23 -115 -42 -137 -8 -9 -16 -23 -17 -32 -3 -18 -40 -56 -56 -56 -6 0 -4
10 5 24 15 23 15 25 -4 36 -16 8 -21 8 -21 -2 -1 -7 -7 0 -14 17 -12 28 -13
28 -23 10 -9 -16 -14 -17 -27 -6 -8 7 -21 11 -28 8 -7 -2 -22 3 -32 12 -18 15
-18 15 -6 -9 12 -23 12 -24 -3 -11 -10 7 -17 10 -17 5 0 -5 -4 -4 -8 2 -9 14
-52 28 -52 17 0 -4 -12 -9 -28 -9 -15 -1 -21 1 -14 3 19 7 14 20 -9 26 -12 3
-22 0 -26 -8 -4 -12 -8 -12 -27 1 -23 14 -44 14 -79 -1 -10 -4 -30 -2 -44 4
-20 9 -28 9 -34 0 -5 -8 -12 -6 -25 9 -10 12 -22 19 -26 16 -13 -8 -108 -10
-108 -3 0 14 -41 17 -46 4 -7 -16 -44 -7 -44 11 0 8 -4 14 -10 14 -5 0 -9 -3
-9 -7 3 -21 -4 -22 -32 -7 -18 9 -34 12 -38 7 -3 -4 -20 -9 -37 -10 -44 -3
-58 -7 -67 -18 -6 -6 -10 -6 -14 3 -2 6 -15 12 -28 12 -13 0 -27 4 -30 10 -4
6 -15 2 -27 -10 -15 -14 -25 -17 -34 -9 -8 7 -17 5 -28 -6 -12 -13 -16 -13
-16 -3 0 8 12 19 28 24 26 10 26 10 4 16 -14 4 -20 2 -15 -5 4 -6 0 -8 -10 -4
-10 4 -16 2 -14 -6 1 -7 -10 -12 -27 -12 -20 -1 -31 -7 -36 -20 -6 -17 -8 -16
-14 9 -5 19 -10 25 -19 19 -13 -10 -19 -10 -54 2 -25 8 -30 21 -10 28 8 4 7 6
-4 6 -8 1 -21 -5 -27 -11 -8 -8 -15 -9 -20 -3 -4 6 -13 11 -20 13 -10 2 -10
-2 0 -18 11 -17 10 -22 -7 -37 -18 -17 -18 -17 -5 0 10 14 10 21 2 29 -9 9
-12 9 -12 -1 0 -10 -6 -9 -25 3 -23 15 -25 15 -35 -4 -6 -11 -20 -20 -31 -20
-11 0 -18 4 -15 9 3 5 -7 14 -23 19 -17 6 -32 7 -34 4 -2 -4 -2 -2 -1 5 2 6
-5 17 -14 25 -8 7 -13 8 -9 2 3 -6 -5 -16 -19 -23 -15 -6 -23 -7 -19 -1 13 21
-47 9 -70 -15 -14 -13 -25 -20 -25 -14 0 6 -4 8 -9 5 -5 -4 -11 -1 -13 6 -3 8
-12 9 -37 0 -30 -11 -32 -10 -26 10 5 14 3 18 -4 14 -6 -4 -12 -22 -12 -39 -1
-18 -3 -24 -6 -15 -2 10 -10 18 -16 18 -7 0 -6 4 3 10 8 5 12 12 8 15 -8 9
-48 -13 -48 -26 0 -5 -6 -4 -14 3 -11 11 -11 14 2 24 9 6 11 13 5 17 -5 3 -21
-5 -36 -19 -15 -14 -27 -20 -27 -14 0 18 -20 10 -29 -12 -7 -20 -8 -20 -15 -2
-4 11 -2 22 7 29 15 11 12 35 -5 35 -6 0 -8 -7 -4 -15 3 -8 1 -15 -4 -15 -6 0
-10 -7 -10 -15 0 -8 -7 -15 -16 -15 -10 0 -14 6 -10 15 3 8 3 15 0 15 -8 0
-30 -24 -37 -40 -4 -12 -6 -11 -6 3 -1 11 -6 15 -12 11 -6 -3 -3 5 6 20 10 15
13 26 6 26 -6 0 -11 -5 -11 -11 0 -6 -9 -8 -21 -4 -14 5 -19 3 -15 -3 3 -6 2
-13 -4 -17 -5 -3 -10 -17 -10 -31 0 -15 -4 -23 -10 -19 -6 4 -8 10 -5 15 7 12
-5 40 -17 40 -6 0 -6 -6 1 -14 9 -11 9 -16 0 -22 -7 -4 -9 -3 -5 4 3 6 2 13
-4 17 -5 3 -11 16 -11 28 -1 19 -2 19 -6 3 -4 -14 -7 -16 -13 -6 -4 7 -13 9
-19 6 -18 -11 -13 -21 17 -34 l27 -12 -32 5 c-35 5 -41 -3 -21 -23 9 -9 5 -9
-15 0 -14 7 -22 15 -17 16 22 8 8 22 -21 22 -24 0 -29 3 -21 13 8 9 4 12 -14
13 -15 1 -21 -2 -17 -9 4 -6 0 -8 -10 -4 -10 3 -17 2 -17 -3 0 -5 -12 -13 -26
-16 -19 -5 -23 -9 -14 -18 8 -8 13 -8 18 0 4 6 15 11 25 11 15 0 17 -6 11 -31
-3 -17 -11 -35 -16 -41 -7 -7 -8 -2 -3 14 6 19 4 23 -8 18 -9 -3 -18 -1 -21 6
-3 9 -5 9 -5 0 -1 -7 -7 -13 -15 -13 -8 0 -16 -5 -18 -12 -3 -7 -7 -6 -11 5
-3 9 -2 17 3 17 6 0 10 5 10 10 0 6 -9 10 -21 10 -12 0 -17 4 -14 11 4 6 13 8
21 5 7 -3 16 0 20 6 4 6 3 8 -4 4 -6 -3 -13 -2 -17 4 -3 6 4 10 16 10 12 0 19
3 15 7 -16 16 -37 9 -57 -18 -21 -30 -22 -30 24 -80 11 -13 13 -19 5 -19 -9 0
-8 -4 2 -10 8 -5 11 -10 6 -10 -5 0 -3 -7 4 -15 11 -13 8 -14 -21 -8 -19 3
-38 11 -42 17 -6 7 -7 4 -3 -7 5 -14 1 -18 -17 -15 -13 2 -21 -2 -19 -9 3 -16
-15 -17 -20 -1 -5 14 -28 2 -28 -15 0 -7 4 -6 11 3 8 12 9 9 5 -11 -4 -18 0
-31 10 -40 13 -11 14 -9 8 16 -5 21 -4 26 7 23 8 -3 13 -12 11 -22 -2 -9 4
-16 13 -16 9 0 13 5 10 10 -3 6 -2 10 4 10 5 0 12 -4 16 -9 6 -11 -11 -24 -35
-27 -8 -1 -25 -5 -38 -8 -14 -3 -22 0 -22 8 0 6 -11 12 -25 12 -14 0 -25 -4
-25 -8 0 -5 8 -8 18 -6 12 2 16 -3 14 -17 -2 -15 0 -16 6 -7 5 8 13 14 17 14
4 0 12 -6 16 -14 5 -7 9 -8 9 -3 0 6 11 11 25 11 14 1 22 -2 19 -8 -3 -5 -1
-15 5 -22 8 -9 7 -13 -4 -13 -8 0 -15 7 -16 16 0 11 -2 12 -6 3 -2 -6 -9 -10
-14 -6 -12 7 -11 -3 1 -26 11 -21 -8 -34 -31 -19 -11 7 -11 9 3 9 11 0 15 6
11 20 -3 11 -9 23 -14 26 -5 3 -6 -3 -2 -13 7 -17 5 -17 -22 1 -36 24 -75 29
-75 10 0 -7 -6 -11 -14 -8 -11 4 -13 0 -9 -16 4 -16 8 -18 14 -8 5 7 9 9 9 4
0 -4 12 0 27 9 25 17 26 17 19 0 -5 -15 -4 -16 8 -6 10 8 16 9 21 1 11 -17 -3
-27 -35 -25 -16 1 -28 0 -25 -3 4 -4 -40 -32 -51 -32 -2 0 -1 7 2 15 4 8 2 15
-4 15 -5 0 -12 -9 -15 -21 -3 -11 -11 -19 -19 -18 -31 4 -42 -1 -30 -13 15
-15 15 -28 1 -28 -5 0 -8 4 -4 9 7 13 -10 22 -28 15 -19 -7 -11 -34 9 -34 8 0
14 -5 14 -11 0 -5 -5 -7 -10 -4 -20 13 141 -258 239 -400 185 -269 347 -463
605 -721 283 -283 510 -470 811 -666 1021 -669 2231 -948 3445 -797 1006 125
1943 544 2715 1213 224 195 523 512 706 751 91 119 259 368 259 384 0 5 3 11
8 13 12 5 75 109 75 124 0 8 3 14 6 14 3 0 7 12 8 27 0 14 -2 21 -5 16 -4 -6
-15 -7 -27 -2 -11 4 -14 8 -6 8 11 1 11 4 1 16 -7 9 -16 12 -19 8 -9 -12 -39
-15 -46 -3 -4 6 1 7 11 3 10 -4 15 -2 11 3 -3 6 8 9 26 8 63 -4 63 -4 49 -12
-8 -6 -2 -9 18 -9 21 0 29 4 26 13 -3 8 3 18 12 23 12 7 13 10 3 11 -8 0 -19
-7 -26 -16 -9 -14 -16 -14 -33 -5 -12 6 -22 16 -22 22 0 6 5 7 10 4 13 -8 13
1 0 25 -7 13 -7 21 0 25 5 3 10 12 10 18 0 7 -7 3 -15 -7 -11 -14 -18 -16 -28
-8 -19 16 -36 1 -26 -23 4 -11 8 -15 8 -10 1 6 10 11 22 11 19 0 19 -1 3 -13
-10 -7 -12 -13 -6 -13 7 0 12 -4 12 -9 0 -5 -9 -7 -20 -4 -11 3 -26 0 -34 -6
-11 -9 -15 -8 -20 5 -4 10 1 22 11 30 17 13 17 14 -2 7 -11 -3 -25 -10 -32
-15 -7 -6 -18 -6 -24 -2 -7 4 -9 3 -5 -4 3 -6 1 -14 -5 -18 -9 -5 -10 1 -5 20
5 19 3 26 -9 26 -8 0 -15 -5 -15 -12 0 -9 -3 -9 -12 0 -19 19 -26 14 -24 -13
2 -17 -4 -29 -20 -40 -26 -17 -38 -19 -29 -6 3 6 -3 14 -12 20 -17 10 -17 10
0 11 9 0 17 -6 17 -12 1 -7 9 -2 20 11 24 28 18 41 -14 35 -18 -3 -23 0 -22
14 0 10 -6 16 -16 16 -10 -1 -18 4 -18 10 0 17 -42 14 -57 -4 -10 -12 -12 -12
-13 -1 0 11 -3 11 -16 0 -25 -21 -38 10 -13 34 21 19 25 42 9 52 -6 3 -7 -1
-4 -10 4 -9 -1 -21 -10 -28 -25 -18 -26 -49 -3 -68 20 -16 20 -16 -3 -14 -16
1 -26 11 -35 39 -14 41 -32 65 -21 29 5 -14 3 -23 -3 -23 -6 0 -11 7 -11 15 0
26 -29 16 -36 -12 -7 -26 -7 -26 -15 -5 -8 22 -29 31 -29 13 0 -6 -9 -8 -20
-6 -11 2 -20 -1 -20 -7 0 -6 -3 -9 -6 -5 -4 3 -20 -1 -36 -9 -29 -15 -55 -11
-30 5 14 9 2 23 -30 34 -24 8 -31 -4 -10 -19 15 -12 12 -12 -15 -3 -23 8 -38
7 -53 -1 -12 -6 -24 -9 -27 -6 -3 3 3 9 13 13 16 6 14 8 -11 13 -17 4 -29 12
-27 19 1 7 -2 9 -8 6 -8 -5 -6 -13 4 -24 19 -21 20 -37 4 -47 -7 -4 -8 -3 -4
4 4 7 2 12 -4 12 -6 0 -9 3 -6 8 7 12 -21 45 -33 38 -6 -4 -7 -14 -4 -23 4
-10 2 -14 -4 -10 -6 4 -14 1 -16 -5 -4 -10 -6 -10 -6 0 -1 7 -5 10 -11 7 -5
-3 -10 -2 -10 4 0 5 -3 17 -7 27 -5 13 -3 16 10 11 9 -3 19 -2 21 2 3 5 -5 8
-17 7 -19 -1 -22 -6 -19 -34 2 -18 -1 -32 -7 -32 -6 0 -11 4 -11 8 0 11 -32
12 -46 1 -11 -9 -67 -9 -59 0 3 2 -1 11 -8 19 -9 12 -9 16 1 19 6 3 12 9 12
15 0 6 -8 7 -17 3 -10 -4 -25 -8 -33 -10 -26 -6 -26 -7 0 -14 19 -5 24 -14 25
-37 0 -19 -4 -31 -12 -31 -8 0 -11 10 -8 29 4 21 1 28 -10 28 -9 0 -13 -4 -10
-10 11 -17 -7 -11 -21 7 -12 17 -13 17 -10 -2 5 -33 -14 -55 -35 -42 -10 6
-15 15 -12 20 3 5 -1 13 -8 18 -11 7 -10 9 4 9 9 0 17 -6 17 -14 0 -8 5 -18
10 -21 6 -4 10 6 10 24 0 28 -2 29 -32 25 -18 -2 -34 -8 -36 -14 -6 -16 -32
-11 -32 6 0 10 -6 14 -15 10 -8 -3 -15 -1 -15 4 0 19 -32 10 -37 -10 -3 -11
-10 -20 -15 -20 -5 0 -6 -4 -3 -10 3 -5 -1 -10 -9 -10 -15 0 -18 6 -15 28 1 4
4 6 8 5 12 -3 9 30 -4 50 -10 15 -14 15 -24 3 -9 -11 -7 -15 10 -19 11 -3 18
-10 15 -16 -4 -7 -18 -4 -39 8 -31 17 -32 17 -49 -3 -13 -15 -16 -16 -12 -5 4
13 -1 17 -20 15 -14 0 -26 -5 -26 -9 0 -5 -10 -5 -21 -2 -14 5 -19 3 -15 -3 3
-6 1 -14 -5 -18 -7 -4 -9 -3 -6 3 4 6 1 18 -7 28 -10 14 -16 16 -34 6 -20 -10
-23 -9 -32 14 -6 15 -10 31 -10 36 0 6 -7 6 -20 -1 -11 -6 -17 -16 -14 -25 9
-21 25 -19 17 3 -12 32 5 7 21 -32 9 -22 14 -37 10 -33 -4 4 -13 2 -21 -4 -9
-9 -13 -8 -13 0 0 6 5 11 12 11 16 0 -4 21 -23 24 -8 1 -24 8 -37 15 -20 11
-26 10 -38 -6 -11 -14 -14 -15 -15 -3 -1 8 -1 18 0 23 0 4 -4 7 -9 7 -6 0 -10
-9 -10 -21 0 -11 -5 -17 -10 -14 -6 4 -8 10 -5 15 3 5 1 11 -4 14 -5 4 -9 -7
-9 -22 1 -23 5 -28 18 -25 10 3 21 -1 25 -8 6 -9 2 -11 -13 -7 -12 4 -25 2
-28 -3 -13 -22 -25 -7 -19 23 4 22 3 28 -3 19 -7 -10 -14 -10 -29 -2 -11 5
-23 8 -26 5 -3 -3 -11 -3 -18 2 -9 5 -7 11 6 21 11 7 14 13 8 13 -7 0 -18 -7
-27 -15 -16 -17 -30 -20 -21 -5 3 6 -1 7 -10 4 -14 -6 -14 -8 2 -21 17 -14 17
-14 1 -9 -10 3 -17 2 -17 -2 3 -19 -2 -33 -10 -28 -5 3 -11 -1 -15 -9 -3 -8
-11 -15 -18 -15 -9 0 -10 3 -2 8 14 9 34 46 34 62 0 8 -8 7 -25 -4 -26 -17
-34 -9 -12 13 10 10 9 11 -5 6 -9 -4 -19 -13 -22 -21 -3 -9 -10 -13 -15 -9 -5
3 -12 1 -16 -5 -3 -5 -1 -10 6 -10 7 0 10 -3 6 -6 -11 -11 -47 7 -47 24 0 10
-3 13 -8 7 -8 -13 -22 -13 -41 -1 -10 6 -12 5 -7 -2 5 -8 -1 -12 -18 -12 -19
0 -24 -5 -22 -23 2 -17 -2 -22 -21 -22 -25 0 -32 22 -8 31 11 5 12 11 4 25
-12 23 -26 25 -26 4 0 -8 4 -12 9 -9 14 9 9 -13 -7 -26 -12 -10 -16 -9 -21 4
-7 18 -25 22 -21 5 1 -6 -4 -14 -11 -16 -8 -3 -10 1 -5 13 4 12 3 15 -6 10 -6
-4 -18 -2 -26 4 -11 9 -19 6 -40 -16 -16 -17 -25 -22 -26 -13 0 8 -9 -4 -19
-26 -15 -32 -20 -36 -25 -22 -4 9 -11 14 -16 11 -5 -3 -6 2 -3 11 4 11 2 14
-9 9 -10 -3 -20 2 -26 15 -10 17 -15 19 -41 9 -21 -7 -30 -17 -30 -31 0 -17
-2 -19 -9 -8 -8 13 -12 13 -27 0 -15 -13 -16 -12 -9 10 5 16 3 26 -6 32 -21
13 -32 11 -25 -6 3 -8 0 -15 -7 -16 -7 0 -3 -4 7 -8 16 -6 17 -9 4 -13 -18 -7
-29 -1 -51 32 -9 13 -17 19 -17 13 0 -7 4 -14 9 -17 12 -8 11 -55 -2 -63 -6
-4 -7 -1 -3 6 5 8 0 14 -13 18 -11 3 -18 9 -15 14 3 5 1 9 -5 9 -5 0 -14 -7
-19 -16 -12 -21 -33 -9 -25 12 5 14 3 15 -15 5 -12 -7 -22 -22 -23 -34 0 -21
-1 -21 -8 -2 -5 11 -4 22 0 23 5 2 9 9 9 15 0 5 -3 7 -7 4 -3 -4 -12 1 -20 11
-8 9 -12 11 -8 5 12 -24 14 -53 4 -53 -6 0 -7 -5 -3 -11 4 -7 -1 -9 -12 -7
-11 2 -18 10 -17 16 2 7 -6 12 -18 12 -13 0 -18 -4 -13 -12 4 -6 3 -8 -4 -4
-6 3 -14 1 -18 -5 -5 -9 -11 -7 -21 6 -8 12 -13 14 -13 6 0 -10 -3 -11 -14 -2
-19 16 -19 147 1 220 7 30 15 57 17 58 2 2 26 12 55 22 42 16 69 18 168 14
175 -8 259 17 379 113 124 100 152 149 164 289 4 49 17 115 28 145 12 30 41
109 66 175 25 66 52 152 60 190 30 142 48 241 53 305 l6 65 44 2 c24 1 42 -1
39 -5 -2 -4 18 -7 45 -7 27 0 49 3 49 8 0 4 5 7 11 7 5 0 7 -6 3 -12 -6 -10
-4 -10 7 -2 16 12 29 12 46 1 6 -4 14 -4 17 1 3 5 30 8 60 7 30 -1 53 2 50 7
-3 4 10 9 28 9 18 1 42 3 53 5 57 10 137 26 192 37 34 8 68 10 75 6 6 -4 21
-2 32 4 12 6 24 10 29 9 4 -1 7 2 7 6 0 5 18 7 40 6 22 -1 67 4 100 11 33 7
60 11 60 8 0 -2 10 1 21 8 17 9 20 8 14 -2 -6 -9 -3 -10 11 -5 25 11 50 14
169 21 119 7 126 8 144 19 9 6 12 5 8 -2 -7 -11 74 -4 83 7 3 3 19 7 35 9 17
1 50 7 75 12 25 5 65 11 90 14 25 2 71 12 103 21 32 9 62 13 67 10 6 -3 10 -1
10 6 0 7 10 9 25 7 14 -3 25 -2 25 1 0 6 26 11 68 14 6 0 12 4 12 9 0 5 10 6
21 3 16 -6 20 -4 14 6 -6 11 -5 11 5 2 10 -9 19 -9 41 2 15 8 48 16 72 17 25
2 43 7 40 12 -3 5 0 6 8 4 8 -3 31 1 51 8 28 10 38 10 41 1 3 -8 11 -6 25 7
14 12 38 19 66 20 24 0 42 5 38 10 -3 5 2 7 11 3 10 -4 17 -1 17 5 0 6 3 8 6
5 11 -11 45 13 37 26 -4 7 0 7 10 -2 15 -12 17 -11 17 2 0 10 7 15 20 12 11
-2 20 1 20 6 0 6 5 7 10 4 6 -3 10 1 10 11 0 13 3 14 13 5 11 -8 18 -6 31 8
10 11 28 18 41 16 13 -1 23 3 22 9 -1 6 17 20 41 31 l42 19 2 86 c0 47 2 107
3 133 3 43 0 50 -21 59 -19 9 -21 14 -12 21 9 6 7 7 -6 3 -22 -8 -53 13 -36
24 7 4 -7 10 -30 14 -22 3 -43 13 -46 21 -5 12 -10 11 -27 -5 -15 -15 -24 -17
-34 -9 -10 9 -13 7 -13 -10 0 -11 -4 -21 -9 -21 -4 0 -6 11 -3 25 2 15 0 25
-7 25 -7 0 -9 -4 -6 -10 3 -5 -1 -10 -10 -10 -9 0 -14 4 -10 9 3 5 -7 8 -22 7
-16 -2 -33 3 -41 13 -13 15 -13 15 -9 0 4 -13 1 -15 -14 -12 -19 5 -19 6 -2
26 18 20 17 20 -7 14 -14 -4 -29 -7 -33 -7 -4 0 -3 -10 4 -22 10 -18 9 -20 -6
-15 -9 4 -19 7 -21 7 -3 0 -2 5 1 10 3 6 -1 10 -10 10 -9 0 -13 5 -10 10 3 6
1 10 -4 10 -14 0 -14 -6 -1 -31 8 -15 7 -19 -5 -19 -13 0 -19 11 -17 31 1 4
-7 5 -17 2 -10 -2 -24 2 -32 10 -14 14 -52 20 -44 6 3 -3 -4 -9 -14 -12 -14
-3 -18 0 -15 17 3 14 0 11 -10 -8 -13 -28 -14 -29 -24 -9 -6 11 -8 23 -5 27 3
3 1 6 -6 6 -7 0 -11 -7 -8 -14 4 -10 1 -13 -8 -10 -7 3 -15 15 -18 26 -3 11
-10 17 -16 14 -6 -4 -8 -13 -5 -20 3 -7 -2 -16 -11 -20 -9 -3 -14 -2 -11 3 3
5 -8 11 -25 15 -20 4 -28 10 -23 17 4 8 3 9 -4 5 -7 -4 -12 -15 -12 -24 0 -15
-2 -15 -10 -2 -7 10 -10 11 -10 2 0 -9 -7 -8 -25 4 -20 13 -24 13 -20 2 5 -14
3 -14 -70 -8 -11 1 -14 4 -7 7 26 10 10 18 -38 17 -27 -1 -50 2 -50 7 0 5 -5
9 -10 9 -7 0 -7 -6 0 -20 8 -16 8 -20 -4 -20 -8 0 -18 5 -22 12 -5 7 -3 8 7 3
11 -7 11 -5 -1 9 -14 18 -15 18 -21 -5 -5 -17 -7 -19 -8 -6 -1 10 -5 16 -10
13 -5 -3 -12 1 -15 10 -3 8 -10 12 -16 9 -6 -4 -7 -12 -3 -18 4 -7 -2 -5 -12
3 -10 8 -16 10 -12 3 4 -6 2 -15 -4 -19 -8 -4 -9 -3 -5 4 4 7 2 12 -4 12 -6 0
-8 5 -5 10 7 11 -8 14 -19 3 -3 -4 -16 -8 -28 -10 -12 -2 -27 -8 -35 -14 -19
-16 -16 1 4 23 13 15 14 18 2 18 -8 0 -20 -5 -26 -11 -7 -7 -19 -8 -30 -4 -10
5 -36 9 -58 11 -22 1 -34 0 -27 -3 17 -7 15 -20 -2 -20 -8 0 -15 3 -14 6 2 25
-5 32 -13 12 -8 -19 -12 -21 -24 -11 -8 7 -15 9 -16 4 0 -5 -4 1 -9 14 -5 12
-17 22 -27 22 -17 -1 -17 -1 0 -11 18 -11 14 -29 -6 -29 -7 0 -6 4 3 11 11 8
8 9 -15 5 -21 -5 -26 -4 -15 3 8 6 12 13 8 16 -3 3 -13 -2 -22 -11 -9 -9 -19
-14 -22 -11 -3 2 2 12 11 21 19 19 13 21 -15 4 -16 -10 -23 -9 -41 7 -12 11
-19 14 -15 7 4 -7 1 -15 -8 -18 -9 -3 -13 -11 -9 -17 3 -6 1 -7 -6 -3 -6 4 -9
10 -7 14 2 4 -2 13 -10 20 -12 11 -14 10 -14 -3 0 -8 -4 -15 -10 -15 -5 0 -9
5 -7 12 1 7 -8 12 -20 13 -12 0 -25 3 -29 8 -13 13 -24 7 -24 -13 0 -13 -5
-18 -15 -14 -8 3 -14 9 -13 12 2 20 -3 32 -11 27 -5 -3 -12 -1 -16 4 -3 6 -14
2 -25 -9 -13 -13 -26 -17 -44 -12 -14 4 -26 12 -27 17 -1 17 -30 28 -42 15 -9
-8 -8 -10 6 -5 10 4 17 2 17 -4 0 -6 -9 -11 -20 -11 -11 0 -20 6 -20 14 0 8
-7 17 -16 20 -24 9 -31 7 -11 -5 9 -5 17 -14 17 -20 0 -5 -10 -4 -22 3 -34 19
-80 24 -116 13 -19 -6 -21 -4 -16 11 6 17 5 17 -10 -1 -12 -13 -16 -15 -13 -5
3 10 -2 16 -14 17 -10 1 -19 -4 -19 -10 0 -7 -7 -4 -14 5 -7 10 -15 16 -18 13
-2 -3 -19 -7 -37 -9 -25 -3 -31 0 -27 11 4 8 1 11 -5 8 -16 -11 -109 -13 -115
-4 -5 8 10 13 29 10 5 -1 6 3 3 8 -4 6 -18 6 -36 1 -17 -5 -30 -5 -30 0 0 4
-11 10 -25 12 -19 4 -23 2 -15 -7 8 -9 -2 -12 -40 -11 -48 1 -64 9 -37 19 9 4
9 6 -1 6 -7 1 -22 -3 -32 -9 -29 -16 -88 -22 -95 -10 -7 12 13 78 32 101 7 8
13 23 13 32 0 9 6 17 14 17 9 0 12 7 9 19 -2 10 4 26 14 36 20 20 63 103 63
123 0 6 4 12 9 12 10 0 53 108 71 177 15 58 -2 199 -31 255 -12 24 -41 67 -65
96 -89 109 -137 216 -234 517 -48 147 -108 270 -210 430 -109 172 -123 208
-121 307 0 15 -6 40 -14 55 -8 15 -15 33 -15 38 0 6 -20 44 -45 85 -51 86 -58
136 -25 207 29 65 28 76 -12 115 -20 20 -41 54 -48 75 -6 21 -20 54 -30 73
-26 50 -32 91 -16 118 22 40 -5 99 -71 151 -56 45 -93 93 -93 123 0 36 -53
107 -95 124 -22 10 -48 27 -57 38 -15 19 -17 19 -23 3 -4 -9 -15 -17 -25 -17
-15 0 -19 12 -25 70 -8 77 -25 100 -75 100 -39 -1 -69 -31 -100 -100 -16 -35
-34 -67 -42 -70 -7 -3 -15 -14 -16 -25 -2 -11 -8 -22 -13 -25 -11 -7 -94 -4
-107 3 -5 4 -32 54 -61 111 -43 88 -71 126 -93 126 -2 0 -2 -15 0 -34 4 -38
-6 -48 -57 -53 -18 -2 -42 -8 -53 -14 -10 -5 -23 -7 -28 -4 -14 9 -12 53 3 58
6 2 9 8 5 12 -4 4 -15 4 -25 0 -21 -9 -20 -9 -55 -1 -22 5 -34 -1 -68 -34 -48
-46 -55 -48 -65 -17 -7 22 -7 22 -18 -5 -11 -29 -37 -38 -37 -14 0 7 -6 19
-14 25 -12 10 -17 8 -26 -8 -11 -21 -54 -29 -64 -12 -3 4 -19 11 -35 14 -58
12 -121 49 -149 88 -15 21 -33 39 -40 39 -7 0 -35 -22 -62 -50 -67 -69 -104
-67 -143 10 -27 53 -47 73 -101 99 -63 31 -172 38 -231 16z m208 -112 c4 -16
4 -32 -2 -92 -2 -21 -31 7 -31 31 0 10 -7 21 -15 24 -8 3 -24 22 -35 41 -16
28 -18 38 -9 44 17 10 86 -26 92 -48z m-109 -19 c6 -10 15 -22 21 -26 10 -7
10 -7 -20 -24 -11 -6 -25 -21 -31 -32 -22 -43 -46 -63 -61 -50 -18 15 -14 94
5 90 8 -1 11 2 6 9 -8 13 44 61 60 56 5 -2 14 -12 20 -23z m1596 -108 c0 -8
-4 -18 -10 -21 -5 -3 -10 -15 -10 -26 0 -12 -7 -19 -20 -19 -16 0 -19 5 -16
26 7 38 56 72 56 40z m-1620 -112 c0 -3 -11 -19 -25 -36 -17 -20 -25 -24 -25
-14 0 9 4 16 9 16 5 0 11 9 14 20 5 18 27 29 27 14z m333 -74 c-6 -22 -23 -38
-23 -21 0 17 12 41 20 41 5 0 6 -9 3 -20z m1020 -75 c-3 -9 -8 -14 -10 -11 -3
3 -2 9 2 15 9 16 15 13 8 -4z m-1753 -120 c0 -2 -10 -9 -22 -15 -22 -11 -22
-10 -4 4 21 17 26 19 26 11z m2410 -93 c0 -15 -2 -15 -10 -2 -13 20 -13 33 0
25 6 -3 10 -14 10 -23z m-3210 -62 c0 -5 -4 -10 -8 -10 -5 0 -7 -21 -6 -47 1
-27 3 -48 4 -48 1 0 4 -9 5 -20 1 -11 6 -37 10 -57 7 -38 7 -38 -26 -38 -28 0
-36 5 -48 31 -7 17 -14 43 -15 57 -1 15 -5 32 -9 38 -3 7 2 23 13 37 11 14 20
28 20 31 0 4 6 13 13 21 14 16 47 20 47 5z m-180 -280 c0 -11 -4 -20 -9 -20
-5 0 -11 9 -14 20 -3 13 0 20 9 20 8 0 14 -9 14 -20z m2213 -45 c-3 -9 -8 -14
-10 -11 -3 3 -2 9 2 15 9 16 15 13 8 -4z m-83 -25 c0 -11 -4 -20 -9 -20 -5 0
-7 9 -4 20 3 11 7 20 9 20 2 0 4 -9 4 -20z m-691 -86 c-6 -8 -12 -27 -13 -42
-1 -15 -5 -25 -11 -22 -12 5 -9 24 12 70 9 19 18 29 21 22 2 -7 -2 -19 -9 -28z
m36 -24 c-10 -11 -20 -18 -23 -15 -3 3 3 14 13 25 10 11 20 18 23 15 3 -3 -3
-14 -13 -25z m805 -16 c0 -8 -5 -12 -10 -9 -6 4 -8 11 -5 16 9 14 15 11 15 -7z
m-160 2 c0 -3 -4 -8 -10 -11 -5 -3 -10 -1 -10 4 0 6 5 11 10 11 6 0 10 -2 10
-4z m-799 -293 c-12 -20 -14 -14 -5 12 4 9 9 14 11 11 3 -2 0 -13 -6 -23z
m1132 -160 c-2 -7 3 -12 10 -10 6 1 11 -4 10 -10 -2 -7 2 -13 7 -13 6 0 10 -7
10 -15 0 -8 4 -15 9 -15 5 0 7 9 4 20 -4 16 -2 19 11 14 9 -3 16 -13 16 -21 0
-8 5 -11 10 -8 6 3 10 1 10 -4 0 -6 -4 -11 -10 -11 -5 0 -10 -9 -10 -20 0 -22
-16 -27 -22 -8 -3 7 -7 5 -11 -6 -6 -16 -2 -17 35 -12 24 3 46 5 51 5 4 1 7 6
7 12 0 5 -9 9 -20 7 -10 -2 -18 2 -17 7 1 6 7 9 14 9 14 -2 13 17 -2 29 -6 5
-2 6 8 3 10 -3 25 -6 33 -6 8 0 14 -7 14 -15 0 -8 -5 -15 -11 -15 -5 0 -7 -5
-4 -11 4 -6 13 -8 20 -5 8 3 11 -2 8 -15 -3 -10 -1 -19 3 -20 56 -6 62 -5 57
10 -3 11 2 9 14 -5 14 -15 24 -19 35 -13 11 6 20 4 28 -6 7 -8 16 -13 20 -10
4 3 10 -2 13 -10 4 -9 1 -12 -8 -9 -19 8 -51 -11 -36 -20 6 -4 11 -4 11 1 0 4
24 8 52 8 44 -1 53 -4 56 -20 4 -20 3 -20 -11 -1 -17 22 -29 9 -32 -34 -1 -23
2 -26 22 -22 13 2 23 -1 23 -7 0 -6 12 -8 33 -5 24 4 28 3 17 -5 -8 -5 -11
-13 -7 -17 3 -4 13 -1 22 6 12 10 15 10 15 -5 0 -13 6 -16 21 -12 17 4 19 3
10 -6 -17 -17 -13 -26 11 -19 14 3 19 1 14 -6 -3 -6 -2 -13 3 -16 5 -4 12 -2
16 4 3 5 11 10 17 10 5 0 0 -8 -12 -18 -20 -16 -21 -19 -7 -25 10 -4 17 -2 17
3 0 6 5 10 11 10 8 0 8 -5 -1 -15 -7 -8 -16 -12 -21 -9 -5 3 -9 -2 -9 -11 0
-9 5 -13 10 -10 6 3 10 1 10 -4 0 -6 5 -11 11 -11 5 0 7 5 4 10 -3 6 1 10 9
10 9 0 16 -4 16 -10 0 -5 7 -7 15 -4 11 5 13 2 9 -10 -4 -12 0 -16 15 -16 12
0 21 -5 21 -11 0 -5 -5 -7 -11 -4 -6 4 -13 -2 -16 -14 -3 -12 -10 -21 -15 -21
-6 0 -8 -7 -4 -15 3 -8 1 -15 -5 -15 -7 0 -8 -7 -4 -17 4 -10 7 -25 8 -33 0
-8 5 -22 11 -30 9 -13 9 -13 -5 -3 -9 7 -19 10 -22 6 -4 -3 -13 0 -22 7 -11 9
-12 16 -4 26 11 14 4 34 -12 34 -6 0 -7 -4 -4 -10 3 -5 1 -10 -4 -10 -6 0 -11
4 -11 9 0 5 -8 7 -18 4 -12 -3 -23 4 -32 21 -9 19 -22 26 -42 26 -33 0 -37
-16 -7 -25 11 -4 18 -9 16 -11 -6 -6 -58 17 -75 33 -19 18 -24 16 -17 -6 4
-14 -1 -23 -17 -32 -20 -11 -21 -10 -11 3 7 8 10 17 7 21 -8 7 -57 -2 -64 -12
-3 -5 -14 -11 -25 -13 -11 -2 -19 -11 -19 -21 2 -21 -5 -21 -30 -2 -11 8 -25
15 -30 15 -6 0 -4 -5 4 -10 17 -11 16 -11 -41 -12 -44 -1 -98 -36 -76 -50 16
-10 -10 -29 -95 -71 -37 -19 -65 -37 -61 -40 3 -4 -7 -12 -23 -19 -16 -7 -35
-18 -42 -25 -7 -7 -18 -13 -23 -13 -6 0 -8 -4 -4 -9 3 -5 -5 -12 -17 -14 -16
-3 -13 -5 12 -6 32 -2 33 -3 12 -12 -13 -5 -20 -13 -17 -19 3 -6 -4 -10 -17
-10 -13 -1 -34 -7 -48 -15 l-25 -14 32 -1 c17 0 35 5 38 10 10 16 48 12 42 -4
-3 -8 -1 -17 6 -20 9 -3 9 -7 -1 -14 -8 -5 -13 -11 -11 -13 5 -8 -13 -49 -21
-49 -5 0 -14 8 -19 18 -6 9 -11 12 -11 5 0 -6 -8 -10 -18 -8 -11 2 -19 -3 -19
-10 0 -8 3 -14 6 -13 37 4 42 -19 6 -28 -28 -7 -31 -14 -13 -32 9 -9 9 -15 -1
-24 -11 -11 -12 -10 -7 0 8 13 -10 42 -25 42 -5 0 -9 -13 -9 -30 0 -21 -4 -28
-14 -24 -8 3 -17 0 -22 -7 -4 -8 -3 -10 4 -5 7 4 12 5 12 2 0 -3 -12 -12 -27
-20 -16 -8 -22 -15 -15 -16 17 0 15 -20 -3 -20 -22 0 -18 -21 5 -27 24 -6 26
-29 4 -41 -14 -8 -14 -10 1 -25 9 -10 13 -17 8 -17 -4 0 -1 -4 7 -10 12 -8 12
-10 -3 -16 -24 -9 -23 -54 2 -54 11 0 27 -3 37 -7 13 -5 15 -3 9 8 -7 11 -6
12 6 2 9 -7 20 -8 29 -3 8 5 18 6 22 3 5 -2 14 0 21 5 7 6 26 11 42 13 17 2
42 11 56 21 17 11 29 14 36 7 6 -6 17 2 31 21 22 30 52 40 52 19 0 -7 9 -9 21
-6 12 3 22 0 26 -9 3 -8 9 -14 15 -14 5 0 6 6 3 13 -4 6 3 1 14 -12 12 -13 21
-18 21 -11 0 9 7 7 20 -5 26 -23 19 -32 -22 -29 -30 3 -34 0 -36 -24 -1 -21 0
-24 8 -12 6 9 10 10 10 3 0 -19 -21 -27 -31 -12 -7 11 -9 11 -9 1 0 -7 -3 -11
-7 -9 -5 2 -21 -9 -38 -25 -22 -21 -25 -28 -13 -28 9 0 18 3 21 8 2 4 2 1 1
-5 -2 -7 1 -13 6 -13 5 0 7 -7 4 -15 -4 -8 -1 -22 5 -29 9 -11 9 -16 0 -22 -8
-4 -9 -3 -5 4 10 17 -13 15 -31 -3 -8 -8 -19 -12 -25 -9 -7 4 -6 9 2 14 9 5 8
9 -2 13 -15 5 -21 -20 -9 -38 4 -5 6 -23 6 -40 -1 -16 2 -38 7 -47 5 -10 4
-19 -2 -23 -5 -3 -10 -11 -10 -17 0 -6 9 -3 20 7 11 10 20 14 21 9 0 -5 2 -19
3 -31 1 -12 -1 -20 -6 -17 -4 3 -8 1 -8 -4 0 -6 -9 -8 -20 -5 -23 6 -28 -12
-6 -20 15 -6 18 -47 3 -47 -4 0 -6 -4 -3 -9 4 -5 1 -11 -6 -13 -12 -4 -22 -78
-10 -78 4 0 7 -16 6 -36 -2 -27 1 -34 12 -30 8 3 14 -1 14 -9 0 -20 -29 -19
-36 0 -4 8 -18 15 -33 16 l-26 1 25 9 25 8 -25 -2 c-16 -2 -24 -8 -21 -17 10
-45 7 -66 -10 -78 -19 -13 -27 -38 -9 -27 13 8 12 5 -1 -34 -11 -32 -23 -39
-34 -21 -3 6 -2 10 3 10 18 0 20 26 2 27 -13 1 -16 -5 -14 -24 3 -29 -14 -83
-27 -83 -5 0 -9 -11 -9 -25 0 -23 -10 -30 -33 -26 -5 1 -7 -8 -5 -21 2 -14 13
-24 31 -29 24 -6 26 -5 16 7 -8 10 -8 14 0 14 6 0 11 -5 11 -11 0 -5 6 -7 13
-4 6 4 1 -3 -12 -14 -20 -18 -21 -21 -5 -21 9 0 14 -3 10 -7 -4 -5 -17 -8 -29
-8 -27 0 -31 -16 -11 -40 8 -11 12 -14 8 -6 -3 7 0 17 7 22 9 5 16 3 21 -9 5
-14 7 -13 7 6 1 18 7 22 31 22 36 0 49 -23 28 -48 -34 -40 -27 -43 9 -4 37 40
63 54 63 32 0 -5 -4 -10 -9 -10 -5 0 -8 -11 -6 -25 1 -17 -3 -25 -14 -25 -14
0 -14 -2 -1 -10 10 -6 22 -4 37 5 12 8 29 15 38 15 8 0 15 7 15 16 0 9 5 12
12 8 6 -4 8 -3 5 4 -4 5 -17 8 -30 4 -20 -5 -21 -4 -7 12 8 10 16 30 18 44 4
34 6 36 23 15 12 -14 12 -16 0 -8 -10 5 -12 4 -7 -3 9 -14 36 -16 36 -3 0 6 8
9 19 8 16 -1 17 -5 8 -24 -10 -24 -23 -30 -29 -14 -1 4 -12 5 -23 0 -19 -7
-19 -8 3 -8 13 -1 20 -5 17 -11 -3 -5 -2 -10 4 -10 12 0 51 40 51 52 0 4 4 8
9 8 4 0 8 -10 7 -22 -1 -14 5 -23 14 -23 8 0 14 8 14 18 -1 9 2 17 6 17 5 0
16 3 25 7 15 5 16 3 7 -14 -6 -11 -9 -23 -6 -25 2 -3 -2 -11 -11 -18 -28 -23
-10 -37 21 -17 15 9 26 -17 12 -31 -6 -6 -7 -16 -1 -26 7 -13 12 -12 37 9 16
14 33 25 38 25 13 0 10 -18 -4 -23 -10 -4 -10 -6 0 -6 7 -1 15 5 18 13 3 8 12
12 20 9 8 -3 14 0 14 7 0 6 -4 9 -8 6 -4 -2 -14 -1 -20 3 -10 6 -9 11 4 22 12
9 15 10 10 2 -5 -9 1 -13 19 -13 14 0 24 -4 21 -9 -3 -5 1 -11 9 -14 10 -4 12
-1 9 11 -5 14 -4 15 5 2 6 -8 11 -25 11 -37 0 -16 6 -23 18 -23 26 0 47 -47
30 -69 -10 -13 -10 -14 2 -3 8 6 23 12 35 12 18 1 18 2 3 10 -19 12 -18 31 3
53 10 9 21 12 29 7 8 -5 18 -6 22 -4 4 3 8 0 8 -5 0 -6 -8 -11 -17 -12 -11 0
-13 -3 -6 -6 7 -2 27 2 45 11 l33 16 -24 -20 c-19 -17 -21 -23 -11 -35 10 -12
10 -15 -1 -16 -10 0 -11 -2 -1 -6 17 -7 15 -30 -3 -37 -8 -3 -14 -9 -13 -13 1
-4 -4 -19 -11 -32 -11 -19 -11 -25 0 -32 7 -4 17 -5 22 -2 5 3 1 -6 -8 -20
-11 -17 -14 -34 -10 -48 6 -18 4 -21 -9 -16 -10 4 -16 1 -16 -7 0 -8 5 -16 11
-18 7 -2 1 -16 -15 -32 -14 -16 -26 -33 -26 -37 0 -5 -7 -9 -15 -9 -8 0 -15
-9 -15 -19 0 -22 -38 -54 -52 -45 -5 3 -12 -4 -15 -16 -3 -12 -11 -19 -18 -16
-17 6 -24 -13 -18 -47 4 -20 1 -27 -11 -27 -9 0 -16 -4 -16 -10 0 -5 -6 -10
-14 -10 -10 0 -13 -7 -11 -20 2 -12 -2 -23 -10 -27 -8 -3 -15 -11 -15 -18 0
-7 -7 -18 -15 -25 -8 -7 -12 -17 -8 -23 3 -5 7 -20 9 -33 1 -17 -2 -22 -16
-19 -33 6 -52 -38 -25 -57 6 -4 2 -8 -8 -8 -25 0 -46 -48 -26 -61 11 -7 10 -9
-6 -10 -11 0 -14 -3 -7 -6 18 -7 15 -23 -5 -24 -11 0 -13 -2 -5 -6 7 -3 24 2
37 11 14 9 25 12 25 7 0 -5 -11 -16 -25 -25 -23 -15 -38 -45 -16 -31 5 3 12 1
16 -5 3 -5 -1 -10 -9 -10 -9 0 -16 -4 -16 -10 0 -5 17 -7 41 -4 39 6 40 5 29
-15 -9 -17 -8 -22 6 -28 9 -3 25 -1 35 6 19 11 25 4 20 -22 -1 -5 3 -6 9 -2 5
3 10 -2 10 -12 0 -15 2 -16 10 -3 6 10 6 16 0 18 -6 2 -8 8 -4 13 8 14 24 0
24 -21 0 -11 10 -24 22 -31 18 -10 20 -9 15 5 -3 8 -2 18 4 21 5 4 12 -1 15
-9 5 -14 8 -14 29 0 20 13 24 13 35 -1 7 -9 10 -19 6 -22 -4 -4 -11 -2 -15 6
-6 9 -10 7 -14 -9 -4 -17 0 -22 24 -27 16 -3 32 -10 35 -14 10 -16 24 -9 24
11 0 11 -4 20 -10 20 -5 0 -9 6 -7 13 1 6 -3 11 -10 10 -6 -1 -14 4 -17 12 -3
10 1 15 12 15 15 0 15 2 2 10 -9 6 -11 10 -3 10 7 0 10 7 7 18 -5 13 -4 14 4
3 7 -10 14 -10 30 -2 16 8 21 7 26 -5 3 -8 2 -12 -4 -9 -6 3 -10 4 -10 1 0 -2
-3 -12 -7 -21 -5 -14 -2 -16 15 -11 11 4 23 2 27 -4 3 -5 2 -10 -4 -10 -12 0
-41 -28 -41 -41 0 -17 29 -9 35 10 6 21 35 37 35 20 0 -6 3 -8 8 -5 4 2 7 -16
7 -40 0 -24 -4 -44 -9 -44 -4 0 -6 -7 -2 -15 3 -8 1 -15 -5 -15 -6 0 -9 -6 -6
-12 2 -7 12 -11 22 -10 16 3 17 1 6 -12 -7 -8 -19 -12 -27 -9 -9 3 -12 0 -9
-9 7 -16 -19 -43 -33 -34 -5 3 -9 -1 -10 -9 -1 -8 -3 -22 -4 -30 -1 -8 -5 -15
-9 -15 -5 0 -6 -7 -3 -15 4 -8 1 -15 -5 -15 -6 0 -11 4 -11 8 0 4 -16 8 -35 9
-34 1 -48 -11 -22 -20 6 -2 -2 -4 -20 -3 -18 1 -38 7 -45 14 -17 17 -36 15
-65 -8 -31 -24 -43 -25 -43 -4 0 9 -6 14 -12 11 -7 -2 -12 -10 -11 -16 4 -15
-74 -15 -83 1 -4 6 -3 9 2 5 5 -3 25 2 44 10 26 12 31 17 18 20 -10 3 -18 12
-18 21 0 10 -10 23 -21 31 -18 11 -23 11 -31 -1 -7 -10 -11 -10 -15 0 -7 17
-44 16 -37 -2 3 -8 -4 -16 -18 -20 -37 -10 -44 -7 -56 20 -7 14 -17 22 -22 19
-6 -3 -10 1 -10 9 0 20 -14 20 -35 0 -8 -9 -23 -13 -31 -10 -13 5 -15 1 -10
-17 4 -18 1 -24 -11 -24 -8 0 -18 9 -21 20 -3 13 -7 15 -12 6 -6 -9 -12 -8
-25 4 -9 10 -11 17 -5 17 6 0 8 5 4 13 -5 8 -2 8 9 -2 15 -11 17 -11 17 2 0
24 -28 29 -40 7 -6 -11 -10 -26 -9 -33 3 -24 -1 -37 -12 -37 -5 0 -7 5 -4 10
3 6 1 10 -6 10 -8 0 -8 4 1 15 7 8 9 22 6 31 -5 14 -8 14 -23 -1 -16 -16 -17
-16 -23 1 -6 16 -7 16 -13 1 -3 -9 -16 -17 -28 -17 -18 0 -20 -4 -15 -26 6
-22 4 -25 -9 -20 -9 3 -22 6 -28 6 -7 0 -4 5 6 11 9 5 17 15 17 22 0 8 -4 6
-11 -3 -9 -12 -12 -13 -16 -1 -5 11 -7 11 -14 0 -7 -11 -9 -10 -9 5 0 16 -5
18 -34 13 -29 -5 -35 -2 -40 16 -4 17 -8 19 -18 9 -19 -19 -51 -16 -44 5 4 10
4 14 1 11 -4 -4 -17 -3 -30 2 -17 6 -27 5 -35 -6 -16 -18 -34 -18 -27 0 4 10
0 12 -14 9 -14 -4 -18 -1 -14 10 4 8 -1 17 -12 21 -15 6 -15 8 -3 17 12 7 10
8 -7 6 -33 -5 -40 -17 -15 -24 25 -6 31 -43 7 -43 -8 0 -12 6 -9 14 3 8 -4 21
-16 29 -13 9 -17 18 -11 21 12 8 3 36 -11 36 -5 0 -16 -7 -25 -15 -8 -8 -19
-12 -25 -9 -7 4 -8 2 -4 -4 4 -7 2 -12 -4 -12 -6 0 -8 -4 -5 -10 3 -5 0 -10
-8 -10 -9 0 -14 10 -14 25 0 14 4 25 9 25 5 0 3 6 -4 14 -10 11 -16 11 -27 2
-12 -9 -14 -8 -8 7 4 9 2 17 -4 17 -7 0 -9 -10 -5 -24 6 -25 -17 -45 -29 -26
-4 6 -1 10 5 10 6 0 4 10 -6 25 -8 13 -13 28 -10 33 11 18 -43 9 -60 -9 -9
-10 -20 -16 -25 -14 -4 3 -10 1 -14 -5 -10 -16 -25 -12 -26 8 0 14 -2 14 -9
-3 -5 -11 -9 -14 -9 -7 -1 6 -5 12 -10 12 -4 0 -7 -15 -5 -32 3 -23 1 -29 -5
-18 -6 8 -7 18 -4 24 3 5 1 6 -5 2 -6 -3 -13 -2 -17 4 -10 16 -25 12 -19 -5 4
-8 1 -15 -6 -15 -7 0 -9 -8 -5 -19 5 -16 2 -18 -15 -14 -11 3 -23 9 -26 14 -8
14 -24 10 -24 -6 0 -10 -9 -13 -36 -10 -22 3 -33 1 -29 -5 3 -6 -1 -13 -11
-17 -13 -5 -11 -8 12 -20 l29 -13 -30 6 c-45 10 -60 10 -62 0 -1 -5 -7 -12
-14 -16 -15 -10 -50 10 -43 25 3 5 -2 1 -10 -9 -11 -14 -16 -15 -16 -6 0 11
-3 11 -12 2 -17 -17 -38 -15 -38 3 0 9 -9 15 -25 15 -14 0 -25 -4 -25 -10 0
-5 7 -6 17 -3 11 4 14 3 9 -5 -4 -7 -2 -12 5 -12 7 0 9 -3 6 -7 -4 -3 -2 -12
5 -20 6 -7 8 -16 4 -20 -3 -4 7 -12 24 -19 16 -7 30 -20 30 -27 0 -8 7 -17 15
-21 8 -3 15 -12 15 -21 0 -8 8 -15 19 -15 10 0 19 -6 18 -12 -1 -33 4 -48 16
-45 6 1 12 -7 12 -17 0 -11 6 -21 13 -24 6 -2 12 -14 12 -27 0 -29 16 -41 35
-25 10 8 15 8 22 -3 4 -8 23 -19 41 -25 18 -6 30 -7 27 -2 -3 5 -1 12 5 15 6
4 10 3 9 -2 -5 -27 4 -42 28 -48 20 -5 31 -2 40 11 14 19 18 10 13 -30 -1 -11
3 -15 9 -12 6 4 11 0 11 -8 0 -9 7 -16 15 -16 8 0 15 -4 15 -10 0 -5 7 -10 15
-10 8 0 16 -4 16 -10 1 -5 3 -14 4 -20 1 -5 3 -13 4 -16 0 -3 6 -2 11 1 8 5 7
11 -1 21 -9 11 -9 17 -1 25 7 5 10 6 7 3 -5 -8 21 -35 32 -33 25 4 53 -3 53
-13 0 -7 11 -13 24 -13 15 0 22 5 19 13 -7 16 16 15 51 -3 34 -18 39 -19 31
-4 -5 6 2 6 16 -2 49 -25 59 -29 58 -22 -3 19 2 25 14 16 17 -13 149 -4 141 9
-12 18 20 -4 35 -25 8 -12 21 -17 33 -14 15 4 23 -2 33 -26 7 -18 23 -38 35
-45 11 -7 18 -17 15 -22 -3 -6 -2 -10 4 -10 5 0 13 5 16 10 4 6 12 4 22 -5 8
-9 12 -19 9 -23 -4 -3 -11 0 -16 8 -8 13 -12 13 -27 -2 -16 -17 -16 -18 12
-19 17 -1 38 -1 48 0 12 2 17 -5 17 -23 0 -18 -4 -24 -15 -20 -10 4 -15 0 -16
-12 -3 -44 -5 -49 -16 -47 -7 2 -13 -2 -13 -7 0 -5 -3 -9 -7 -9 -19 3 -36 -2
-30 -8 4 -3 1 -13 -5 -21 -7 -8 -17 -24 -23 -35 -6 -12 -26 -26 -45 -31 -46
-12 -46 -13 -25 -36 24 -26 14 -46 -29 -54 -20 -4 -36 -11 -36 -16 0 -5 8 -7
18 -5 9 3 4 -1 -13 -9 -16 -8 -25 -15 -20 -16 6 0 3 -5 -5 -10 -13 -8 -12 -10
3 -10 9 0 17 -4 17 -10 0 -5 -4 -10 -10 -10 -5 0 -10 -7 -10 -15 0 -8 5 -15
11 -15 5 0 7 -5 4 -10 -4 -6 -12 -8 -18 -4 -7 3 -4 -1 6 -9 17 -15 24 -33 8
-23 -5 3 -11 -1 -14 -8 -4 -10 0 -13 14 -11 13 3 19 0 16 -8 -3 -7 -9 -11 -14
-10 -5 1 -9 -7 -10 -17 -1 -13 3 -17 15 -14 14 5 13 2 -2 -10 -11 -9 -25 -16
-32 -16 -7 0 -16 -9 -19 -20 -3 -11 -10 -20 -15 -20 -4 0 -10 -8 -13 -19 -4
-18 -57 -36 -57 -20 0 5 -17 9 -38 9 -21 0 -46 6 -57 13 -11 7 -38 19 -60 26
-63 22 -137 56 -405 191 -16 8 -28 20 -26 26 2 6 -5 16 -16 23 -11 7 -17 8
-13 2 7 -13 3 -14 -19 -5 -9 3 -13 10 -10 16 3 5 0 8 -7 6 -18 -3 -122 46
-139 67 -7 8 -17 15 -23 15 -6 0 -18 6 -26 14 -9 7 -47 31 -86 51 -38 21 -77
43 -85 50 -8 6 -51 33 -95 60 -44 27 -99 63 -121 79 -23 17 -52 38 -64 46 -51
34 -150 113 -150 119 0 4 -13 14 -28 23 -15 9 -38 38 -52 65 -13 26 -28 51
-33 54 -6 5 -6 42 0 105 7 67 7 103 0 112 -13 17 8 106 34 143 15 21 17 35 11
70 -6 31 -4 54 6 78 10 24 12 57 7 115 -3 45 -8 148 -10 230 -2 81 -8 153 -13
160 -5 6 -12 28 -16 49 -4 21 -16 53 -27 72 -13 21 -18 42 -14 55 4 12 2 20
-5 20 -6 0 -25 30 -42 67 -17 37 -37 73 -44 81 -8 7 -17 25 -20 40 -4 15 -10
32 -14 37 -13 18 -29 75 -21 75 4 0 46 -23 92 -51 109 -67 183 -104 239 -120
27 -8 66 -32 96 -58 28 -25 79 -61 113 -79 72 -39 86 -34 96 31 4 23 9 51 12
62 7 35 7 231 -1 243 -11 18 -21 15 -35 -11 -12 -22 -66 -58 -97 -64 -8 -2
-22 -5 -31 -7 -10 -3 -28 -5 -41 -5 -15 -1 -21 -5 -16 -13 4 -7 3 -8 -4 -4 -7
4 -12 16 -12 26 0 13 -5 18 -15 13 -15 -5 -54 30 -76 69 -10 18 4 34 21 23 6
-3 14 4 19 17 8 21 10 22 17 4 5 -13 1 -23 -12 -34 -13 -9 -15 -16 -7 -19 7
-2 9 -11 6 -19 -3 -9 2 -14 16 -14 15 0 21 6 21 23 0 43 12 68 29 62 10 -3 22
4 30 18 20 31 22 67 5 68 -8 1 -18 3 -24 4 -5 1 -18 3 -27 4 -17 2 -17 3 1 16
17 13 18 15 1 31 -17 18 -17 20 3 120 5 23 6 48 2 55 -4 8 -10 59 -13 114 l-7
100 42 43 c36 39 41 50 42 91 1 37 -3 48 -14 47 -9 -1 -14 6 -12 18 3 14 -1
17 -12 13 -11 -4 -16 -1 -17 11 -1 14 -2 13 -6 -3 -3 -10 -11 -29 -19 -40 -7
-12 -12 -31 -9 -43 2 -12 1 -22 -3 -22 -4 0 -7 -17 -8 -37 -1 -51 -35 -203
-45 -203 -16 0 -19 41 -9 128 6 59 7 99 0 116 -9 24 -12 25 -37 14 -15 -6 -48
-12 -73 -12 -25 -1 -62 -8 -83 -15 -27 -9 -42 -10 -50 -2 -7 5 -23 8 -35 4
-18 -4 -21 -2 -15 12 13 34 -13 7 -33 -34 -10 -23 -27 -43 -36 -46 -27 -9 -41
-73 -40 -182 0 -71 5 -112 16 -133 13 -27 13 -32 0 -37 -40 -15 -70 28 -95
139 -23 103 -24 178 -3 249 33 111 96 199 143 199 33 0 53 -13 51 -31 -5 -33
1 -59 13 -57 7 2 11 -5 9 -17 -2 -18 -1 -19 11 -3 10 13 23 15 58 11 24 -3 53
-5 65 -4 22 1 94 28 94 36 0 10 -35 81 -47 96 -10 12 -9 18 6 31 17 15 19 14
29 -7 11 -24 52 -37 74 -24 7 5 9 9 4 9 -6 0 -5 5 1 11 6 6 8 23 3 44 -6 28
-4 35 16 46 22 11 23 14 8 30 -11 12 -12 19 -4 24 7 4 15 3 19 -3 7 -10 81 -9
100 2 6 4 9 11 6 16 -3 5 3 31 14 59 17 47 17 49 1 39 -11 -7 -16 -18 -12 -27
5 -14 4 -14 -11 1 -9 9 -22 18 -29 20 -7 3 -8 9 -3 18 7 11 10 10 16 -6 7 -17
8 -17 8 -1 1 10 13 28 28 41 20 17 24 28 19 42 -6 12 -10 15 -13 7 -9 -25 -21
-12 -14 15 6 21 13 26 32 23 27 -3 40 -18 37 -41 -4 -32 15 -101 33 -124 19
-24 19 -27 4 -57 -9 -17 -14 -34 -10 -37 3 -3 8 4 12 16 7 29 19 28 27 -3 4
-14 11 -25 17 -25 6 0 20 -10 31 -22 11 -13 17 -16 13 -8 -4 8 5 3 19 -12 14
-16 30 -28 36 -28 5 0 10 -4 10 -10 0 -5 0 -12 0 -15 0 -11 39 -43 70 -59 40
-20 37 -20 43 4 4 17 29 26 60 21 4 0 7 10 7 24 0 16 6 25 15 25 10 0 15 -11
15 -35 0 -19 5 -35 11 -35 5 0 8 4 5 9 -4 5 -3 17 1 27 6 16 7 16 14 -2 7 -17
8 -17 8 -1 1 9 6 17 11 17 6 0 10 7 10 15 0 8 -4 15 -10 15 -5 0 -10 -4 -10
-10 0 -12 -27 -13 -34 -1 -4 5 -2 20 3 33 10 23 10 22 10 -5 1 -17 5 -26 12
-22 6 4 8 14 5 22 -9 23 5 65 19 59 8 -3 16 2 19 10 3 8 1 14 -4 14 -6 0 -10
8 -10 18 0 12 3 13 8 5 13 -21 37 17 49 75 6 29 6 52 2 52 -5 0 -8 12 -8 28 1
15 -1 50 -4 77 -3 28 0 56 6 63 8 10 5 14 -11 18 -12 4 -19 11 -15 20 7 18 23
18 23 -1 0 -9 6 -12 16 -8 9 3 12 9 7 12 -17 11 -15 97 2 111 8 7 15 26 15 42
0 19 4 28 12 26 18 -6 38 16 38 41 0 12 4 21 10 21 16 0 32 73 17 82 -9 6 -8
10 3 18 8 5 11 10 5 10 -5 0 -3 5 5 10 10 7 11 10 2 10 -7 0 -15 -7 -18 -15
-5 -12 -10 -13 -20 -4 -11 9 -14 8 -14 -5 0 -9 4 -16 9 -16 4 0 6 -11 4 -25
-5 -23 -6 -24 -34 -10 -37 19 -36 20 -42 -15 -5 -21 -11 -28 -22 -24 -8 3 -15
10 -15 16 0 13 -26 38 -33 32 -3 -3 -3 4 0 16 3 12 12 24 20 27 10 4 11 9 2
19 -8 10 -7 21 8 45 19 34 51 54 40 26 -4 -10 3 -21 18 -31 34 -23 38 -20 31
18 -5 25 -1 39 13 57 14 17 17 29 10 42 -6 9 -7 22 -4 27 3 6 -3 10 -14 10
-14 0 -21 6 -21 20 0 24 9 26 25 4 11 -16 14 -16 43 2 18 10 32 22 32 26 0 4
6 8 13 8 6 0 23 9 37 20 14 11 40 20 58 20 17 0 32 4 32 9 0 5 9 11 20 14 13
3 18 11 14 20 -3 9 1 14 13 14 35 0 43 3 43 17 0 8 6 16 13 19 6 2 9 7 6 11
-12 13 -39 -6 -39 -28 -1 -19 -2 -19 -11 -3 -5 9 -17 17 -26 17 -10 0 -13 5
-8 18 4 9 8 23 8 30 0 6 7 12 14 12 8 0 11 4 8 10 -4 7 3 7 20 0 35 -13 35
-13 35 9 0 24 11 32 29 22 14 -9 84 8 98 23 4 5 3 6 -4 2 -9 -5 -11 -2 -7 8 3
9 10 13 15 10 5 -3 9 2 9 10 0 9 6 16 13 16 17 0 67 48 77 75 5 12 19 24 32
27 29 6 50 -1 42 -13 -3 -5 2 -12 10 -15 9 -3 14 -9 11 -13 -2 -4 36 -8 85 -8
49 0 87 3 84 8 -7 12 108 4 134 -10 37 -20 61 -5 101 62 20 33 28 38 55 35 18
-2 30 -8 29 -15z m427 -243 c0 -5 -8 -10 -17 -10 -15 0 -16 2 -3 10 19 12 20
12 20 0z m30 -4 c0 -3 -4 -8 -10 -11 -5 -3 -10 -1 -10 4 0 6 5 11 10 11 6 0
10 -2 10 -4z m207 -123 c-4 -3 -2 -12 4 -19 7 -8 6 -14 -2 -20 -7 -4 -9 -3 -6
3 10 16 -18 23 -34 10 -7 -7 -5 -2 5 11 11 12 24 22 29 22 6 0 7 -3 4 -7z
m-3640 -55 c-3 -8 -6 -5 -6 6 -1 11 2 17 5 13 3 -3 4 -12 1 -19z m1855 -14
c-3 -17 -8 -22 -15 -15 -7 7 -6 15 3 26 17 20 18 19 12 -11z m-661 -31 c-10
-17 -10 -16 -11 3 0 23 13 41 18 25 2 -6 -1 -18 -7 -28z m324 -71 l-8 -37 -8
35 c-5 22 -3 40 4 49 16 19 21 -1 12 -47z m285 37 c0 -5 -6 -9 -13 -9 -7 0
-25 -14 -40 -31 -15 -17 -27 -28 -27 -25 0 9 42 69 55 78 11 8 25 1 25 -13z
m1893 -20 c10 -23 16 -46 13 -53 -2 -6 -5 -3 -5 7 -1 9 -6 17 -12 17 -5 0 -8
-4 -5 -9 3 -5 -2 -15 -12 -22 -9 -7 -14 -10 -10 -5 4 4 3 19 -2 32 -6 15 -6
26 1 30 6 3 9 15 6 25 -9 34 8 20 26 -22z m664 35 c-3 -3 -12 -4 -19 -1 -8 3
-5 6 6 6 11 1 17 -2 13 -5z m-2538 -306 l11 -33 -20 25 c-21 27 -25 40 -11 40
5 0 14 -15 20 -32z m1278 -202 c-6 -8 -15 -12 -19 -9 -5 2 -8 -1 -8 -6 0 -6 6
-11 13 -11 6 -1 -4 -8 -23 -17 -19 -9 -46 -15 -59 -14 -14 2 -21 -1 -17 -8 4
-7 -1 -11 -13 -11 -11 0 -22 -4 -25 -9 -9 -15 -60 -20 -76 -8 -13 10 -13 10
-2 -4 10 -14 10 -18 -4 -23 -9 -3 -20 -4 -25 0 -5 3 -9 0 -9 -6 0 -6 -5 -8
-11 -4 -6 3 -15 0 -20 -7 -8 -12 -11 -12 -19 1 -5 8 -9 20 -9 25 0 6 3 4 6 -2
8 -20 21 -15 37 15 9 15 16 20 16 12 0 -12 3 -11 11 3 5 9 18 17 27 17 9 0 31
9 47 20 17 11 38 20 47 20 9 0 23 6 30 13 15 14 37 15 56 4 7 -5 12 -4 12 2 0
6 7 11 15 11 8 0 15 5 15 11 0 5 4 7 10 4 6 -4 5 -11 -3 -19z m-1556 -23 c-12
-20 -14 -14 -5 12 4 9 9 14 11 11 3 -2 0 -13 -6 -23z m-144 -29 c-3 -4 -14 -3
-24 0 -15 6 -15 8 -3 16 16 10 39 -4 27 -16z m-421 -11 c-10 -10 -19 5 -10 18
6 11 8 11 12 0 2 -7 1 -15 -2 -18z m384 3 c0 -3 -4 -8 -10 -11 -5 -3 -10 -1
-10 4 0 6 5 11 10 11 6 0 10 -2 10 -4z m300 -27 c0 -6 -4 -7 -10 -4 -5 3 -10
11 -10 16 0 6 5 7 10 4 6 -3 10 -11 10 -16z m-183 -76 c-3 -10 -5 -4 -5 12 0
17 2 24 5 18 2 -7 2 -21 0 -30z m-407 -13 c0 -5 -5 -10 -11 -10 -5 0 -7 5 -4
10 3 6 8 10 11 10 2 0 4 -4 4 -10z m3100 -21 c0 -11 4 -18 9 -15 12 8 22 -20
14 -40 -3 -9 -1 -19 5 -23 6 -3 13 -19 16 -35 3 -16 10 -32 16 -36 6 -4 8 -14
5 -22 -4 -9 -2 -19 4 -23 6 -3 11 -13 11 -22 0 -9 6 -24 14 -32 21 -24 48 -93
33 -84 -9 5 -9 3 1 -9 7 -8 10 -22 6 -31 -3 -8 -1 -18 5 -22 6 -3 11 -17 11
-31 0 -17 4 -23 12 -18 8 5 9 -3 5 -29 -5 -30 -3 -37 11 -37 13 0 13 -2 -3
-14 -11 -8 -24 -12 -28 -9 -5 3 -7 -3 -5 -13 2 -12 12 -19 25 -19 12 0 25 -3
29 -7 4 -5 0 -8 -9 -8 -20 0 -22 -11 -4 -29 10 -10 8 -11 -7 -5 -13 5 -17 4
-12 -4 4 -7 16 -12 27 -12 11 0 18 -4 15 -9 -4 -5 0 -12 6 -15 10 -5 10 -7 1
-12 -8 -3 -11 -15 -7 -30 4 -17 2 -24 -8 -24 -7 0 -14 -9 -14 -19 0 -11 3 -18
6 -16 4 2 14 -5 23 -16 9 -10 14 -19 11 -19 -3 0 -2 -5 1 -10 5 -8 11 -7 21 1
11 9 14 8 15 -7 1 -11 1 -22 0 -26 0 -5 6 -8 14 -8 8 0 15 -7 15 -16 0 -9 5
-12 11 -8 7 4 10 1 7 -7 -3 -10 -19 -14 -51 -13 -29 1 -45 -3 -44 -9 2 -14
-79 -16 -106 -4 -22 10 -107 15 -101 6 5 -9 -24 -20 -64 -25 -18 -1 -47 -10
-64 -19 -17 -8 -37 -15 -45 -15 -7 0 -13 -4 -13 -10 0 -5 -9 -10 -19 -10 -11
0 -23 -4 -26 -10 -3 -5 -21 -17 -39 -25 -33 -16 -61 -58 -51 -76 4 -5 1 -9 -4
-9 -6 0 -11 6 -11 14 0 7 -9 16 -20 19 -19 5 -34 32 -45 80 -26 118 -34 172
-25 175 6 2 10 12 10 23 0 11 -5 16 -14 13 -14 -5 -30 22 -21 36 3 5 -4 11
-15 15 -11 3 -20 11 -20 16 0 6 4 8 9 4 15 -9 23 13 12 32 -6 10 -11 14 -11 9
0 -18 -39 42 -44 67 -5 27 8 38 17 15 2 -7 7 2 12 20 4 21 3 38 -4 45 -8 8
-11 8 -11 -1 0 -10 -5 -10 -20 -2 -22 12 -27 1 -8 -18 8 -8 8 -12 1 -12 -15 0
-22 21 -16 51 3 18 21 32 74 57 38 19 71 38 74 43 4 5 18 9 32 9 16 0 27 7 30
20 3 11 9 18 13 15 5 -3 11 -1 15 4 3 5 -3 15 -12 21 -17 10 -16 10 2 8 12 -2
19 2 18 10 -2 6 6 12 18 12 11 0 17 5 14 10 -3 6 -1 10 5 10 6 0 9 4 6 8 -3 5
6 15 19 22 28 15 75 92 75 122 0 25 99 128 123 128 9 0 17 5 17 11 0 5 5 7 10
4 6 -3 10 -15 10 -26z m-2426 -134 c-10 -24 -34 28 -26 57 5 22 6 21 19 -9 7
-18 10 -39 7 -48z m-1030 -8 c-1 -9 2 -17 7 -17 5 0 9 5 9 11 0 5 5 7 10 4 6
-4 8 -11 5 -16 -4 -5 1 -9 10 -9 9 0 13 -4 10 -10 -8 -13 8 -13 21 -1 5 6 10
-1 11 -20 1 -17 -2 -27 -7 -24 -6 4 -10 -2 -10 -12 0 -10 -4 -14 -8 -8 -4 6
-16 11 -27 13 -11 2 -27 6 -35 9 -47 18 -135 -6 -185 -50 -11 -10 -29 -20 -40
-23 -22 -6 -71 -68 -104 -132 -22 -43 -31 -129 -15 -153 9 -15 12 -27 19 -83
2 -22 8 -42 12 -45 4 -3 10 -15 11 -26 2 -11 10 -32 18 -47 8 -15 14 -32 14
-38 0 -16 50 -117 87 -177 18 -29 33 -55 33 -58 0 -3 9 -14 20 -25 11 -11 20
-15 20 -9 0 6 8 1 18 -10 25 -31 94 -32 127 -1 20 18 22 27 14 48 -6 15 -6 29
-1 34 12 12 78 28 117 27 45 0 118 -41 126 -70 3 -13 11 -23 17 -22 7 2 12 -4
12 -12 0 -18 -12 -19 -27 -4 -8 8 -13 8 -17 0 -4 -6 -1 -11 6 -11 8 0 6 -5 -4
-11 -10 -5 -18 -17 -18 -24 0 -8 -4 -15 -10 -15 -5 0 -10 -6 -10 -14 0 -8 -15
-19 -32 -25 -27 -10 -35 -9 -44 3 -5 8 -22 18 -37 21 -15 4 -24 11 -21 16 3 5
-2 6 -11 2 -9 -3 -13 -9 -8 -12 5 -3 13 -15 17 -26 8 -20 8 -20 15 -1 7 17 8
18 14 3 3 -9 2 -17 -3 -17 -5 0 -8 -14 -8 -31 1 -29 -19 -56 -32 -42 -3 3 1 8
8 10 14 6 16 49 2 58 -6 3 -10 -5 -10 -19 0 -14 -5 -28 -12 -32 -8 -5 -9 -2
-4 11 5 15 4 16 -8 6 -8 -7 -20 -10 -26 -6 -5 3 -10 1 -10 -5 0 -8 -6 -7 -21
1 -15 8 -19 8 -15 0 10 -15 -5 -13 -28 4 -10 7 -15 18 -11 24 3 7 0 8 -9 5
-18 -7 -59 14 -51 27 4 5 1 9 -4 9 -6 0 -11 -5 -11 -12 0 -6 -7 -3 -15 8 -8
10 -15 15 -15 10 -1 -24 -112 129 -144 196 -9 21 -30 84 -47 140 -17 57 -39
130 -49 163 -11 33 -22 101 -26 150 l-6 90 51 85 c88 147 156 212 247 235 60
15 129 6 128 -18z m1016 -21 c0 -3 -4 -8 -10 -11 -5 -3 -10 -1 -10 4 0 6 5 11
10 11 6 0 10 -2 10 -4z m-365 -55 c-3 -6 -11 -8 -17 -5 -6 4 -5 9 3 15 16 10
23 4 14 -10z m195 -1 c0 -11 -2 -20 -4 -20 -2 0 -6 9 -9 20 -3 11 -1 20 4 20
5 0 9 -9 9 -20z m-708 -65 c0 -5 -5 -11 -10 -13 -5 -1 -9 4 -9 13 0 9 4 14 9
13 5 -2 10 -8 10 -13z m112 -46 c-6 -11 -24 -2 -24 11 0 5 7 7 15 4 8 -4 12
-10 9 -15z m2063 -5 c-3 -3 -12 -4 -19 -1 -8 3 -5 6 6 6 11 1 17 -2 13 -5z
m-5494 -39 c-3 -9 -8 -14 -10 -11 -3 3 -2 9 2 15 9 16 15 13 8 -4z m347 -5 c0
-5 -5 -10 -11 -10 -5 0 -7 5 -4 10 3 6 8 10 11 10 2 0 4 -4 4 -10z m230 -4 c0
-2 -7 -9 -15 -16 -13 -11 -14 -10 -9 4 5 14 24 23 24 12z m283 -21 c-3 -9 -8
-14 -10 -11 -3 3 -2 9 2 15 9 16 15 13 8 -4z m1471 7 c2 -4 -5 -9 -17 -9 -17
-2 -19 0 -7 7 18 12 18 12 24 2z m-1254 -17 c-7 -8 -20 -15 -29 -15 -11 0 -8
5 9 14 33 19 35 19 20 1z m1207 -7 c-3 -8 -6 -5 -6 6 -1 11 2 17 5 13 3 -3 4
-12 1 -19z m3793 -94 c0 -8 -4 -14 -10 -14 -5 0 -10 -10 -11 -22 l0 -23 -12
24 c-9 19 -8 26 6 36 9 6 13 16 9 20 -4 5 -1 5 6 1 6 -4 12 -14 12 -22z m1036
-249 c-1 -33 -16 -33 -16 0 0 14 4 25 9 25 5 0 8 -11 7 -25z m22 -130 c21 -68
28 -104 17 -93 -5 5 -42 122 -50 162 -10 44 13 -4 33 -69z m1332 31 c0 -3 -4
-8 -10 -11 -5 -3 -10 -1 -10 4 0 6 5 11 10 11 6 0 10 -2 10 -4z m350 -45 c0
-6 -5 -13 -12 -17 -6 -4 -8 -3 -4 4 3 5 0 13 -6 15 -8 3 -6 6 5 6 9 1 17 -3
17 -8z m420 -42 c0 -5 -4 -9 -10 -9 -5 0 -10 7 -10 16 0 8 5 12 10 9 6 -3 10
-10 10 -16z m-3958 -54 c6 -27 6 -27 -15 -19 -9 3 -12 14 -9 29 5 30 18 25 24
-10z m4349 15 c5 0 9 -7 9 -15 0 -18 -17 -20 -23 -2 -3 9 -8 9 -21 -2 -9 -8
-19 -11 -23 -7 -3 3 -1 6 5 6 7 0 12 7 12 16 0 11 5 14 16 10 9 -3 20 -6 25
-6z m-4248 -63 c4 3 7 1 7 -5 0 -7 -6 -12 -12 -12 -10 0 -10 -2 -1 -8 10 -7
10 -12 0 -26 -11 -16 -13 -14 -11 11 1 15 -4 35 -10 43 -9 13 -9 13 5 3 9 -7
19 -10 22 -6z m1447 -56 c0 -21 -38 -34 -75 -27 -11 3 -26 5 -32 5 -7 1 -13 6
-13 11 0 6 20 10 44 10 25 0 48 5 51 10 10 17 25 11 25 -9z m-1105 -11 c3 -5
1 -10 -4 -10 -6 0 -11 5 -11 10 0 6 2 10 4 10 3 0 8 -4 11 -10z m875 0 c0 -5
-4 -10 -10 -10 -5 0 -10 5 -10 10 0 6 5 10 10 10 6 0 10 -4 10 -10z m-25 -33
c1 -24 -18 -43 -39 -38 -5 1 -6 -5 -2 -14 8 -23 -13 -62 -25 -44 -4 8 -3 19 3
26 16 20 0 15 -35 -9 l-30 -22 19 33 c10 18 31 40 46 49 15 8 29 24 32 35 7
27 31 15 31 -16z m-3055 13 c0 -5 -2 -10 -4 -10 -3 0 -8 5 -11 10 -3 6 -1 10
4 10 6 0 11 -4 11 -10z m2192 -32 c-7 -7 -12 -8 -12 -2 0 14 12 26 19 19 2 -3
-1 -11 -7 -17z m849 -51 c-10 -9 -11 -8 -5 6 3 10 9 15 12 12 3 -3 0 -11 -7
-18z m-61 -27 c0 -5 -5 -10 -11 -10 -5 0 -7 5 -4 10 3 6 8 10 11 10 2 0 4 -4
4 -10z m-415 -58 c-3 -3 -11 0 -18 7 -9 10 -8 11 6 5 10 -3 15 -9 12 -12z m-5
-74 c0 -18 -2 -20 -9 -8 -6 8 -7 18 -5 22 9 14 14 9 14 -14z m-36 -23 c-4 -8
-11 -12 -16 -9 -6 4 -5 10 3 15 19 12 19 11 13 -6z m571 -45 c9 -27 -1 -40
-31 -40 -28 0 -31 16 -7 42 21 23 30 23 38 -2z m-579 -17 c-10 -10 -19 5 -10
18 6 11 8 11 12 0 2 -7 1 -15 -2 -18z m432 4 c12 -1 22 -7 22 -14 0 -17 -17
-17 -24 0 -5 9 -7 9 -12 -1 -5 -10 -10 -9 -25 4 -15 13 -16 19 -7 25 7 4 15 3
19 -2 3 -6 16 -11 27 -12z m-74 -3 c13 -5 14 -9 5 -20 -6 -8 -15 -12 -19 -9
-5 3 -11 1 -15 -5 -3 -5 -13 -10 -21 -10 -8 0 -12 5 -9 10 4 6 11 7 17 4 7 -5
9 -2 5 8 -9 25 6 34 37 22z m-97 -47 c-2 -6 -9 -13 -17 -15 -7 -3 -10 0 -6 7
4 6 2 11 -4 11 -6 0 -9 4 -5 10 7 12 37 1 32 -13z m-42 -7 c3 -5 1 -10 -4 -10
-6 0 -11 5 -11 10 0 6 2 10 4 10 3 0 8 -4 11 -10z m-35 -10 c-20 -13 -33 -13
-25 0 3 6 14 10 23 10 15 0 15 -2 2 -10z m-149 -225 c3 -11 1 -23 -5 -27 -7
-5 -7 -8 2 -8 6 0 12 -4 12 -9 0 -5 -8 -8 -17 -7 -11 2 -18 12 -18 24 0 11 -4
24 -8 28 -12 13 -8 22 11 20 9 0 20 -10 23 -21z m-331 -235 c0 -5 -5 -10 -11
-10 -5 0 -7 5 -4 10 3 6 8 10 11 10 2 0 4 -4 4 -10z m-57 -185 c-3 -9 -8 -14
-10 -11 -3 3 -2 9 2 15 9 16 15 13 8 -4z m267 -54 c0 -12 -26 -32 -33 -25 -6
7 14 33 26 34 4 0 7 -4 7 -9z m-60 -37 c0 -8 -4 -12 -10 -9 -5 3 -10 10 -10
16 0 5 5 9 10 9 6 0 10 -7 10 -16z m318 -69 c-3 -3 -9 2 -12 12 -6 14 -5 15 5
6 7 -7 10 -15 7 -18z m-1585 -4 c18 -7 18 -8 1 -21 -10 -8 -15 -10 -11 -3 4 7
0 16 -10 22 -20 12 -7 13 20 2z m1560 -5 c3 -8 -1 -17 -9 -20 -9 -4 -14 1 -14
14 0 23 15 27 23 6z m-57 -33 c2 -14 -24 -65 -27 -53 -8 27 -3 60 9 60 8 0 10
5 6 13 -4 6 -3 8 1 4 5 -4 10 -15 11 -24z m28 2 c3 -8 1 -15 -4 -15 -6 0 -10
7 -10 15 0 8 2 15 4 15 2 0 6 -7 10 -15z m-4 -66 c0 -5 -4 -9 -8 -9 -5 0 -9 7
-9 15 0 8 4 12 9 9 4 -3 8 -9 8 -15z m-1886 -31 c-3 -5 -12 -2 -20 6 -20 21
-17 28 5 14 11 -7 17 -16 15 -20z m1206 -22 c0 -3 -4 -8 -10 -11 -5 -3 -10 -1
-10 4 0 6 5 11 10 11 6 0 10 -2 10 -4z m590 -31 c-7 -9 -15 -13 -19 -10 -3 3
1 10 9 15 21 14 24 12 10 -5z m-945 -5 c3 -5 1 -10 -4 -10 -6 0 -11 5 -11 10
0 6 2 10 4 10 3 0 8 -4 11 -10z m335 -6 c0 -8 -19 -13 -24 -6 -3 5 1 9 9 9 8
0 15 -2 15 -3z m180 -15 c0 -9 -37 -32 -57 -35 -7 -1 -16 2 -19 7 -3 5 0 8 7
7 6 -2 14 3 16 10 3 6 -1 12 -9 13 -7 1 -2 4 12 8 27 8 50 4 50 -10z m-150 -1
c0 6 5 12 10 12 7 0 7 -6 0 -20 -14 -27 -30 -25 -30 3 0 18 2 19 10 7 6 -10
10 -11 10 -2z m-85 -8 c3 -6 -1 -7 -9 -4 -18 7 -21 14 -7 14 6 0 13 -4 16 -10z
m-855 -306 c0 -2 -7 -4 -15 -4 -8 0 -15 4 -15 10 0 5 7 7 15 4 8 -4 15 -8 15
-10z m-3138 -201 c4 -14 -2 -19 -24 -20 -17 -1 -26 2 -23 8 4 5 11 7 16 4 5
-4 12 1 15 9 8 20 11 20 16 -1z m-78 -4 c-3 -6 0 -16 7 -21 11 -8 10 -8 -4 -4
-10 3 -23 6 -28 6 -5 0 -9 5 -9 11 0 5 5 7 10 4 6 -3 10 -1 10 4 0 6 5 11 11
11 5 0 7 -5 3 -11z m-89 -9 c3 -5 1 -10 -4 -10 -6 0 -11 5 -11 10 0 6 2 10 4
10 3 0 8 -4 11 -10z m-200 -10 c3 -5 1 -10 -4 -10 -6 0 -11 5 -11 10 0 6 2 10
4 10 3 0 8 -4 11 -10z m52 -12 c-3 -8 -6 -5 -6 6 -1 11 2 17 5 13 3 -3 4 -12
1 -19z m373 18 c0 -2 -7 -9 -15 -16 -13 -11 -14 -10 -9 4 5 14 24 23 24 12z
m710 -12 c0 -14 -2 -15 -17 -3 -11 10 -14 10 -9 2 4 -7 2 -13 -3 -13 -12 0
-14 13 -4 23 12 13 33 7 33 -9z m-1518 -36 c-6 -6 -7 0 -4 19 5 21 7 23 10 9
2 -10 0 -22 -6 -28z m1348 38 c0 -3 -4 -8 -10 -11 -5 -3 -10 -1 -10 4 0 6 5
11 10 11 6 0 10 -2 10 -4z m80 0 c0 -3 -4 -8 -10 -11 -5 -3 -10 -1 -10 4 0 6
5 11 10 11 6 0 10 -2 10 -4z m-1356 -26 c4 -4 -4 -7 -18 -7 -14 1 -28 8 -31
15 -3 10 1 11 18 7 12 -4 26 -11 31 -15z m653 4 c-3 -3 -12 -4 -19 -1 -8 3 -5
6 6 6 11 1 17 -2 13 -5z m1290 -16 c-3 -8 -6 -5 -6 6 -1 11 2 17 5 13 3 -3 4
-12 1 -19z m-1837 2 c0 -5 -2 -10 -4 -10 -3 0 -8 5 -11 10 -3 6 -1 10 4 10 6
0 11 -4 11 -10z m325 1 c3 -5 1 -12 -5 -16 -5 -3 -10 1 -10 9 0 18 6 21 15 7z
m60 -1 c3 -6 -1 -7 -9 -4 -18 7 -21 14 -7 14 6 0 13 -4 16 -10z m4085 5 c0 -2
-6 -8 -13 -14 -10 -8 -14 -7 -14 2 0 8 6 14 14 14 7 0 13 -1 13 -2z m-4703
-22 c-4 -3 -2 -12 3 -18 8 -9 6 -14 -5 -19 -11 -4 -14 -2 -9 7 5 8 2 7 -9 -2
-15 -12 -17 -11 -17 6 0 24 8 33 28 33 9 0 12 -3 9 -7z m60 -25 c-9 -5 -14
-15 -10 -23 4 -11 1 -13 -11 -9 -14 5 -14 8 2 29 9 13 21 21 26 18 5 -3 1 -10
-7 -15z m67 -3 c-4 -8 -8 -15 -10 -15 -2 0 -4 7 -4 15 0 8 4 15 10 15 5 0 7
-7 4 -15z m2199 -28 c-9 -15 -21 4 -15 25 5 21 6 21 12 2 4 -10 5 -22 3 -27z
m-2003 19 c0 -3 -4 -8 -10 -11 -5 -3 -10 -1 -10 4 0 6 5 11 10 11 6 0 10 -2
10 -4z m4335 -6 c3 -5 1 -10 -4 -10 -6 0 -11 5 -11 10 0 6 2 10 4 10 3 0 8 -4
11 -10z m-4625 -30 c0 -5 -5 -10 -11 -10 -5 0 -7 5 -4 10 3 6 8 10 11 10 2 0
4 -4 4 -10z m220 0 c0 -5 -4 -10 -9 -10 -6 0 -13 5 -16 10 -3 6 1 10 9 10 9 0
16 -4 16 -10z m-315 -18 c-2 -7 5 -17 18 -22 12 -5 16 -9 9 -9 -7 -1 -10 -6
-7 -11 4 -6 3 -10 -2 -9 -25 4 -34 -2 -28 -21 4 -14 2 -20 -9 -20 -12 0 -14 5
-6 25 5 14 7 25 4 25 -3 0 -2 5 2 11 4 8 9 7 15 -2 6 -10 9 -10 9 -2 0 17 -20
27 -32 15 -12 -12 -61 6 -52 19 8 14 26 10 19 -3 -3 -7 0 -6 6 3 15 20 62 20
54 1z m65 -2 c0 -5 -2 -10 -4 -10 -3 0 -8 5 -11 10 -3 6 -1 10 4 10 6 0 11 -4
11 -10z m39 -6 c-7 -9 -9 -18 -3 -22 16 -12 15 -32 -2 -25 -8 3 -13 8 -10 11
3 2 1 14 -5 25 -7 13 -7 17 -1 13 6 -3 13 -2 17 4 3 5 9 10 12 10 3 0 0 -7 -8
-16z m96 -22 c-3 -3 -11 0 -18 7 -9 10 -8 11 6 5 10 -3 15 -9 12 -12z m-125
-7 c0 -8 -6 -15 -14 -15 -8 0 -17 -6 -19 -12 -4 -9 -6 -8 -6 3 -1 16 17 39 31
39 4 0 8 -7 8 -15z m-56 -77 c-10 -16 -22 -7 -17 13 4 15 8 17 14 8 4 -7 5
-17 3 -21z m6576 1 c0 -5 -4 -9 -10 -9 -5 0 -10 7 -10 16 0 8 5 12 10 9 6 -3
10 -10 10 -16z m-6520 1 c0 -5 -8 -10 -17 -10 -15 0 -16 2 -3 10 19 12 20 12
20 0z m60 0 c0 -5 -5 -10 -11 -10 -7 0 -9 -9 -6 -21 4 -15 3 -19 -5 -11 -11
11 -2 52 13 52 5 0 9 -4 9 -10z m6660 0 c0 -16 -31 -60 -42 -60 -5 0 -2 7 6
16 9 8 16 24 16 35 0 10 5 19 10 19 6 0 10 -5 10 -10z m-630 -35 c0 -5 -5 -3
-10 5 -8 13 -10 12 -10 -2 0 -10 -5 -18 -11 -18 -5 0 -8 3 -6 8 2 4 7 16 11
27 6 16 9 17 16 5 6 -8 10 -19 10 -25z m486 12 c1 -9 -2 -15 -7 -11 -5 3 -7
10 -4 15 4 5 -1 9 -9 9 -8 0 -20 -8 -25 -17 -6 -10 -11 -13 -11 -7 -1 32 51
43 56 11z m268 15 c2 -4 -4 -8 -14 -8 -10 0 -16 4 -14 8 3 4 9 8 14 8 5 0 11
-4 14 -8z m-6884 -12 c0 -5 -5 -10 -11 -10 -5 0 -7 5 -4 10 3 6 8 10 11 10 2
0 4 -4 4 -10z m6360 -5 c28 -16 19 -20 -11 -5 -13 7 -19 7 -19 0 0 -5 -4 -10
-10 -10 -5 0 -7 7 -4 15 7 18 12 18 44 0z m-407 -8 c4 -10 -2 -13 -21 -9 -24
5 -25 6 -7 13 11 4 21 8 21 8 1 1 4 -5 7 -12z m577 -2 c0 -8 -8 -15 -17 -14
-11 0 -13 3 -5 6 6 2 10 9 6 14 -3 5 0 9 5 9 6 0 11 -7 11 -15z m416 -9 c0
-16 -7 -24 -17 -23 -16 1 -16 3 0 24 20 28 19 28 17 -1z m124 9 c0 -8 -4 -15
-10 -15 -5 0 -7 7 -4 15 4 8 8 15 10 15 2 0 4 -7 4 -15z m93 8 c9 -8 -12 -33
-27 -33 -6 0 -3 5 8 11 15 9 16 13 5 20 -8 5 -9 9 -3 9 6 0 14 -3 17 -7z m825
-42 c-12 -4 -29 20 -21 32 3 4 11 0 18 -10 9 -12 10 -19 3 -22z m-1845 14 c-3
-9 -8 -14 -10 -11 -3 3 -2 9 2 15 9 16 15 13 8 -4z m837 5 c0 -5 -5 -10 -11
-10 -5 0 -7 5 -4 10 3 6 8 10 11 10 2 0 4 -4 4 -10z m-913 -6 c-3 -4 -2 -16 4
-28 10 -20 9 -20 -5 -2 -14 17 -13 36 1 36 4 0 3 -3 0 -6z m1123 -9 c0 -8 -2
-15 -4 -15 -2 0 -6 7 -10 15 -3 8 -1 15 4 15 6 0 10 -7 10 -15z m-7387 -9 c-4
-5 2 -7 13 -3 18 7 18 7 0 -8 -20 -15 -48 -20 -59 -9 -12 13 6 34 28 32 13 -1
21 -7 18 -12z m215 -11 c-3 -3 -9 2 -12 12 -6 14 -5 15 5 6 7 -7 10 -15 7 -18z
m6286 16 c3 -5 -1 -11 -9 -14 -9 -4 -12 -1 -8 9 6 16 10 17 17 5z m396 -1 c0
-5 -2 -10 -4 -10 -3 0 -8 5 -11 10 -3 6 -1 10 4 10 6 0 11 -4 11 -10z m847
-12 c-3 -8 -6 -5 -6 6 -1 11 2 17 5 13 3 -3 4 -12 1 -19z m637 -19 c-2 -4 -12
-5 -21 -2 -12 5 -14 3 -8 -7 6 -9 4 -11 -5 -5 -7 4 -16 2 -21 -6 -7 -11 -9
-10 -9 4 0 9 7 17 15 17 9 0 15 9 15 22 0 20 1 21 20 3 11 -10 17 -21 14 -26z
m-738 -7 c-4 -3 -11 0 -16 8 -15 24 -11 33 6 15 9 -9 13 -19 10 -23z m234 24
c0 -8 -4 -17 -9 -21 -6 -3 -9 4 -8 15 1 23 17 28 17 6z m215 4 c-3 -5 -11 -10
-16 -10 -6 0 -7 5 -4 10 3 6 11 10 16 10 6 0 7 -4 4 -10z m-1955 -10 c0 -5 -7
-7 -15 -4 -8 4 -15 8 -15 10 0 2 7 4 15 4 8 0 15 -4 15 -10z m1890 0 c0 -5 -2
-10 -4 -10 -3 0 -8 5 -11 10 -3 6 -1 10 4 10 6 0 11 -4 11 -10z m27 -12 c-3
-8 -6 -5 -6 6 -1 11 2 17 5 13 3 -3 4 -12 1 -19z m-8125 0 c-7 -7 -16 -7 -28
0 -14 8 -13 10 10 10 18 0 24 -4 18 -10z m7358 -1 c0 -8 -7 -14 -15 -14 -11 0
-12 4 -4 14 6 7 13 13 15 13 2 0 4 -6 4 -13z m540 3 c0 -5 -2 -10 -4 -10 -3 0
-8 5 -11 10 -3 6 -1 10 4 10 6 0 11 -4 11 -10z m-7590 -21 c0 -4 -7 -6 -15 -3
-8 4 -15 10 -15 15 0 4 7 6 15 3 8 -4 15 -10 15 -15z m5820 11 c0 -5 -7 -7
-15 -4 -8 4 -15 8 -15 10 0 2 7 4 15 4 8 0 15 -4 15 -10z m2160 -6 c0 -8 -5
-12 -10 -9 -6 4 -8 11 -5 16 9 14 15 11 15 -7z m-8340 2 c0 -3 -4 -8 -10 -11
-5 -3 -10 -1 -10 4 0 6 5 11 10 11 6 0 10 -2 10 -4z m7932 -10 c7 4 8 2 4 -5
-9 -13 -26 -5 -25 12 0 9 2 8 6 -1 2 -6 10 -9 15 -6z m-7837 -16 c3 -6 -1 -7
-9 -4 -18 7 -21 14 -7 14 6 0 13 -4 16 -10z m120 0 c3 -5 1 -10 -4 -10 -6 0
-11 5 -11 10 0 6 2 10 4 10 3 0 8 -4 11 -10z m8206 -13 c-10 -9 -11 -8 -5 6 3
10 9 15 12 12 3 -3 0 -11 -7 -18z m259 -12 c0 -8 -5 -15 -11 -15 -5 0 -8 4 -5
9 4 5 0 12 -6 14 -8 3 -6 6 5 6 9 1 17 -6 17 -14z m-80 -11 c0 -8 -4 -12 -10
-9 -5 3 -10 10 -10 16 0 5 5 9 10 9 6 0 10 -7 10 -16z m32 -16 c-7 -7 -12 -8
-12 -2 0 14 12 26 19 19 2 -3 -1 -11 -7 -17z m-562 -2 c0 -2 -8 -10 -17 -17
-16 -13 -17 -12 -4 4 13 16 21 21 21 13z m613 -10 c4 -10 1 -13 -9 -9 -15 6
-19 23 -5 23 5 0 11 -7 14 -14z m69 -23 c-3 -20 0 -33 7 -33 6 0 11 -5 11 -12
0 -7 -6 -6 -17 4 -10 9 -25 18 -33 21 -12 4 -11 6 3 6 9 1 17 6 17 12 0 5 -4
8 -8 5 -4 -2 -8 3 -8 13 0 9 7 17 16 17 12 0 15 -8 12 -33z m44 -8 c0 -19 -3
-22 -13 -13 -10 8 -10 14 -2 24 15 18 15 18 15 -11z m-186 -19 c0 -6 -5 -4
-10 4 -9 13 -11 13 -20 0 -11 -17 -13 -10 -4 14 5 13 9 14 20 5 8 -6 14 -17
14 -23z m80 14 c8 -5 11 -12 8 -16 -4 -3 -14 1 -23 10 -18 17 -9 21 15 6z m40
-30 c0 -5 -2 -10 -4 -10 -3 0 -8 5 -11 10 -3 6 -1 10 4 10 6 0 11 -4 11 -10z
m-83 -40 c3 0 12 8 20 18 12 15 12 13 2 -10 -10 -22 -15 -25 -26 -17 -7 6 -12
19 -12 28 1 13 2 13 6 -1 2 -10 7 -18 10 -18z m100 17 c0 -7 -9 -13 -19 -13
-23 0 -24 13 0 19 9 3 17 5 18 6 0 0 1 -5 1 -12z m-47 -31 c0 -3 -4 -8 -10
-11 -5 -3 -10 -1 -10 4 0 6 5 11 10 11 6 0 10 -2 10 -4z m-3976 -25 c3 -5 -1
-14 -8 -20 -12 -10 -14 -9 -11 6 2 10 4 19 4 21 2 5 10 2 15 -7z"/>
<path d="M5360 7245 c-11 -13 -10 -14 4 -9 9 3 16 10 16 15 0 13 -6 11 -20 -6z"/>
<path d="M5261 7146 c11 -23 39 -26 39 -5 0 4 -7 6 -15 3 -9 -4 -15 0 -15 10
0 9 -4 16 -10 16 -6 0 -5 -9 1 -24z"/>
<path d="M6208 7163 c7 -3 16 -2 19 1 4 3 -2 6 -13 5 -11 0 -14 -3 -6 -6z"/>
<path d="M6185 7131 c-3 -5 -1 -12 5 -16 5 -3 10 1 10 9 0 18 -6 21 -15 7z"/>
<path d="M6110 7110 c0 -5 6 -10 14 -10 8 0 18 5 21 10 3 6 -3 10 -14 10 -12
0 -21 -4 -21 -10z"/>
<path d="M5180 7099 c-14 -6 -33 -8 -42 -5 -11 2 -18 -1 -18 -10 0 -8 7 -11
18 -8 15 5 15 4 -2 -10 -10 -8 -15 -19 -11 -25 9 -16 35 -13 35 3 0 8 9 18 20
21 11 3 25 15 30 26 12 21 7 22 -30 8z"/>
<path d="M6400 7000 c20 -13 33 -13 25 0 -3 6 -14 10 -23 10 -15 0 -15 -2 -2
-10z"/>
<path d="M5965 6980 c4 -6 11 -8 16 -5 14 9 11 15 -7 15 -8 0 -12 -5 -9 -10z"/>
<path d="M6536 6862 c-3 -6 3 -12 15 -15 12 -3 19 -1 16 6 -5 15 -24 20 -31 9z"/>
<path d="M6261 6837 c-8 -10 -7 -14 2 -14 8 0 14 6 14 14 0 7 -1 13 -2 13 -2
0 -8 -6 -14 -13z"/>
<path d="M6150 6790 c0 -5 7 -10 15 -10 8 0 15 5 15 10 0 6 -7 10 -15 10 -8 0
-15 -4 -15 -10z"/>
<path d="M4690 6639 c0 -19 5 -41 10 -49 7 -10 8 -1 4 30 -8 56 -14 64 -14 19z"/>
<path d="M4730 6630 c-9 -6 -10 -10 -3 -10 6 0 15 5 18 10 8 12 4 12 -15 0z"/>
<path d="M4745 6610 c-3 -5 -1 -10 4 -10 6 0 11 5 11 10 0 6 -2 10 -4 10 -3 0
-8 -4 -11 -10z"/>
<path d="M4844 6609 c-3 -6 -1 -16 5 -22 8 -8 11 -5 11 11 0 24 -5 28 -16 11z"/>
<path d="M5750 6375 c-7 -9 -8 -15 -2 -15 5 0 12 7 16 15 3 8 4 15 2 15 -2 0
-9 -7 -16 -15z"/>
<path d="M5612 6276 c7 -8 15 -12 17 -11 5 6 -10 25 -20 25 -5 0 -4 -6 3 -14z"/>
<path d="M5530 6094 c15 -18 27 -18 27 -1 0 7 -9 14 -19 14 -16 2 -17 -1 -8
-13z"/>
<path d="M5730 5966 c0 -2 8 -10 18 -17 15 -13 16 -12 3 4 -13 16 -21 21 -21
13z"/>
<path d="M5820 5944 c0 -8 -4 -12 -10 -9 -6 4 -7 -2 -2 -15 4 -12 12 -22 17
-22 6 0 15 -3 20 -8 6 -5 11 1 11 16 1 13 -2 24 -7 24 -5 0 -9 7 -9 15 0 8 -4
15 -10 15 -5 0 -10 -7 -10 -16z"/>
<path d="M4136 5843 c-6 -14 -5 -15 5 -6 7 7 10 15 7 18 -3 3 -9 -2 -12 -12z"/>
<path d="M5900 5856 c0 -2 7 -7 16 -10 8 -3 12 -2 9 4 -6 10 -25 14 -25 6z"/>
<path d="M4161 5824 c0 -11 3 -14 6 -6 3 7 2 16 -1 19 -3 4 -6 -2 -5 -13z"/>
<path d="M4660 5830 c-9 -6 -10 -10 -3 -10 6 0 15 5 18 10 8 12 4 12 -15 0z"/>
<path d="M4125 5810 c-3 -5 -1 -10 4 -10 6 0 11 5 11 10 0 6 -2 10 -4 10 -3 0
-8 -4 -11 -10z"/>
<path d="M4270 5811 c0 -5 7 -15 17 -22 15 -13 15 -12 4 9 -12 23 -21 28 -21
13z"/>
<path d="M4380 5740 c0 -5 5 -10 11 -10 5 0 7 5 4 10 -3 6 -8 10 -11 10 -2 0
-4 -4 -4 -10z"/>
<path d="M4528 5728 c17 -17 42 -19 35 -2 -3 8 -15 14 -26 14 -16 0 -18 -3 -9
-12z"/>
<path d="M5835 5589 c-4 -6 -5 -12 -2 -15 2 -3 7 2 10 11 7 17 1 20 -8 4z"/>
<path d="M5810 5479 c0 -5 -4 -7 -10 -4 -5 3 -10 1 -10 -5 0 -17 31 -24 41 -9
13 20 11 29 -6 29 -8 0 -15 -5 -15 -11z"/>
<path d="M5757 5362 c-17 -18 -17 -20 -1 -26 22 -8 26 -3 22 24 -3 22 -3 22
-21 2z"/>
<path d="M5743 5313 c-7 -2 -13 -12 -12 -21 0 -11 2 -12 6 -4 2 6 9 10 14 6 5
-3 9 2 9 10 0 9 -1 16 -2 15 -2 0 -9 -3 -15 -6z"/>
<path d="M5662 5028 c-18 -17 -29 -34 -26 -37 3 -3 9 1 13 8 5 8 14 10 21 6 9
-6 11 -4 5 5 -5 8 -1 18 10 26 10 8 16 16 13 19 -3 3 -19 -9 -36 -27z"/>
<path d="M5610 4941 c0 -22 25 -35 45 -23 10 5 6 12 -16 24 -28 16 -29 16 -29
-1z"/>
<path d="M5690 4939 c-11 -20 -11 -20 13 -4 13 8 33 13 43 9 16 -5 16 -4 4 5
-24 17 -48 13 -60 -10z"/>
<path d="M5740 4909 c0 -5 6 -7 13 -3 10 6 10 4 0 -7 -21 -22 -15 -34 7 -14
11 10 20 22 20 27 0 4 -9 8 -20 8 -11 0 -20 -5 -20 -11z"/>
<path d="M6450 4855 c0 -5 5 -17 10 -25 5 -8 10 -10 10 -5 0 6 -5 17 -10 25
-5 8 -10 11 -10 5z"/>
<path d="M6423 4803 c-10 -3 -9 -8 2 -19 17 -17 35 -11 35 12 0 14 -14 17 -37
7z"/>
<path d="M6430 4701 c0 -5 5 -13 10 -16 6 -3 10 -2 10 4 0 5 -4 13 -10 16 -5
3 -10 2 -10 -4z"/>
<path d="M5272 4648 c2 -6 10 -13 16 -14 7 -1 8 0 2 3 -5 2 -8 9 -4 14 3 5 0
9 -6 9 -7 0 -10 -5 -8 -12z"/>
<path d="M5201 4311 c-10 -7 -10 -10 -1 -16 6 -4 16 -3 22 3 13 13 -4 23 -21
13z"/>
<path d="M6082 4104 c-10 -12 -10 -14 2 -14 17 0 30 16 19 23 -5 3 -14 -1 -21
-9z"/>
<path d="M5230 3810 c0 -5 5 -10 11 -10 5 0 7 5 4 10 -3 6 -8 10 -11 10 -2 0
-4 -4 -4 -10z"/>
<path d="M5341 3794 c0 -11 3 -14 6 -6 3 7 2 16 -1 19 -3 4 -6 -2 -5 -13z"/>
<path d="M4660 3724 c0 -14 3 -14 15 -4 8 7 15 14 15 16 0 2 -7 4 -15 4 -8 0
-15 -7 -15 -16z"/>
<path d="M6027 3709 c5 -18 -11 -27 -20 -11 -2 4 -2 2 -1 -5 2 -6 -2 -14 -9
-17 -9 -5 -9 -7 0 -12 7 -3 9 -13 6 -22 -4 -14 -3 -14 5 -2 6 8 8 18 6 22 -3
4 4 8 15 8 19 0 39 35 27 48 -15 15 -33 9 -29 -9z"/>
<path d="M6430 3699 c0 -5 5 -7 10 -4 6 3 10 -1 10 -10 0 -9 4 -14 10 -10 13
8 1 35 -16 35 -8 0 -14 -5 -14 -11z"/>
<path d="M6060 3659 c0 -5 5 -7 10 -4 6 3 10 8 10 11 0 2 -4 4 -10 4 -5 0 -10
-5 -10 -11z"/>
<path d="M6240 3640 c0 -5 -7 -10 -15 -10 -8 0 -15 -5 -15 -11 0 -6 9 -9 20
-6 11 3 23 1 26 -4 3 -5 0 -9 -6 -9 -7 0 -10 -6 -7 -14 3 -8 -1 -16 -9 -18
-11 -2 -10 -6 6 -16 18 -11 20 -10 20 14 0 14 4 23 10 19 13 -8 13 5 -2 38
-13 27 -28 36 -28 17z"/>
<path d="M6442 3630 c-7 -11 -9 -20 -4 -20 4 0 13 9 20 20 7 11 9 20 4 20 -4
0 -13 -9 -20 -20z"/>
<path d="M6177 3633 c-12 -12 -7 -22 8 -17 8 4 15 10 15 15 0 11 -14 12 -23 2z"/>
<path d="M6377 3579 c7 -7 15 -10 18 -7 3 3 -2 9 -12 12 -14 6 -15 5 -6 -5z"/>
<path d="M4701 3374 c0 -11 3 -14 6 -6 3 7 2 16 -1 19 -3 4 -6 -2 -5 -13z"/>
<path d="M4765 3350 c-4 -7 1 -21 14 -33 24 -24 27 -14 7 22 -9 17 -15 20 -21
11z"/>
<path d="M4580 3260 c-13 -8 -12 -10 3 -10 9 0 17 5 17 10 0 12 -1 12 -20 0z"/>
<path d="M4915 3250 c3 -5 8 -10 11 -10 2 0 4 5 4 10 0 6 -5 10 -11 10 -5 0
-7 -4 -4 -10z"/>
<path d="M4736 3213 c-6 -14 -5 -15 5 -6 7 7 10 15 7 18 -3 3 -9 -2 -12 -12z"/>
<path d="M4855 3180 c-3 -5 -1 -10 4 -10 6 0 11 5 11 10 0 6 -2 10 -4 10 -3 0
-8 -4 -11 -10z"/>
<path d="M4736 3006 c3 -8 12 -12 20 -9 21 8 17 23 -6 23 -13 0 -18 -5 -14
-14z"/>
<path d="M4710 2958 c-27 -42 -22 -57 21 -54 22 2 39 -1 39 -7 0 -6 3 -8 6 -5
7 7 -33 88 -44 88 -4 0 -14 -10 -22 -22z"/>
<path d="M5668 2953 c7 -3 16 -2 19 1 4 3 -2 6 -13 5 -11 0 -14 -3 -6 -6z"/>
<path d="M5506 2743 c-4 -9 -4 -14 0 -10 4 4 14 1 22 -5 12 -10 14 -9 11 6 -5
26 -25 31 -33 9z"/>
<path d="M4750 2681 c-6 -12 -7 -21 -1 -21 10 0 24 30 17 37 -2 3 -9 -5 -16
-16z"/>
<path d="M4770 2660 c0 -5 5 -10 10 -10 6 0 10 5 10 10 0 6 -4 10 -10 10 -5 0
-10 -4 -10 -10z"/>
<path d="M5375 2430 c3 -5 10 -10 16 -10 5 0 9 5 9 10 0 6 -7 10 -16 10 -8 0
-12 -4 -9 -10z"/>
<path d="M806 2702 c-2 -4 4 -8 14 -8 10 0 16 4 14 8 -3 4 -9 8 -14 8 -5 0
-11 -4 -14 -8z"/>
<path d="M2635 8930 c-3 -5 1 -10 9 -10 9 0 16 5 16 10 0 6 -4 10 -9 10 -6 0
-13 -4 -16 -10z"/>
<path d="M2690 8910 c0 -8 5 -22 10 -30 9 -13 10 -13 10 0 0 8 -5 22 -10 30
-9 13 -10 13 -10 0z"/>
<path d="M8931 8477 c-6 -6 -11 -16 -11 -21 0 -6 5 -4 10 4 7 11 9 10 7 -9
l-1 -23 -17 21 c-12 14 -20 18 -25 10 -4 -8 -9 -7 -15 2 -7 12 -9 12 -9 0 0
-8 -6 -11 -16 -7 -12 5 -14 1 -9 -15 6 -19 5 -20 -15 -9 -18 10 -20 14 -9 21
10 6 8 8 -8 7 -12 -1 -19 -7 -16 -14 2 -7 -5 -15 -17 -19 l-22 -7 22 -15 c19
-13 24 -13 31 -2 7 11 9 11 9 -2 0 -11 8 -15 25 -14 14 2 25 -1 25 -7 0 -6 11
-8 24 -6 17 4 23 1 19 -9 -4 -9 0 -11 11 -7 9 4 36 -1 59 -9 23 -9 62 -18 86
-21 49 -6 51 -13 -27 81 -50 59 -94 87 -111 70z"/>
<path d="M8740 8434 c0 -8 5 -12 10 -9 6 3 10 10 10 16 0 5 -4 9 -10 9 -5 0
-10 -7 -10 -16z"/>
<path d="M3224 7835 c-37 -48 -27 -50 15 -3 18 21 29 38 23 38 -6 0 -23 -16
-38 -35z"/>
<path d="M3165 7730 c-4 -12 -5 -24 -2 -27 3 -2 8 5 12 17 4 12 5 24 2 27 -3
2 -8 -5 -12 -17z"/>
<path d="M406 5801 c-3 -5 5 -8 19 -8 14 0 22 3 19 8 -3 5 -11 9 -19 9 -8 0
-16 -4 -19 -9z"/>
<path d="M500 5799 c0 -5 5 -7 10 -4 6 3 10 8 10 11 0 2 -4 4 -10 4 -5 0 -10
-5 -10 -11z"/>
<path d="M803 5800 c2 -8 14 -16 28 -17 19 -1 20 -1 4 4 -11 3 -24 10 -28 17
-6 7 -7 6 -4 -4z"/>
<path d="M2650 5781 c0 -6 4 -13 10 -16 6 -3 7 1 4 9 -7 18 -14 21 -14 7z"/>
<path d="M1085 5770 c-3 -5 -1 -10 4 -10 6 0 11 5 11 10 0 6 -2 10 -4 10 -3 0
-8 -4 -11 -10z"/>
<path d="M1855 5740 c-3 -5 1 -10 10 -10 9 0 13 5 10 10 -3 6 -8 10 -10 10 -2
0 -7 -4 -10 -10z"/>
<path d="M2145 5740 c-3 -5 1 -10 10 -10 9 0 13 5 10 10 -3 6 -8 10 -10 10 -2
0 -7 -4 -10 -10z"/>
<path d="M2285 5730 c-3 -5 -2 -10 4 -10 5 0 13 5 16 10 3 6 2 10 -4 10 -5 0
-13 -4 -16 -10z"/>
<path d="M2330 5730 c-9 -6 -10 -10 -3 -10 6 0 15 5 18 10 8 12 4 12 -15 0z"/>
<path d="M8660 5310 c0 -5 5 -10 10 -10 6 0 10 5 10 10 0 6 -4 10 -10 10 -5 0
-10 -4 -10 -10z"/>
<path d="M8817 5296 c-4 -10 -5 -21 -2 -24 9 -9 17 6 13 25 -3 17 -4 17 -11
-1z"/>
<path d="M9360 5240 c-13 -8 -12 -10 3 -10 9 0 17 5 17 10 0 12 -1 12 -20 0z"/>
<path d="M10225 5119 c-4 -6 -5 -12 -2 -15 2 -3 7 2 10 11 7 17 1 20 -8 4z"/>
<path d="M1050 3091 c0 -6 4 -13 10 -16 6 -3 7 1 4 9 -7 18 -14 21 -14 7z"/>
<path d="M1290 3096 c0 -2 7 -7 16 -10 8 -3 12 -2 9 4 -6 10 -25 14 -25 6z"/>
<path d="M1736 3091 c-4 -5 -2 -12 3 -15 5 -4 12 -2 15 3 4 5 2 12 -3 15 -5 4
-12 2 -15 -3z"/>
<path d="M1945 3075 c33 -27 45 -31 45 -14 0 5 -4 7 -10 4 -5 -3 -10 -1 -10 4
0 6 -7 11 -15 11 -8 0 -15 5 -15 10 0 6 -6 10 -12 10 -7 -1 1 -12 17 -25z"/>
<path d="M2252 3070 c-18 -29 -15 -36 7 -16 15 13 20 14 24 4 3 -7 6 -8 6 -2
1 6 -5 16 -12 22 -9 8 -16 6 -25 -8z"/>
<path d="M2470 3076 c0 -2 7 -7 16 -10 8 -3 12 -2 9 4 -6 10 -25 14 -25 6z"/>
<path d="M810 3029 c0 -5 5 -7 10 -4 6 3 10 8 10 11 0 2 -4 4 -10 4 -5 0 -10
-5 -10 -11z"/>
<path d="M845 3029 c-4 -6 -4 -13 -1 -16 3 -4 6 -1 6 6 0 7 5 9 10 6 6 -3 10
-1 10 4 0 14 -17 14 -25 0z"/>
<path d="M940 3028 c0 -9 5 -20 10 -23 13 -8 13 5 0 25 -8 13 -10 13 -10 -2z"/>
<path d="M776 3022 c-3 -5 1 -9 9 -9 8 0 15 4 15 9 0 4 -4 8 -9 8 -6 0 -12 -4
-15 -8z"/>
<path d="M883 2983 c-3 -7 -9 -10 -14 -7 -5 3 -9 1 -9 -5 0 -20 22 -22 27 -3
3 13 10 19 20 15 8 -3 12 -11 10 -18 -3 -7 3 -11 16 -10 12 1 28 -2 35 -8 10
-8 12 -3 10 19 -2 27 -5 29 -46 29 -27 0 -46 -5 -49 -12z m87 -7 c0 -2 -7 -7
-16 -10 -8 -3 -12 -2 -9 4 6 10 25 14 25 6z"/>
<path d="M782 2946 c7 -8 17 -12 22 -9 4 3 2 9 -5 14 -22 13 -31 11 -17 -5z"/>
<path d="M660 2920 c0 -5 5 -10 11 -10 5 0 7 5 4 10 -3 6 -8 10 -11 10 -2 0
-4 -4 -4 -10z"/>
<path d="M846 2893 c-6 -14 -5 -15 5 -6 7 7 10 15 7 18 -3 3 -9 -2 -12 -12z"/>
<path d="M608 2883 c6 -2 18 -2 25 0 6 3 1 5 -13 5 -14 0 -19 -2 -12 -5z"/>
<path d="M691 2858 c-1 -15 5 -30 12 -34 6 -4 9 -3 4 1 -4 5 0 16 9 26 10 11
12 19 5 24 -6 3 -11 -2 -12 -12 0 -16 -1 -16 -9 2 -8 18 -9 17 -9 -7z"/>
<path d="M767 2863 c3 -7 13 -13 23 -13 10 0 20 6 23 13 3 8 -5 12 -23 12 -18
0 -26 -4 -23 -12z"/>
<path d="M828 2853 c7 -3 16 -2 19 1 4 3 -2 6 -13 5 -11 0 -14 -3 -6 -6z"/>
<path d="M750 2842 c0 -12 19 -26 26 -19 2 2 -2 10 -11 17 -9 8 -15 8 -15 2z"/>
<path d="M7425 2839 c-11 -17 1 -21 15 -4 8 9 8 15 2 15 -6 0 -14 -5 -17 -11z"/>
<path d="M7645 2840 c-3 -5 -2 -10 4 -10 5 0 13 5 16 10 3 6 2 10 -4 10 -5 0
-13 -4 -16 -10z"/>
<path d="M8070 2840 c0 -5 5 -10 10 -10 6 0 10 5 10 10 0 6 -4 10 -10 10 -5 0
-10 -4 -10 -10z"/>
<path d="M8227 2834 c-9 -10 12 -44 26 -43 9 0 9 2 -1 6 -6 2 -10 9 -6 14 3 5
0 9 -6 9 -6 0 -8 5 -5 10 7 11 2 13 -8 4z"/>
<path d="M631 2814 c0 -11 3 -14 6 -6 3 7 2 16 -1 19 -3 4 -6 -2 -5 -13z"/>
<path d="M7636 2808 c3 -4 9 -8 15 -8 5 0 9 4 9 8 0 5 -7 9 -15 9 -8 0 -12 -4
-9 -9z"/>
<path d="M7890 2810 c-13 -8 -13 -10 2 -10 9 0 20 5 23 10 8 13 -5 13 -25 0z"/>
<path d="M7965 2810 c-4 -6 -12 -7 -18 -4 -7 4 -8 3 -4 -1 13 -15 37 -14 37 1
0 16 -6 18 -15 4z"/>
<path d="M8000 2811 c0 -5 5 -13 10 -16 6 -3 10 -2 10 4 0 5 -4 13 -10 16 -5
3 -10 2 -10 -4z"/>
<path d="M9150 2814 c0 -3 7 -12 15 -20 13 -13 15 -13 15 -1 0 8 -7 17 -15 21
-8 3 -15 3 -15 0z"/>
<path d="M9400 2811 c0 -5 5 -13 10 -16 6 -3 10 -2 10 4 0 5 -4 13 -10 16 -5
3 -10 2 -10 -4z"/>
<path d="M7101 2794 c0 -11 3 -14 6 -6 3 7 2 16 -1 19 -3 4 -6 -2 -5 -13z"/>
<path d="M7195 2800 c-4 -6 3 -10 14 -10 25 0 27 6 6 13 -8 4 -17 2 -20 -3z"/>
<path d="M7416 2793 c-6 -14 -5 -15 5 -6 7 7 10 15 7 18 -3 3 -9 -2 -12 -12z"/>
<path d="M8957 2803 c-4 -3 -7 -11 -7 -17 0 -6 5 -5 12 2 6 6 9 14 7 17 -3 3
-9 2 -12 -2z"/>
<path d="M8310 2790 c-8 -5 -10 -10 -5 -10 6 0 17 5 25 10 8 5 11 10 5 10 -5
0 -17 -5 -25 -10z"/>
<path d="M679 2782 c-14 -6 -15 -9 -3 -20 12 -11 14 -10 14 3 0 10 5 13 12 9
7 -4 8 -3 4 4 -4 7 -8 12 -9 11 -1 0 -9 -3 -18 -7z"/>
<path d="M8500 2770 c0 -11 4 -20 9 -20 6 0 9 9 8 20 -1 11 -5 20 -9 20 -4 0
-8 -9 -8 -20z"/>
<path d="M8533 2768 c-2 -16 1 -18 10 -9 7 7 8 14 1 21 -6 6 -10 2 -11 -12z"/>
<path d="M8860 2784 c0 -3 7 -12 15 -21 8 -8 13 -19 10 -24 -4 -5 1 -6 9 -3
22 8 20 31 -3 44 -22 11 -31 13 -31 4z"/>
<path d="M9308 2767 c3 -13 1 -18 -6 -13 -6 3 -13 2 -16 -3 -14 -21 12 -19 32
3 19 23 19 24 2 29 -13 3 -16 0 -12 -16z"/>
<path d="M8754 2765 c-19 -14 -19 -14 2 -15 12 0 24 7 28 15 7 19 -5 19 -30 0z"/>
<path d="M8837 2773 c-8 -12 22 -48 31 -38 4 3 2 9 -4 13 -6 4 -13 14 -16 22
-3 9 -7 10 -11 3z"/>
<path d="M9145 2770 c-3 -5 -1 -10 4 -10 6 0 11 5 11 10 0 6 -2 10 -4 10 -3 0
-8 -4 -11 -10z"/>
<path d="M9211 2764 c0 -11 3 -14 6 -6 3 7 2 16 -1 19 -3 4 -6 -2 -5 -13z"/>
<path d="M7036 2762 c-6 -5 16 -42 25 -42 4 0 7 11 7 23 0 21 -20 32 -32 19z"/>
<path d="M8467 2761 c-17 -6 -16 -8 7 -19 26 -12 32 -7 18 14 -4 6 -15 8 -25
5z"/>
<path d="M706 2748 c-15 -8 -16 -12 -5 -19 11 -7 11 -9 -3 -9 -9 0 -18 3 -21
8 -2 4 -2 2 -1 -5 4 -15 -24 -25 -32 -11 -4 6 -3 8 4 5 6 -5 8 0 5 13 -8 29
-18 24 -20 -10 -2 -21 2 -30 13 -30 23 0 75 30 69 40 -3 4 1 10 7 13 7 2 11 7
8 10 -3 3 -14 1 -24 -5z"/>
<path d="M9256 2748 c5 -8 2 -9 -10 -5 -14 5 -15 3 -6 -13 13 -24 22 -29 59
-34 18 -2 36 2 42 10 6 8 19 15 28 15 9 1 0 5 -19 8 -25 5 -38 3 -47 -8 -10
-11 -13 -12 -13 -2 0 10 -3 11 -14 2 -11 -9 -12 -6 -8 14 2 15 0 25 -7 25 -7
0 -9 -5 -5 -12z m81 -34 c-3 -3 -12 -4 -19 -1 -8 3 -5 6 6 6 11 1 17 -2 13 -5z"/>
<path d="M9535 2750 c-3 -6 1 -7 9 -4 18 7 21 14 7 14 -6 0 -13 -4 -16 -10z"/>
<path d="M6590 2729 c0 -5 5 -7 10 -4 6 3 10 8 10 11 0 2 -4 4 -10 4 -5 0 -10
-5 -10 -11z"/>
<path d="M9420 2736 c0 -2 7 -7 16 -10 8 -3 12 -2 9 4 -6 10 -25 14 -25 6z"/>
<path d="M9612 2720 c0 -14 2 -19 5 -12 2 6 2 18 0 25 -3 6 -5 1 -5 -13z"/>
<path d="M9386 2714 c-9 -24 -2 -26 12 -4 7 11 8 20 3 20 -5 0 -12 -7 -15 -16z"/>
</g>
</svg>
