<?xml version="1.0" encoding="UTF-8"?>
<!--Generator: Apple Native CoreSVG 232.5-->
<!DOCTYPE svg
PUBLIC "-//W3C//DTD SVG 1.1//EN"
       "http://www.w3.org/Graphics/SVG/1.1/DTD/svg11.dtd">
<svg version="1.1" xmlns="http://www.w3.org/2000/svg" xmlns:xlink="http://www.w3.org/1999/xlink" width="27.7344" height="24.5469">
 <g>
  <rect height="24.5469" opacity="0" width="27.7344" x="0" y="0"/>
  <path d="M0 15.6719C2.07812 19.0625 7.48438 24.2656 14.7812 24.2656C19.4219 24.2656 20.7031 22.0938 23.3906 22.0938C25.6406 22.0938 26.5312 23.6094 26.875 24.2031C26.9688 24.3906 27.1406 24.5156 27.2344 24.1562C27.2969 23.8906 27.3594 23.5469 27.3594 23.125C27.3594 21.9375 27.0156 19.6875 25.0312 17.2031C25.4688 15.9844 25.5156 14.6562 25.5156 13.8594C25.5156 10.2656 23.4844 4.01562 16.7969 0C18.1875 1.96875 20.0625 4.95312 20.0625 9.10938C20.0625 10.6094 19.6562 12.2656 19.3125 13.0938C15.6719 10.9844 8.71875 5.1875 5.9375 2.23438C8.17188 5.65625 10.8125 8.76562 13.75 12.0156C9.79688 9.51562 6.125 6.73438 2.70312 3.65625C5.98438 8.4375 10.125 13.125 15.6094 17.5469C14.0469 18.4219 12.4375 19.1094 9.67188 19.1094C6.32812 19.1094 2.23438 17.4844 0 15.6719Z" fill="#000000"/>
 </g>
</svg>
